<svg xmlns="http://www.w3.org/2000/svg" xmlns:xlink="http://www.w3.org/1999/xlink" version="1.1" viewBox="0 0 172 172"><g fill="none" fill-rule="nonzero" stroke="none" stroke-width="1" stroke-linecap="butt" stroke-linejoin="miter" stroke-miterlimit="10" stroke-dasharray="" stroke-dashoffset="0" font-family="none" font-weight="none" font-size="none" text-anchor="none" style="mix-blend-mode: normal"><path d="M0,172v-172h172v172z" fill="none"/><g fill="#aaf0d1"><path d="M87.075,10.32c-20.98937,0 -44.10187,7.955 -48.9125,33.755c-0.68531,2.75469 1.3975,4.05813 3.1175,4.4075l21.285,2.0425c2.06938,0 3.50719,-2.01562 4.1925,-4.085c1.72,-8.94937 9.27188,-13.4375 17.5225,-13.4375c4.47469,0 9.60781,1.78719 12.3625,5.9125c3.09063,4.47469 2.4725,10.6425 2.4725,15.8025v3.1175c-12.72531,1.37063 -29.24,2.365 -41.28,7.525c-13.76,5.84531 -23.435,17.91219 -23.435,35.7975c0,22.70938 14.44531,34.0775 32.68,34.0775c15.48,0 24.08,-3.84312 36.12,-16.2325c4.12531,5.84531 5.45563,8.64031 12.685,14.835c1.72,1.03469 3.78938,0.61813 5.16,-0.7525v0.43c4.47469,-3.78937 12.40281,-11.04562 16.8775,-14.835c1.72,-1.03469 1.37063,-3.44 0,-5.16c-4.12531,-5.50937 -8.2775,-9.9975 -8.2775,-20.3175v-34.0775c0,-14.44531 1.10188,-27.86937 -9.5675,-37.84c-8.6,-8.25062 -22.33312,-10.965 -33.0025,-10.965zM92.88,75.68h5.805v4.8375c0,8.25063 0.36281,15.43969 -3.7625,23.005c-3.44,6.19469 -8.96281,9.9975 -15.1575,9.9975c-8.25062,0 -13.33,-6.16781 -13.33,-15.8025c0,-16.16531 12.685,-21.00281 26.445,-22.0375zM153.4025,125.8825c-5.50937,0 -12.06687,1.3975 -16.8775,4.8375c-1.37062,1.03469 -1.29,2.365 0.43,2.365c5.50938,-0.68531 17.80469,-2.33812 20.21,0.7525c2.06938,2.75469 -2.33812,14.37813 -4.4075,19.8875c-0.68531,1.72 0.67188,2.10969 2.0425,1.075c9.28531,-7.91469 11.7175,-24.05312 9.9975,-26.1225c-1.03469,-1.72 -5.88562,-2.795 -11.395,-2.795zM7.525,129c-1.03469,0 -1.69312,1.76031 -0.3225,2.795c20.64,18.57063 47.86438,29.885 78.475,29.885c21.67469,0 46.73563,-6.83969 64.285,-19.565c2.75469,-2.06937 0.38969,-5.56312 -2.365,-4.1925c-19.60531,8.25063 -40.60812,12.3625 -59.8775,12.3625c-28.55469,0 -56.115,-7.91469 -78.475,-20.64c-0.68531,-0.68531 -1.37062,-0.645 -1.72,-0.645z"/></g></g></svg>