<svg xmlns="http://www.w3.org/2000/svg" xmlns:xlink="http://www.w3.org/1999/xlink" version="1.1" viewBox="0 0 172 172"><g fill="none" fill-rule="nonzero" stroke="none" stroke-width="1" stroke-linecap="butt" stroke-linejoin="miter" stroke-miterlimit="10" stroke-dasharray="" stroke-dashoffset="0" font-family="none" font-weight="none" font-size="none" text-anchor="none" style="mix-blend-mode: normal"><path d="M0,172v-172h172v172z" fill="none"/><g fill="#aaf0d1"><path d="M20.64,17.2c-7.59219,0 -13.76,6.16781 -13.76,13.76v10.32h144.48v-10.32c0,-7.59219 -6.16781,-13.76 -13.76,-13.76zM6.88,58.48v48.16c0,7.59219 6.16781,13.76 13.76,13.76h116.96c7.59219,0 13.76,-6.16781 13.76,-13.76v-48.16zM30.96,68.8h55.04v6.88h-55.04zM158.24,82.775v23.865c0,11.38156 -9.25844,20.64 -20.64,20.64h-116.96c-0.41656,0 -0.87344,-0.08062 -1.29,-0.1075l3.3325,18.3825c0.645,3.62813 2.58,6.82625 5.59,8.9225c2.33813,1.63938 5.0525,2.4725 7.8475,2.4725c0.80625,0 1.66625,-0.06719 2.4725,-0.215l115.1325,-20.5325c3.61469,-0.645 6.82625,-2.6875 8.9225,-5.6975c2.09625,-3.01 2.9025,-6.59781 2.2575,-10.2125z"/></g></g></svg>