<svg xmlns="http://www.w3.org/2000/svg" xmlns:xlink="http://www.w3.org/1999/xlink" version="1.1" viewBox="0 0 172 172"><g fill="none" fill-rule="nonzero" stroke="none" stroke-width="1" stroke-linecap="butt" stroke-linejoin="miter" stroke-miterlimit="10" stroke-dasharray="" stroke-dashoffset="0" font-family="none" font-weight="none" font-size="none" text-anchor="none" style="mix-blend-mode: normal"><path d="M0,172v-172h172v172z" fill="none"/><g fill="#aaf0d1"><path d="M85.82531,6.96734c-0.516,0 -1.02931,0.08331 -1.54531,0.25531l-75.68,35.43469c-1.032,0.688 -1.72,1.72134 -1.72,3.09734v5.84531c0,2.064 1.376,3.44 3.44,3.44h27.52c1.72,0 3.44,1.72 3.44,3.44c0,1.72 -1.72,3.44 -3.44,3.44h-3.44v72.24h103.2v-72.24h-3.44c-1.72,0 -3.44,-1.72 -3.44,-3.44c0,-1.72 1.72,-3.44 3.44,-3.44h27.52c2.064,0 3.44,-1.376 3.44,-3.44v-5.84531c0,-1.376 -0.68665,-2.40934 -2.06265,-3.09734l-75.68,-35.43469c-0.516,-0.172 -1.03603,-0.25531 -1.55203,-0.25531zM82.56,37.84h6.88v10.66265c13.072,1.72 17.2,13.76135 17.2,20.29735h-6.88c0,-1.376 -0.688,-13.76 -13.76,-13.76c-13.416,0 -13.76,9.976 -13.76,10.32c0,7.224 5.50669,9.288 14.79469,12.04c8.6,2.752 19.60531,5.848 19.60531,18.92c0,4.472 -1.37869,8.60269 -4.47469,11.35469c-3.784,3.784 -9.28531,5.15866 -12.72531,5.50266v10.66265h-6.88v-10.66265c-4.472,-0.688 -8.60269,-2.408 -11.35469,-5.16c-5.848,-6.192 -5.84531,-14.79335 -5.84531,-15.13735h6.88c0,0 -0.00135,6.192 3.78265,10.32c2.408,2.408 5.50535,3.44 9.97735,3.44c0,0 7.57069,0.00135 11.35469,-3.78265c1.72,-1.72 2.40531,-3.78535 2.40531,-6.53735c0,-7.224 -5.50669,-9.288 -14.79469,-12.04c-8.6,-2.752 -19.60531,-6.192 -19.60531,-18.92c0,-5.504 4.128,-15.48135 17.2,-16.85735zM20.64,61.92v72.24h6.88v-72.24zM144.48,61.92v72.24h6.88v-72.24zM17.2,141.04c-5.848,0 -10.32,4.472 -10.32,10.32v6.88h158.24v-6.88c0,-5.848 -4.472,-10.32 -10.32,-10.32z"/></g></g></svg>