<svg xmlns="http://www.w3.org/2000/svg" xmlns:xlink="http://www.w3.org/1999/xlink" version="1.1" viewBox="0 0 172 172"><g fill="none" fill-rule="nonzero" stroke="none" stroke-width="1" stroke-linecap="butt" stroke-linejoin="miter" stroke-miterlimit="10" stroke-dasharray="" stroke-dashoffset="0" font-family="none" font-weight="none" font-size="none" text-anchor="none" style="mix-blend-mode: normal"><path d="M0,172v-172h172v172z" fill="none"/><g fill="#aaf0d1"><path d="M65.36,0c-35.70344,0 -65.36,25.77313 -65.36,58.1575c0,15.66813 7.02781,29.87156 18.275,40.3125c-1.65281,4.87781 -5.16,8.76125 -8.9225,11.825c-2.09625,1.70656 -4.13875,3.17125 -5.805,4.6225c-0.83312,0.72563 -1.59906,1.37063 -2.2575,2.365c-0.65844,0.99438 -1.31687,2.71438 -0.86,4.4075l0.43,1.29l1.1825,0.7525c3.57438,2.02906 7.91469,2.365 12.47,2.0425c4.55531,-0.3225 9.47344,-1.46469 14.2975,-2.795c6.65156,-1.8275 12.34906,-4.00437 17.0925,-5.9125c9.46,21.87625 33.20406,37.0875 60.7375,37.0875c4.77031,0 9.31219,-0.7525 13.545,-1.3975c4.79719,2.17688 13.38375,5.76469 22.6825,8.2775c9.66156,2.62031 19.53813,4.56875 26.66,0.5375l1.29,-0.7525l0.3225,-1.29c0.45688,-1.67969 -0.1075,-3.29219 -0.7525,-4.3c-0.645,-1.00781 -1.33031,-1.73344 -2.15,-2.4725c-1.63937,-1.49156 -3.72219,-2.99656 -5.805,-4.73c-3.74906,-3.1175 -7.26969,-7.04125 -9.03,-11.825c11.20688,-10.44094 18.275,-24.57719 18.275,-40.205c0,-25.51781 -18.5975,-47.28656 -44.075,-55.04c-8.21031,-23.865 -33.15031,-40.9575 -62.2425,-40.9575zM65.36,6.88c32.41125,0 58.1575,23.08563 58.1575,51.2775c0,28.165 -26.06875,51.2775 -58.48,51.2775c-4.64937,0 -9.21812,-0.33594 -13.33,-1.29l-1.075,-0.3225l-1.075,0.43c-0.40312,0.17469 -1.24969,0.55094 -1.72,0.7525c-0.08062,0.02688 -0.24187,-0.02687 -0.3225,0c-0.80625,0.05375 -1.57219,0.40313 -2.15,0.9675c-4.86437,2.00219 -11.27406,4.50156 -18.3825,6.45c-4.55531,1.24969 -9.15094,2.19031 -13.0075,2.4725c-1.70656,0.12094 -2.41875,-0.38969 -3.7625,-0.5375c1.10188,-0.86 2.02906,-1.54531 3.44,-2.6875c4.58219,-3.73562 10.22594,-9.1375 12.04,-17.2l0.43,-2.0425l-1.505,-1.3975c-11.00531,-9.39281 -17.7375,-22.4675 -17.7375,-36.8725c0,-28.165 26.06875,-51.2775 58.48,-51.2775zM129.5375,48.805c0.645,0.24188 1.30344,0.48375 1.935,0.7525c-0.44344,0.57781 -0.7525,1.26313 -0.7525,2.0425c0,1.89469 1.54531,3.44 3.44,3.44c1.58563,0 2.82188,-1.12875 3.225,-2.58c7.6325,4.21938 14.00188,9.93031 18.705,16.6625c-0.41656,-0.17469 -0.81969,-0.3225 -1.29,-0.3225c-1.89469,0 -3.44,1.54531 -3.44,3.44c0,1.89469 1.54531,3.44 3.44,3.44c1.8275,0 3.31906,-1.42437 3.44,-3.225c1.58563,2.6875 2.95625,5.56313 3.9775,8.4925c-0.28219,0.49719 -0.5375,1.00781 -0.5375,1.6125c0,1.29 0.77938,2.31125 1.8275,2.9025c0.81969,3.41313 1.29,6.92031 1.29,10.535c0,1.29 -0.1075,2.59344 -0.215,3.87c-1.62594,0.26875 -2.9025,1.62594 -2.9025,3.3325c0,1.34375 0.81969,2.44563 1.935,3.01c-2.365,10.32 -8.21031,19.55156 -16.555,26.66l-1.6125,1.3975l0.5375,2.15c1.74688,6.79938 6.03344,11.63688 10.105,15.265c-0.41656,-0.17469 -0.81969,-0.3225 -1.29,-0.3225c-1.89469,0 -3.44,1.54531 -3.44,3.44c0,0.34938 0.12094,0.645 0.215,0.9675c-2.19031,-0.29562 -4.44781,-0.73906 -6.88,-1.3975c-7.36375,-1.98875 -14.53937,-4.82406 -19.35,-6.88c1.11531,-0.56437 1.935,-1.66625 1.935,-3.01c0,-1.89469 -1.54531,-3.44 -3.44,-3.44c-1.89469,0 -3.44,1.54531 -3.44,3.44c0,0.47031 0.14781,0.87344 0.3225,1.29l-0.5375,0.1075c-4.44781,0.68531 -9.05687,1.3975 -13.545,1.3975c-0.49719,0 -1.00781,0.01344 -1.505,0c0.88688,-0.61812 1.505,-1.62594 1.505,-2.795c0,-1.89469 -1.54531,-3.44 -3.44,-3.44c-1.89469,0 -3.44,1.54531 -3.44,3.44c0,0.95406 0.34938,1.85438 0.9675,2.4725c-5.17344,-0.45687 -10.15875,-1.45125 -14.835,-3.01c-0.26875,-1.62594 -1.62594,-2.9025 -3.3325,-2.9025c-0.81969,0 -1.55875,0.28219 -2.15,0.7525c-2.795,-1.23625 -5.44219,-2.59344 -7.955,-4.1925c1.80063,-0.12094 3.225,-1.6125 3.225,-3.44c0,-1.89469 -1.54531,-3.44 -3.44,-3.44c-1.89469,0 -3.44,1.54531 -3.44,3.44c0,0.38969 0.09406,0.72563 0.215,1.075c-3.49375,-2.59344 -6.63812,-5.59 -9.3525,-8.815c0.60469,0.52406 1.3975,0.86 2.2575,0.86c1.89469,0 3.44,-1.54531 3.44,-3.44c0,-1.89469 -1.54531,-3.44 -3.44,-3.44c-1.89469,0 -3.44,1.54531 -3.44,3.44c0,0.77938 0.30906,1.46469 0.7525,2.0425c-2.39187,-2.92937 -4.48812,-6.02 -6.1275,-9.3525c0.5375,-0.26875 0.9675,-0.68531 1.29,-1.1825c3.52063,0.55094 7.095,0.9675 10.6425,0.9675c1.6125,0 3.25188,-0.1075 4.8375,-0.215c0.61813,0.56438 1.46469,0.86 2.365,0.86c1.11531,0 2.05594,-0.56437 2.6875,-1.3975c5.24063,-0.71219 10.27969,-1.89469 15.05,-3.655c-0.28219,0.49719 -0.5375,1.00781 -0.5375,1.6125c0,1.89469 1.54531,3.44 3.44,3.44c1.89469,0 3.44,-1.54531 3.44,-3.44c0,-1.58562 -1.12875,-2.82187 -2.58,-3.225c2.75469,-1.20937 5.42875,-2.55312 7.955,-4.085c0.47031,0.24188 0.94063,0.43 1.505,0.43c1.89469,0 3.44,-1.54531 3.44,-3.44c0,-0.08062 -0.1075,-0.13437 -0.1075,-0.215c2.84875,-2.09625 5.53625,-4.39406 7.955,-6.88c1.1825,-0.36281 2.00219,-1.35719 2.2575,-2.58c2.16344,-2.48594 4.21938,-5.0525 5.9125,-7.8475c0.38969,0.14781 0.73906,0.3225 1.1825,0.3225c1.89469,0 3.44,-1.54531 3.44,-3.44c0,-1.20937 -0.67187,-2.17687 -1.6125,-2.795c3.01,-6.665 4.73,-13.94812 4.73,-21.6075c0,-3.18469 -0.30906,-6.31562 -0.86,-9.3525zM144.48,58.48c-1.89469,0 -3.44,1.54531 -3.44,3.44c0,1.89469 1.54531,3.44 3.44,3.44c1.89469,0 3.44,-1.54531 3.44,-3.44c0,-1.89469 -1.54531,-3.44 -3.44,-3.44zM134.16,68.8c-1.89469,0 -3.44,1.54531 -3.44,3.44c0,1.89469 1.54531,3.44 3.44,3.44c1.89469,0 3.44,-1.54531 3.44,-3.44c0,-1.89469 -1.54531,-3.44 -3.44,-3.44zM144.48,79.12c-1.89469,0 -3.44,1.54531 -3.44,3.44c0,1.89469 1.54531,3.44 3.44,3.44c1.89469,0 3.44,-1.54531 3.44,-3.44c0,-1.89469 -1.54531,-3.44 -3.44,-3.44zM134.16,89.44c-1.89469,0 -3.44,1.54531 -3.44,3.44c0,1.89469 1.54531,3.44 3.44,3.44c1.89469,0 3.44,-1.54531 3.44,-3.44c0,-1.89469 -1.54531,-3.44 -3.44,-3.44zM154.8,89.44c-1.89469,0 -3.44,1.54531 -3.44,3.44c0,1.89469 1.54531,3.44 3.44,3.44c1.89469,0 3.44,-1.54531 3.44,-3.44c0,-1.89469 -1.54531,-3.44 -3.44,-3.44zM123.84,99.76c-1.89469,0 -3.44,1.54531 -3.44,3.44c0,1.89469 1.54531,3.44 3.44,3.44c1.89469,0 3.44,-1.54531 3.44,-3.44c0,-1.89469 -1.54531,-3.44 -3.44,-3.44zM144.48,99.76c-1.89469,0 -3.44,1.54531 -3.44,3.44c0,1.89469 1.54531,3.44 3.44,3.44c1.89469,0 3.44,-1.54531 3.44,-3.44c0,-1.89469 -1.54531,-3.44 -3.44,-3.44zM113.52,110.08c-1.89469,0 -3.44,1.54531 -3.44,3.44c0,1.89469 1.54531,3.44 3.44,3.44c1.89469,0 3.44,-1.54531 3.44,-3.44c0,-1.89469 -1.54531,-3.44 -3.44,-3.44zM134.16,110.08c-1.89469,0 -3.44,1.54531 -3.44,3.44c0,1.89469 1.54531,3.44 3.44,3.44c1.89469,0 3.44,-1.54531 3.44,-3.44c0,-1.89469 -1.54531,-3.44 -3.44,-3.44zM154.8,110.08c-1.89469,0 -3.44,1.54531 -3.44,3.44c0,1.89469 1.54531,3.44 3.44,3.44c1.89469,0 3.44,-1.54531 3.44,-3.44c0,-1.89469 -1.54531,-3.44 -3.44,-3.44zM82.56,120.4c-1.89469,0 -3.44,1.54531 -3.44,3.44c0,1.89469 1.54531,3.44 3.44,3.44c1.89469,0 3.44,-1.54531 3.44,-3.44c0,-1.89469 -1.54531,-3.44 -3.44,-3.44zM103.2,120.4c-1.89469,0 -3.44,1.54531 -3.44,3.44c0,1.89469 1.54531,3.44 3.44,3.44c1.89469,0 3.44,-1.54531 3.44,-3.44c0,-1.89469 -1.54531,-3.44 -3.44,-3.44zM123.84,120.4c-1.89469,0 -3.44,1.54531 -3.44,3.44c0,1.89469 1.54531,3.44 3.44,3.44c1.89469,0 3.44,-1.54531 3.44,-3.44c0,-1.89469 -1.54531,-3.44 -3.44,-3.44zM144.48,120.4c-1.89469,0 -3.44,1.54531 -3.44,3.44c0,1.89469 1.54531,3.44 3.44,3.44c1.89469,0 3.44,-1.54531 3.44,-3.44c0,-1.89469 -1.54531,-3.44 -3.44,-3.44zM92.88,130.72c-1.89469,0 -3.44,1.54531 -3.44,3.44c0,1.89469 1.54531,3.44 3.44,3.44c1.89469,0 3.44,-1.54531 3.44,-3.44c0,-1.89469 -1.54531,-3.44 -3.44,-3.44zM113.52,130.72c-1.89469,0 -3.44,1.54531 -3.44,3.44c0,1.89469 1.54531,3.44 3.44,3.44c1.89469,0 3.44,-1.54531 3.44,-3.44c0,-1.89469 -1.54531,-3.44 -3.44,-3.44zM134.16,130.72c-1.89469,0 -3.44,1.54531 -3.44,3.44c0,1.89469 1.54531,3.44 3.44,3.44c1.89469,0 3.44,-1.54531 3.44,-3.44c0,-1.89469 -1.54531,-3.44 -3.44,-3.44zM144.48,141.04c-1.89469,0 -3.44,1.54531 -3.44,3.44c0,1.89469 1.54531,3.44 3.44,3.44c1.89469,0 3.44,-1.54531 3.44,-3.44c0,-1.89469 -1.54531,-3.44 -3.44,-3.44zM157.595,152.865c0.14781,0.12094 0.28219,0.30906 0.43,0.43c1.42438,1.1825 2.44563,1.90813 3.5475,2.795c-1.15562,0.1075 -2.41875,0.12094 -3.7625,0.1075c0.215,-0.44344 0.43,-0.87344 0.43,-1.3975c0,-0.72562 -0.25531,-1.38406 -0.645,-1.935z"/></g></g></svg>