<svg xmlns="http://www.w3.org/2000/svg" xmlns:xlink="http://www.w3.org/1999/xlink" version="1.1" viewBox="0 0 172 172"><g xmlns="http://www.w3.org/2000/svg" fill="none" fill-rule="nonzero" stroke="none" stroke-width="1" stroke-linecap="butt" stroke-linejoin="miter" stroke-miterlimit="10" stroke-dasharray="" stroke-dashoffset="0" font-family="none" font-weight="none" font-size="none" text-anchor="none" style="mix-blend-mode: normal"><path d="M0,172v-172h172v172z" fill="none"/><g fill="#aaf0d1"><path d="M86,6.88c-43.62952,0 -79.12,35.49392 -79.12,79.12c0,43.62608 35.49048,79.12 79.12,79.12c43.62952,0 79.12,-35.49392 79.12,-79.12c0,-43.62608 -35.49048,-79.12 -79.12,-79.12zM86,24.08c34.142,0 61.92,27.778 61.92,61.92c0,23.37136 -19.6424,37.84 -37.84,37.84c-7.40288,0 -11.32824,-3.47585 -13.31656,-6.38953c-0.97008,-1.42416 -1.6684,-3.00833 -2.15,-4.6561c-4.51672,5.82736 -11.2517,11.04563 -22.66906,11.04563c-14.00424,0 -23.78437,-10.64486 -23.78437,-25.88063c0,-30.39928 22.99677,-49.79937 38.82765,-49.79937c11.62376,0 19.62187,4.19433 23.93219,12.42969l2.86219,-6.87328c0.73272,-1.75096 2.75748,-2.58365 4.50156,-1.85437c1.7544,0.72928 2.58709,2.74716 1.85437,4.50156l-18.55719,44.53187c-1.31064,3.72896 -1.45872,9.2658 0.86672,12.67828c1.55488,2.28072 4.05146,3.38625 7.6325,3.38625c14.88832,0 30.96,-11.83704 30.96,-30.96c0,-30.34768 -24.69232,-55.04 -55.04,-55.04c-30.34768,0 -55.04,24.69232 -55.04,55.04c0,30.34768 24.69232,55.04 55.04,55.04c10.3372,0 20.41882,-2.88557 29.13922,-8.33797c1.61336,-1.00792 3.7288,-0.51133 4.73672,1.09515c1.00792,1.60992 0.51804,3.73552 -1.08844,4.74344c-9.8212,6.13696 -21.15686,9.37937 -32.7875,9.37937c-34.142,0 -61.92,-27.778 -61.92,-61.92c0,-34.142 27.778,-61.92 61.92,-61.92zM86.98765,55.04c-10.84288,0 -31.94765,15.14825 -31.94765,42.91937c0,9.45656 5.22901,19.00063 16.90437,19.00063c13.25088,0 18.00851,-8.70223 22.21219,-16.38031c0.0516,-0.09632 12.81265,-30.50984 12.81265,-30.50984c-2.11904,-10.36128 -8.29588,-15.02985 -19.98156,-15.02985z"/></g></g></svg>