<svg xmlns="http://www.w3.org/2000/svg" xmlns:xlink="http://www.w3.org/1999/xlink" version="1.1" viewBox="0 0 172 172"><g fill="none" fill-rule="nonzero" stroke="none" stroke-width="1" stroke-linecap="butt" stroke-linejoin="miter" stroke-miterlimit="10" stroke-dasharray="" stroke-dashoffset="0" font-family="none" font-weight="none" font-size="none" text-anchor="none" style="mix-blend-mode: normal"><path d="M0,172v-172h172v172z" fill="none"/><g fill="#aaf0d1"><path d="M44.72,10.32c-18.95899,0 -34.4,15.44101 -34.4,34.4v82.56c0,18.95899 15.44101,34.4 34.4,34.4h82.56c18.95899,0 34.4,-15.44101 34.4,-34.4v-82.56c0,-18.95899 -15.44101,-34.4 -34.4,-34.4zM48.16,17.2h20.64v60.50235c-3.19,-1.29642 -6.67099,-2.02235 -10.32,-2.02235c-3.64901,0 -7.13,0.72593 -10.32,2.02235zM75.68,17.2h17.3411c0.0341,0.66545 0.02621,1.34157 0.08062,2.00219l6.85985,-0.56437c-0.03853,-0.47355 -0.03287,-0.96085 -0.06047,-1.43781h17.0589c0,0.6364 0.01263,1.27189 0.04703,1.90141l6.87328,-0.36953c-0.02752,-0.50568 -0.04031,-1.01931 -0.04031,-1.53187h3.44c15.24149,0 27.52,12.27851 27.52,27.52v3.41985c-0.51582,-0.00002 -1.03228,0.00378 -1.54531,-0.02016l-0.34265,6.87328c0.62608,0.0344 1.25501,0.04703 1.88797,0.04703v17.0589c-0.47663,-0.0276 -0.96426,-0.02193 -1.43781,-0.06047l-0.55765,6.85985c0.65796,0.0543 1.33153,0.04596 1.99547,0.08062v44.77375c-0.02911,-0.00037 -0.05823,-0.00037 -0.08735,0c-1.89986,0 -3.44,1.54014 -3.44,3.44c0.0022,1.84599 1.46104,3.36117 3.30563,3.43328c-1.31084,10.87738 -8.90468,19.76908 -19.08125,22.9311c0.07478,-0.28287 0.11316,-0.57413 0.11422,-0.86672c0,-1.89986 -1.54014,-3.44 -3.44,-3.44c-1.89986,0 -3.44,1.54014 -3.44,3.44c0.00067,0.71837 0.22622,1.41851 0.645,2.00219c-0.69398,0.05201 -1.38856,0.1075 -2.09625,0.1075h-51.6v-30.15375c6.28306,-5.04881 10.32,-12.78068 10.32,-21.44625c0,-8.66557 -4.03694,-16.39744 -10.32,-21.44625v-6.36265c0.04251,0.00303 0.08507,0.00527 0.12765,0.00672c1.89986,0 3.44,-1.54014 3.44,-3.44c0,-1.89986 -1.54014,-3.44 -3.44,-3.44c-0.04259,0.00145 -0.08515,0.00369 -0.12765,0.00672zM41.28,17.43516v27.47969c-1.59307,0.3338 -2.73416,1.73843 -2.73453,3.36609c0.00037,1.62767 1.14146,3.0323 2.73453,3.3661v30.10672c-6.28306,5.04881 -10.32,12.78068 -10.32,21.44625c0,8.66557 4.03694,16.39744 10.32,21.44625v29.9186c-13.60377,-1.68704 -24.08,-13.21127 -24.08,-27.28485v-50.90125c0.6232,0.53983 1.41957,0.83787 2.24406,0.83985c1.89986,0 3.44,-1.54014 3.44,-3.44c0,-1.89986 -1.54014,-3.44 -3.44,-3.44c-0.82364,0.00011 -1.6199,0.29572 -2.24406,0.83312v-26.45172c0,-3.11018 0.53471,-6.08449 1.47813,-8.86875c0.25123,0.05772 0.50816,0.08702 0.76594,0.08735c0.91234,0 1.78732,-0.36243 2.43245,-1.00755c0.64513,-0.64513 1.00755,-1.5201 1.00755,-2.43245c-0.00098,-1.04643 -0.47821,-2.03552 -1.29672,-2.6875c4.30348,-6.67977 11.41191,-11.34902 19.69266,-12.37594zM101.41281,27.6275l-6.68516,1.63266c0.80152,3.2852 1.87749,6.54116 3.18469,9.675l6.3425,-2.64719c-1.1696,-2.80704 -2.12651,-5.72271 -2.84203,-8.66047zM125.64735,27.65438l-6.47688,2.32469c1.2556,3.49504 3.02511,6.78298 5.24735,9.77578l5.52281,-4.10516c-1.81976,-2.44928 -3.26816,-5.14011 -4.29328,-7.99531zM30.71813,36.9464c-1.89986,0 -3.44,1.54014 -3.44,3.44c0,1.89986 1.54014,3.44 3.44,3.44c1.89986,0 3.44,-1.54014 3.44,-3.44c0,-1.89986 -1.54014,-3.44 -3.44,-3.44zM136.35031,42.0661l-4.10516,5.52281c2.9928,2.22568 6.28418,3.98847 9.77578,5.24063l2.32469,-6.47688c-2.8552,-1.02512 -5.54603,-2.4668 -7.99531,-4.28656zM108.42047,44.39078l-5.85875,3.60797c1.7716,2.87584 3.78809,5.65047 5.99313,8.23047l5.2339,-4.46797c-1.978,-2.31168 -3.78244,-4.79391 -5.36828,-7.37047zM120.22531,58.20453l-4.47469,5.22719c2.57656,2.20504 5.34447,4.22137 8.22375,5.99985l3.61469,-5.85203c-2.58,-1.58928 -5.05895,-3.40044 -7.36375,-5.375zM135.68515,67.73172l-2.64719,6.34922c3.12696,1.31064 6.37948,2.38317 9.675,3.18469l1.62594,-6.68516c-2.94464,-0.71896 -5.85703,-1.67915 -8.65375,-2.84875zM87.075,76.40563c-1.89986,0 -3.44,1.54014 -3.44,3.44c0,1.89986 1.54014,3.44 3.44,3.44c1.89986,0 3.44,-1.54014 3.44,-3.44c0,-1.89986 -1.54014,-3.44 -3.44,-3.44zM30.71813,78.2264c-1.89986,0 -3.44,1.54014 -3.44,3.44c0,1.89986 1.54014,3.44 3.44,3.44c1.89986,0 3.44,-1.54014 3.44,-3.44c0,-1.89986 -1.54014,-3.44 -3.44,-3.44zM98.34906,84.30015c-1.89986,0 -3.44,1.54014 -3.44,3.44c0,1.89986 1.54014,3.44 3.44,3.44c1.89986,0 3.44,-1.54014 3.44,-3.44c0,-1.89986 -1.54014,-3.44 -3.44,-3.44zM58.48,89.44l10.32,27.52l-10.32,-6.88l-10.32,6.88zM109.62313,92.18797c-1.89986,0 -3.44,1.54014 -3.44,3.44c0,1.89986 1.54014,3.44 3.44,3.44c1.89986,0 3.44,-1.54014 3.44,-3.44c0,-1.89986 -1.54014,-3.44 -3.44,-3.44zM120.89719,100.0825c-1.89986,0 -3.44,1.54014 -3.44,3.44c0.00077,0.51661 0.11789,1.02641 0.34266,1.49156c-1.95296,1.08689 -4.95388,2.24406 -9.19797,2.24406c-7.8432,0 -10.87094,-3.88344 -10.87094,-3.88344c-3.096,4.5408 -4.85094,10.11253 -4.85094,16.09813c0,15.7208 12.3152,28.44719 27.52,28.44719c15.2048,0 27.52,-12.72639 27.52,-28.44719c0,-5.9856 -1.75494,-11.55733 -4.85094,-16.09813c0,0 -3.02774,3.88344 -10.87094,3.88344c-3.68811,0 -6.47462,-0.89458 -8.43203,-1.84094c0.37183,-0.56199 0.57041,-1.22082 0.57109,-1.89469c0,-1.89986 -1.54014,-3.44 -3.44,-3.44zM87.075,117.68563c-1.89986,0 -3.44,1.54014 -3.44,3.44c0,1.89986 1.54014,3.44 3.44,3.44c1.89986,0 3.44,-1.54014 3.44,-3.44c0,-1.89986 -1.54014,-3.44 -3.44,-3.44zM48.16,128.69765c3.19,1.29642 6.67099,2.02235 10.32,2.02235c3.64901,0 7.13,-0.72593 10.32,-2.02235v26.10235h-20.64z"/></g></g></svg>