<svg xmlns="http://www.w3.org/2000/svg" xmlns:xlink="http://www.w3.org/1999/xlink" version="1.1" viewBox="0 0 172 172"><g fill="none" fill-rule="nonzero" stroke="none" stroke-width="1" stroke-linecap="butt" stroke-linejoin="miter" stroke-miterlimit="10" stroke-dasharray="" stroke-dashoffset="0" font-family="none" font-weight="none" font-size="none" text-anchor="none" style="mix-blend-mode: normal"><path d="M0,172v-172h172v172z" fill="none"/><g fill="#aaf0d1"><path d="M99.76,10.32c-7.24281,0 -15.70844,5.68406 -16.985,31.0675c1.075,-0.02687 2.13656,-0.1075 3.225,-0.1075c1.20938,0 2.45906,0.06719 3.655,0.1075c0.81969,-15.25156 4.44781,-24.1875 10.105,-24.1875c2.41875,0 3.78938,1.31688 6.3425,4.085c2.98313,3.23844 6.88,7.44438 14.5125,9.03c-0.12094,-0.90031 -0.215,-1.86781 -0.215,-2.795c0,-1.45125 0.14781,-2.82187 0.43,-4.1925c-4.73,-1.29 -7.22937,-4.01781 -9.675,-6.665c-2.72781,-2.95625 -5.85875,-6.3425 -11.395,-6.3425zM141.04,13.76c-7.59219,0 -13.76,6.18125 -13.76,13.76c0,7.57875 6.16781,13.76 13.76,13.76c7.59219,0 13.76,-6.18125 13.76,-13.76c0,-7.57875 -6.16781,-13.76 -13.76,-13.76zM86,48.16c-41.73687,0 -75.68,21.25813 -75.68,51.6c0,30.34188 33.94313,55.04 75.68,55.04c41.73688,0 75.68,-24.69812 75.68,-55.04c0,-30.34187 -33.94312,-51.6 -75.68,-51.6zM25.8,51.385c-5.02562,0 -9.79594,2.05594 -13.4375,5.6975c-5.92594,5.92594 -7.14875,14.44531 -3.7625,21.5c5.20031,-10.06469 14.14969,-18.65125 25.6925,-25.0475c-2.62031,-1.33031 -5.52281,-2.15 -8.4925,-2.15zM146.2,51.385c-2.96969,0 -5.87219,0.81969 -8.4925,2.15c11.54281,6.39625 20.49219,14.98281 25.6925,25.0475c3.38625,-7.05469 2.16344,-15.57406 -3.7625,-21.5c-3.64156,-3.64156 -8.41187,-5.6975 -13.4375,-5.6975zM58.48,79.12c5.6975,0 10.32,4.6225 10.32,10.32c0,5.6975 -4.6225,10.32 -10.32,10.32c-5.6975,0 -10.32,-4.6225 -10.32,-10.32c0,-5.6975 4.6225,-10.32 10.32,-10.32zM113.52,79.12c5.6975,0 10.32,4.6225 10.32,10.32c0,5.6975 -4.6225,10.32 -10.32,10.32c-5.6975,0 -10.32,-4.6225 -10.32,-10.32c0,-5.6975 4.6225,-10.32 10.32,-10.32zM55.255,116.96c0.86,0.14781 1.70656,0.63156 2.2575,1.3975c0.36281,0.51063 8.42531,11.2875 28.4875,11.2875c20.33094,0 28.40688,-11.0725 28.4875,-11.18c1.08844,-1.54531 3.27875,-1.96187 4.8375,-0.86c1.54531,1.08844 1.84094,3.17125 0.7525,4.73c-0.40312,0.57781 -10.2125,14.19 -34.0775,14.19c-23.87844,0 -33.67437,-13.61219 -34.0775,-14.19c-1.08844,-1.55875 -0.80625,-3.64156 0.7525,-4.73c0.77938,-0.55094 1.72,-0.79281 2.58,-0.645z"/></g></g></svg>