<svg xmlns="http://www.w3.org/2000/svg" xmlns:xlink="http://www.w3.org/1999/xlink" version="1.1" viewBox="0 0 172 172"><g fill="none" fill-rule="nonzero" stroke="none" stroke-width="1" stroke-linecap="butt" stroke-linejoin="miter" stroke-miterlimit="10" stroke-dasharray="" stroke-dashoffset="0" font-family="none" font-weight="none" font-size="none" text-anchor="none" style="mix-blend-mode: normal"><path d="M0,172v-172h172v172z" fill="none"/><g fill="#aaf0d1"><path d="M51.6,10.32c-1.89469,0 -3.44,1.54531 -3.44,3.44c0,1.89469 1.54531,3.44 3.44,3.44c1.89469,0 3.44,-1.54531 3.44,-3.44c0,-1.89469 -1.54531,-3.44 -3.44,-3.44zM120.4,10.32c-1.89469,0 -3.44,1.54531 -3.44,3.44c0,1.89469 1.54531,3.44 3.44,3.44c1.89469,0 3.44,-1.54531 3.44,-3.44c0,-1.89469 -1.54531,-3.44 -3.44,-3.44zM51.6,20.64c-1.89469,0 -3.44,1.54531 -3.44,3.44c0,1.89469 1.54531,3.44 3.44,3.44c1.89469,0 3.44,-1.54531 3.44,-3.44c0,-1.89469 -1.54531,-3.44 -3.44,-3.44zM120.4,20.64c-1.89469,0 -3.44,1.54531 -3.44,3.44c0,1.89469 1.54531,3.44 3.44,3.44c1.89469,0 3.44,-1.54531 3.44,-3.44c0,-1.89469 -1.54531,-3.44 -3.44,-3.44zM157.7025,20.64c-1.37062,0.215 -2.4725,1.23625 -2.795,2.58c0,0 -2.01562,7.69969 -4.3,15.3725c-1.14219,3.82969 -2.31125,7.65938 -3.3325,10.4275c-0.18812,0.52406 -0.36281,0.73906 -0.5375,1.1825c-0.45687,-0.40312 -0.87344,-0.71219 -1.3975,-1.1825c-0.99437,-0.87344 -2.05594,-1.77375 -3.225,-2.58c-1.16906,-0.80625 -2.43219,-1.72 -4.515,-1.72c-2.76812,0 -3.84312,1.49156 -4.945,2.6875c-1.10187,1.19594 -2.16344,2.56656 -3.1175,3.87c-0.95406,1.30344 -1.80062,2.58 -2.4725,3.3325c-0.14781,0.17469 -0.20156,0.13438 -0.3225,0.215c-0.40312,-0.12094 -1.20937,-0.34937 -2.58,-1.29c-1.65281,-1.12875 -3.655,-2.80844 -5.59,-4.515c-1.935,-1.70656 -3.84312,-3.41312 -5.6975,-4.8375c-1.85437,-1.42437 -3.29219,-2.9025 -6.235,-2.9025c-2.33812,0 -2.86219,0.88688 -3.7625,1.6125c-0.90031,0.72563 -1.80062,1.66625 -2.795,2.6875c-1.98875,2.0425 -4.32687,4.6225 -6.5575,7.2025c-2.23062,2.58 -4.39406,5.14656 -6.1275,6.9875c-0.81969,0.87344 -1.55875,1.51844 -2.0425,1.935c-0.43,-0.14781 -1.935,-0.57781 -3.655,-1.29c-1.00781,-0.41656 -1.97531,-0.81969 -2.9025,-1.1825c-0.92719,-0.36281 -1.42437,-0.7525 -3.1175,-0.7525c-1.51844,0 -1.80062,0.28219 -2.365,0.5375c-0.56437,0.25531 -1.075,0.61813 -1.72,0.9675c-1.29,0.68531 -2.80844,1.505 -4.3,2.365c-1.49156,0.86 -3.03687,1.66625 -4.1925,2.2575c-0.5375,0.28219 -0.98094,0.63156 -1.29,0.7525c0.14781,0 0.1075,0.01344 -0.3225,-0.1075c-0.55094,-0.16125 -1.34375,-0.44344 -2.2575,-0.7525c-1.81406,-0.63156 -4.11187,-1.505 -6.45,-2.365c-2.33812,-0.86 -4.74344,-1.70656 -6.665,-2.365c-0.9675,-0.33594 -1.73344,-0.645 -2.4725,-0.86c-0.73906,-0.215 -1.08844,-0.43 -2.365,-0.43c-1.78719,0 -2.40531,0.69875 -3.01,1.1825c-0.60469,0.48375 -1.11531,1.04813 -1.6125,1.6125c-0.98094,1.11531 -2.01562,2.37844 -3.01,3.655c-0.99437,1.27656 -1.935,2.56656 -2.6875,3.3325c-0.28219,0.29563 -0.47031,0.34938 -0.645,0.43c-0.34937,-0.05375 -0.60469,-0.12094 -1.3975,-0.3225c-1.14219,-0.29562 -2.56656,-0.7525 -3.9775,-1.1825c-1.41094,-0.43 -2.80844,-0.83312 -4.085,-1.1825c-1.27656,-0.34937 -2.20375,-0.645 -3.655,-0.645c-1.62594,0 -2.23062,0.52406 -2.9025,0.9675c-0.67187,0.44344 -1.31687,0.95406 -1.935,1.505c-1.23625,1.11531 -2.45906,2.52625 -3.655,3.87c-2.39187,2.67406 -4.515,5.2675 -4.515,5.2675c-1.1825,1.47813 -0.95406,3.655 0.5375,4.8375c1.47813,1.1825 3.655,0.95406 4.8375,-0.5375c0,0 1.97531,-2.56656 4.1925,-5.0525c1.11531,-1.23625 2.31125,-2.40531 3.225,-3.225c0.3225,-0.29562 0.5375,-0.48375 0.7525,-0.645c0.24188,0.05375 0.51063,0.1075 1.29,0.3225c1.10188,0.29563 2.44563,0.7525 3.87,1.1825c1.42438,0.43 2.95625,0.83313 4.3,1.1825c1.34375,0.34938 2.35156,0.645 3.7625,0.645c2.91594,0 3.81625,-1.51844 4.945,-2.6875c1.12875,-1.16906 2.20375,-2.45906 3.225,-3.7625c1.02125,-1.30344 1.97531,-2.62031 2.6875,-3.44c0.1075,-0.12094 0.12094,-0.12094 0.215,-0.215c0.52406,0.16125 1.15563,0.37625 1.935,0.645c1.81406,0.63156 4.11188,1.505 6.45,2.365c2.33813,0.86 4.6225,1.70656 6.5575,2.365c0.9675,0.33594 1.84094,0.645 2.58,0.86c0.73906,0.215 1.11531,0.43 2.365,0.43c1.24969,0 1.73344,-0.28219 2.365,-0.5375c0.63156,-0.25531 1.24969,-0.51062 1.935,-0.86c1.37063,-0.69875 2.99656,-1.6125 4.515,-2.4725c1.51844,-0.86 2.95625,-1.76031 4.085,-2.365c0.47031,-0.25531 0.79281,-0.40312 1.075,-0.5375c0.02688,0.02688 -0.06719,0.02688 0.43,0.215c0.73906,0.28219 1.73344,0.73906 2.795,1.1825c2.12313,0.88688 4.05813,1.935 6.88,1.935c1.30344,0 1.85438,-0.44344 2.365,-0.7525c0.51063,-0.30906 0.98094,-0.60469 1.3975,-0.9675c0.84656,-0.71219 1.62594,-1.55875 2.58,-2.58c1.90813,-2.02906 4.21938,-4.6225 6.45,-7.2025c2.23063,-2.58 4.36719,-5.16 6.1275,-6.9875c0.81969,-0.84656 1.54531,-1.51844 2.0425,-1.935c-0.17469,0.08063 0.44344,0.20156 1.72,1.1825c1.505,1.15563 3.38625,2.88906 5.375,4.6225c1.16906,1.02125 2.41875,2.0425 3.655,3.01c0.34938,0.44344 0.87344,0.73906 1.3975,0.9675c0.41656,0.30906 0.76594,0.68531 1.1825,0.9675c2.10969,1.45125 4.17906,2.795 6.9875,2.795c2.88906,0 3.77594,-1.6125 4.8375,-2.795c1.06156,-1.1825 2.06938,-2.48594 3.01,-3.7625c0.94063,-1.27656 1.89469,-2.48594 2.58,-3.225c0.16125,-0.17469 0.20156,-0.13437 0.3225,-0.215c0.12094,0.06719 -0.04031,0 0.1075,0.1075c0.69875,0.48375 1.62594,1.30344 2.58,2.15c0.95406,0.84656 1.98875,1.69313 3.01,2.4725c1.02125,0.77938 1.84094,1.8275 4.1925,1.8275c2.16344,0 2.795,-1.075 3.225,-1.6125c0.43,-0.5375 0.59125,-1.075 0.86,-1.6125c0.55094,-1.075 1.15563,-2.35156 1.72,-3.87c1.11531,-3.03687 2.27094,-6.94719 3.44,-10.8575c2.32469,-7.80719 4.4075,-15.5875 4.4075,-15.5875c0.30906,-1.12875 0.02688,-2.33812 -0.76594,-3.21156c-0.77938,-0.86 -1.94844,-1.27656 -3.10406,-1.08844zM51.6,30.96c-1.89469,0 -3.44,1.54531 -3.44,3.44c0,1.89469 1.54531,3.44 3.44,3.44c1.89469,0 3.44,-1.54531 3.44,-3.44c0,-1.89469 -1.54531,-3.44 -3.44,-3.44zM120.4,30.96c-1.89469,0 -3.44,1.54531 -3.44,3.44c0,1.89469 1.54531,3.44 3.44,3.44c1.89469,0 3.44,-1.54531 3.44,-3.44c0,-1.89469 -1.54531,-3.44 -3.44,-3.44zM51.6,41.28c-1.89469,0 -3.44,1.54531 -3.44,3.44c0,1.89469 1.54531,3.44 3.44,3.44c1.89469,0 3.44,-1.54531 3.44,-3.44c0,-1.89469 -1.54531,-3.44 -3.44,-3.44zM120.4,41.28c-1.89469,0 -3.44,1.54531 -3.44,3.44c0,1.89469 1.54531,3.44 3.44,3.44c1.89469,0 3.44,-1.54531 3.44,-3.44c0,-1.89469 -1.54531,-3.44 -3.44,-3.44zM51.6,51.6c-1.89469,0 -3.44,1.54531 -3.44,3.44c0,1.89469 1.54531,3.44 3.44,3.44c1.89469,0 3.44,-1.54531 3.44,-3.44c0,-1.89469 -1.54531,-3.44 -3.44,-3.44zM120.4,61.92c-1.89469,0 -3.44,1.54531 -3.44,3.44c0,1.89469 1.54531,3.44 3.44,3.44c1.89469,0 3.44,-1.54531 3.44,-3.44c0,-1.89469 -1.54531,-3.44 -3.44,-3.44zM51.6,72.24c-1.89469,0 -3.44,1.54531 -3.44,3.44c0,1.89469 1.54531,3.44 3.44,3.44c1.89469,0 3.44,-1.54531 3.44,-3.44c0,-1.89469 -1.54531,-3.44 -3.44,-3.44zM120.4,72.24c-1.89469,0 -3.44,1.54531 -3.44,3.44c0,1.89469 1.54531,3.44 3.44,3.44c1.89469,0 3.44,-1.54531 3.44,-3.44c0,-1.89469 -1.54531,-3.44 -3.44,-3.44zM51.6,82.56c-1.89469,0 -3.44,1.54531 -3.44,3.44c0,1.89469 1.54531,3.44 3.44,3.44c1.89469,0 3.44,-1.54531 3.44,-3.44c0,-1.89469 -1.54531,-3.44 -3.44,-3.44zM120.4,82.56c-1.89469,0 -3.44,1.54531 -3.44,3.44c0,1.89469 1.54531,3.44 3.44,3.44c1.89469,0 3.44,-1.54531 3.44,-3.44c0,-1.89469 -1.54531,-3.44 -3.44,-3.44zM51.6,92.88c-1.89469,0 -3.44,1.54531 -3.44,3.44c0,1.89469 1.54531,3.44 3.44,3.44c1.89469,0 3.44,-1.54531 3.44,-3.44c0,-1.89469 -1.54531,-3.44 -3.44,-3.44zM120.4,92.88c-1.89469,0 -3.44,1.54531 -3.44,3.44c0,1.89469 1.54531,3.44 3.44,3.44c1.89469,0 3.44,-1.54531 3.44,-3.44c0,-1.89469 -1.54531,-3.44 -3.44,-3.44zM51.6,103.2c-1.89469,0 -3.44,1.54531 -3.44,3.44c0,1.89469 1.54531,3.44 3.44,3.44c1.89469,0 3.44,-1.54531 3.44,-3.44c0,-1.89469 -1.54531,-3.44 -3.44,-3.44zM120.4,103.2c-1.89469,0 -3.44,1.54531 -3.44,3.44c0,1.89469 1.54531,3.44 3.44,3.44c1.89469,0 3.44,-1.54531 3.44,-3.44c0,-1.89469 -1.54531,-3.44 -3.44,-3.44zM51.6,113.52c-1.89469,0 -3.44,1.54531 -3.44,3.44c0,1.89469 1.54531,3.44 3.44,3.44c1.89469,0 3.44,-1.54531 3.44,-3.44c0,-1.89469 -1.54531,-3.44 -3.44,-3.44zM120.4,113.52c-1.89469,0 -3.44,1.54531 -3.44,3.44c0,1.89469 1.54531,3.44 3.44,3.44c1.89469,0 3.44,-1.54531 3.44,-3.44c0,-1.89469 -1.54531,-3.44 -3.44,-3.44zM51.6,123.84c-1.89469,0 -3.44,1.54531 -3.44,3.44c0,1.89469 1.54531,3.44 3.44,3.44c1.89469,0 3.44,-1.54531 3.44,-3.44c0,-1.89469 -1.54531,-3.44 -3.44,-3.44zM120.4,123.84c-1.89469,0 -3.44,1.54531 -3.44,3.44c0,1.89469 1.54531,3.44 3.44,3.44c1.89469,0 3.44,-1.54531 3.44,-3.44c0,-1.89469 -1.54531,-3.44 -3.44,-3.44zM51.6,134.16c-1.89469,0 -3.44,1.54531 -3.44,3.44c0,1.89469 1.54531,3.44 3.44,3.44c1.89469,0 3.44,-1.54531 3.44,-3.44c0,-1.89469 -1.54531,-3.44 -3.44,-3.44zM120.4,134.16c-1.89469,0 -3.44,1.54531 -3.44,3.44c0,1.89469 1.54531,3.44 3.44,3.44c1.89469,0 3.44,-1.54531 3.44,-3.44c0,-1.89469 -1.54531,-3.44 -3.44,-3.44zM51.6,144.48c-1.89469,0 -3.44,1.54531 -3.44,3.44c0,1.89469 1.54531,3.44 3.44,3.44c1.89469,0 3.44,-1.54531 3.44,-3.44c0,-1.89469 -1.54531,-3.44 -3.44,-3.44zM120.4,144.48c-1.89469,0 -3.44,1.54531 -3.44,3.44c0,1.89469 1.54531,3.44 3.44,3.44c1.89469,0 3.44,-1.54531 3.44,-3.44c0,-1.89469 -1.54531,-3.44 -3.44,-3.44zM51.6,154.8c-1.89469,0 -3.44,1.54531 -3.44,3.44h-37.84c-0.1075,0 -0.215,0 -0.3225,0c-0.1075,0 -0.215,0 -0.3225,0c-1.89469,0.17469 -3.29219,1.86781 -3.1175,3.7625c0.17469,1.89469 1.86781,3.29219 3.7625,3.1175h151.36c1.23625,0.01344 2.39188,-0.63156 3.02344,-1.70656c0.61813,-1.075 0.61813,-2.39187 0,-3.46687c-0.63156,-1.075 -1.78719,-1.72 -3.02344,-1.70656h-37.84c0,-1.89469 -1.54531,-3.44 -3.44,-3.44c-1.89469,0 -3.44,1.54531 -3.44,3.44h-61.92c0,-1.89469 -1.54531,-3.44 -3.44,-3.44z"/></g></g></svg>