<svg xmlns="http://www.w3.org/2000/svg" xmlns:xlink="http://www.w3.org/1999/xlink" version="1.1" viewBox="0 0 172 172"><g fill="none" fill-rule="nonzero" stroke="none" stroke-width="1" stroke-linecap="butt" stroke-linejoin="miter" stroke-miterlimit="10" stroke-dasharray="" stroke-dashoffset="0" font-family="none" font-weight="none" font-size="none" text-anchor="none" style="mix-blend-mode: normal"><path d="M0,172v-172h172v172z" fill="none"/><g fill="#aaf0d1"><path d="M86,6.60453c-43.80801,0 -79.39547,35.58746 -79.39547,79.39547c0,43.80801 35.58746,79.39547 79.39547,79.39547c43.80801,0 79.39547,-35.58746 79.39547,-79.39547c0,-43.80801 -35.58746,-79.39547 -79.39547,-79.39547zM86,13.48453c40.08978,0 72.51547,32.42568 72.51547,72.51547c0,40.08978 -32.42568,72.51547 -72.51547,72.51547c-40.08978,0 -72.51547,-32.42568 -72.51547,-72.51547c0,-1.25281 0.03149,-2.49854 0.09406,-3.73563c1.93985,-38.34951 33.58443,-68.77984 72.42141,-68.77984zM86,20.64c-36.05659,0 -65.36,29.30341 -65.36,65.36c0,36.05659 29.30341,65.36 65.36,65.36c36.05659,0 65.36,-29.30341 65.36,-65.36c0,-36.05659 -29.30341,-65.36 -65.36,-65.36zM86,27.52c14.8869,0 28.41888,5.58666 38.7336,14.72078l-50.82063,30.48969c-0.48543,0.29091 -0.89159,0.69707 -1.1825,1.1825l-30.48969,50.82063c-9.13413,-10.31471 -14.72078,-23.84669 -14.72078,-38.7336c0,-32.33836 26.14164,-58.48 58.48,-58.48zM85.94625,30.91297c-1.89722,0.02966 -3.41223,1.58976 -3.38625,3.48703v3.44c-0.01754,1.24059 0.63425,2.39452 1.7058,3.01993c1.07155,0.62541 2.39684,0.62541 3.46839,0c1.07155,-0.62541 1.72335,-1.77935 1.7058,-3.01993v-3.44c0.01273,-0.92983 -0.35149,-1.82522 -1.00967,-2.48214c-0.65819,-0.65692 -1.55427,-1.01942 -2.48408,-1.00489zM105.69265,34.84344c-1.38299,0.0295 -2.61381,0.88446 -3.12422,2.17016l-1.31687,3.17797c-0.49093,1.13934 -0.33043,2.45475 0.42006,3.44261c0.75049,0.98786 1.97471,1.49515 3.20396,1.32765c1.22925,-0.1675 2.2731,-0.98386 2.73191,-2.13651l1.31687,-3.17797c0.46448,-1.07521 0.35005,-2.31286 -0.30372,-3.28467c-0.65376,-0.97181 -1.75702,-1.54425 -2.928,-1.51924zM66.16625,34.85687c-1.15196,0.01148 -2.22171,0.59877 -2.84978,1.56452c-0.62807,0.96574 -0.73109,2.18175 -0.27444,3.23939l1.31687,3.17797c0.47149,1.13565 1.51311,1.93343 2.73238,2.09275c1.21927,0.15932 2.4309,-0.34403 3.17837,-1.3204c0.74747,-0.97637 0.91718,-2.27737 0.44519,-3.41282l-1.3236,-3.17797c-0.52632,-1.31694 -1.80684,-2.17595 -3.225,-2.16344zM49.44328,46.07047c-1.40161,0.00028 -2.66293,0.85083 -3.18856,2.15014c-0.52563,1.29932 -0.21049,2.78761 0.79668,3.76236l2.43891,2.42547c0.86406,0.89741 2.14576,1.25759 3.3508,0.94165c1.20504,-0.31594 2.14514,-1.25864 2.45776,-2.46455c0.31261,-1.20591 -0.05111,-2.48661 -0.9509,-3.34819l-2.4389,-2.42547c-0.64765,-0.66575 -1.53698,-1.04135 -2.46578,-1.0414zM129.75922,47.2664c9.13413,10.31471 14.72078,23.84669 14.72078,38.7336c0,32.33836 -26.14164,58.48 -58.48,58.48c-14.8869,0 -28.41888,-5.58666 -38.7336,-14.72078l50.82063,-30.48969c0.48543,-0.29091 0.89159,-0.69707 1.1825,-1.1825zM117.25563,54.74437l-23.44172,39.06953l-39.06953,23.44172l23.44172,-39.06953zM133.52844,62.65906c-0.42601,0.01665 -0.84521,0.11234 -1.23625,0.28219l-3.17797,1.3236c-1.13453,0.47384 -1.93002,1.51705 -2.08669,2.73654c-0.15668,1.21949 0.34927,2.4299 1.32718,3.17514c0.97791,0.74524 2.27916,0.91204 3.41342,0.43754l3.17125,-1.3236c1.55358,-0.62243 2.43384,-2.27255 2.08555,-3.90954c-0.34829,-1.63698 -1.82408,-2.78582 -3.49648,-2.72187zM38.3036,62.80015c-1.65627,-0.01353 -3.08707,1.15505 -3.40462,2.78064c-0.31755,1.6256 0.5683,3.24671 2.1079,3.85748l3.17797,1.31687c1.13934,0.49093 2.45475,0.33043 3.44261,-0.42006c0.98786,-0.75049 1.49515,-1.97471 1.32765,-3.20396c-0.1675,-1.22925 -0.98386,-2.2731 -2.13651,-2.73191l-3.17797,-1.31687c-0.42233,-0.18252 -0.87697,-0.27847 -1.33703,-0.28219zM86,79.12c-3.79972,0 -6.88,3.08028 -6.88,6.88c0,3.79972 3.08028,6.88 6.88,6.88c3.79972,0 6.88,-3.08028 6.88,-6.88c0,-3.79972 -3.08028,-6.88 -6.88,-6.88zM34.4,82.56c-1.24059,-0.01754 -2.39452,0.63425 -3.01993,1.7058c-0.62541,1.07155 -0.62541,2.39684 0,3.46839c0.62541,1.07155 1.77935,1.72335 3.01993,1.7058h3.44c1.24059,0.01754 2.39452,-0.63425 3.01993,-1.7058c0.62541,-1.07155 0.62541,-2.39684 0,-3.46839c-0.62541,-1.07155 -1.77935,-1.72335 -3.01993,-1.7058zM134.16,82.56c-1.24059,-0.01754 -2.39452,0.63425 -3.01993,1.7058c-0.62541,1.07155 -0.62541,2.39684 0,3.46839c0.62541,1.07155 1.77935,1.72335 3.01993,1.7058h3.44c1.24059,0.01754 2.39452,-0.63425 3.01993,-1.7058c0.62541,-1.07155 0.62541,-2.39684 0,-3.46839c-0.62541,-1.07155 -1.77935,-1.72335 -3.01993,-1.7058zM130.47813,100.96265c-1.65627,-0.01353 -3.08707,1.15505 -3.40462,2.78064c-0.31755,1.6256 0.5683,3.24671 2.1079,3.85748l3.17797,1.31687c1.13933,0.49091 2.45473,0.3304 3.44258,-0.42009c0.98785,-0.75049 1.49513,-1.9747 1.32764,-3.20394c-0.1675,-1.22924 -0.98383,-2.27309 -2.13646,-2.73191l-3.17797,-1.31687c-0.42232,-0.18252 -0.87697,-0.27847 -1.33703,-0.28219zM41.46813,101.10375c-0.42601,0.01665 -0.84521,0.11234 -1.23625,0.28219l-3.17125,1.3236c-1.16185,0.45418 -1.98682,1.5017 -2.15601,2.73764c-0.16918,1.23594 0.34393,2.46663 1.34099,3.21633c0.99706,0.7497 2.32183,0.90093 3.4622,0.39524l3.17797,-1.3236c1.55516,-0.62265 2.43579,-2.27492 2.08558,-3.91309c-0.35021,-1.63816 -1.82942,-2.78596 -3.50324,-2.71832zM120.0439,116.55015c-1.40161,0.00029 -2.66292,0.85083 -3.18856,2.15015c-0.52563,1.29932 -0.21048,2.78761 0.79668,3.76235l2.4389,2.42547c0.86408,0.89736 2.14575,1.2575 3.35076,0.94156c1.20501,-0.31595 2.14509,-1.25863 2.45771,-2.46451c0.31262,-1.20588 -0.05107,-2.48655 -0.95081,-3.34815l-2.43891,-2.42547c-0.64765,-0.66575 -1.53698,-1.04135 -2.46578,-1.04141zM104.4161,126.9911c-1.15496,0.00829 -2.2287,0.59558 -2.85873,1.56361c-0.63003,0.96803 -0.73227,2.1876 -0.27221,3.24702l1.3236,3.17797c0.44173,1.17806 1.4913,2.02103 2.73691,2.19818c1.24561,0.17716 2.48859,-0.33976 3.24125,-1.34795c0.75266,-1.00819 0.89496,-2.34682 0.37106,-3.4907l-1.31687,-3.17797c-0.52418,-1.31958 -1.80517,-2.18158 -3.225,-2.17015zM67.51,127.01125c-1.37888,0.03105 -2.60594,0.88259 -3.1175,2.16344l-1.31687,3.17797c-0.49093,1.13934 -0.33043,2.45475 0.42006,3.44261c0.75049,0.98786 1.97471,1.49515 3.20396,1.32765c1.22925,-0.1675 2.2731,-0.98386 2.73191,-2.13651l1.31687,-3.17797c0.46199,-1.07563 0.34532,-2.31237 -0.30967,-3.28263c-0.65499,-0.97026 -1.75841,-1.54087 -2.92876,-1.51456zM85.94625,130.67297c-1.89722,0.02966 -3.41223,1.58976 -3.38625,3.48703v3.44c-0.01754,1.24059 0.63425,2.39452 1.7058,3.01993c1.07155,0.62541 2.39684,0.62541 3.46839,0c1.07155,-0.62541 1.72335,-1.77935 1.7058,-3.01993v-3.44c0.01273,-0.92983 -0.35149,-1.82522 -1.00967,-2.48214c-0.65819,-0.65692 -1.55427,-1.01942 -2.48408,-1.00489z"/></g></g></svg>