<svg xmlns="http://www.w3.org/2000/svg" xmlns:xlink="http://www.w3.org/1999/xlink" version="1.1" viewBox="0 0 172 172"><g fill="none" fill-rule="nonzero" stroke="none" stroke-width="1" stroke-linecap="butt" stroke-linejoin="miter" stroke-miterlimit="10" stroke-dasharray="" stroke-dashoffset="0" font-family="none" font-weight="none" font-size="none" text-anchor="none" style="mix-blend-mode: normal"><path d="M0,172v-172h172v172z" fill="none"/><g fill="#aaf0d1"><path d="M96.18563,10.37375c-2.05594,-0.16125 -4.15219,0.09406 -6.18125,0.77938c-8.57313,2.76812 -12.75219,12.06687 -10.05125,20.25031l3.84312,11.69063l-18.18094,6.63812l-3.68188,-11.18c-2.02906,-6.49031 -7.74,-10.52156 -13.90781,-10.97844c-2.0425,-0.14781 -4.13875,0.1075 -6.15438,0.77938c-8.6,2.76812 -12.77906,12.06687 -10.07812,20.27719l3.95062,12.01312l-11.47562,4.1925c-8.10281,2.86219 -12.37594,12.02656 -9.75563,20.33094c2.16344,6.85312 8.29094,11.15312 14.68719,11.15312c1.98875,0 3.68188,-0.48375 4.93156,-0.92719h0.02688l11.63687,-4.25969l5.59,16.97156l-13.28969,4.86438c-8.42531,2.80844 -12.3625,12.1475 -9.7825,20.34437c2.12312,6.73219 8.03562,11.16656 14.66031,11.16656c1.84094,0 3.29219,-0.48375 4.67625,-0.84656l0.14781,-0.02687l13.6525,-4.93156l3.96406,11.98625v0.04031c2.29781,6.47687 8.385,10.97844 15.05,10.97844c2.00219,0 3.73563,-0.47031 5.02563,-0.90031c8.26406,-2.78156 12.77906,-11.94594 10.03781,-20.26375l-4.16562,-12.64469l18.19437,-6.57094l4.01781,12.16094v0.02688c2.29781,6.47687 8.385,10.97844 15.05,10.97844c2.00219,0 3.73563,-0.47031 5.02563,-0.90031c8.26406,-2.795 12.77906,-11.95937 10.03781,-20.26375l-4.21937,-12.80594l8.55969,-3.09063l0.05375,-0.02687c7.91469,-3.25188 12.20125,-12.38938 9.19125,-20.72063c-2.00219,-6.18125 -7.44437,-10.38719 -13.45094,-10.92469c-2.01563,-0.17469 -4.085,0.06719 -6.11406,0.77938l-0.01344,0.01344l-8.41188,3.07719l-5.56312,-16.93125l10.17219,-3.70875c8.42531,-2.80844 12.37594,-12.12062 9.79594,-20.3175c-1.935,-6.47687 -7.51156,-10.58875 -13.545,-11.04562c-2.01562,-0.16125 -4.07156,0.08062 -6.07375,0.77937l-0.01344,0.01344l-10.38719,3.78938l-3.57438,-10.84406c-2.02906,-6.49031 -7.74,-10.52156 -13.90781,-10.965zM95.72875,17.17313c3.48031,0.20156 6.61125,2.39187 7.79375,6.20812l0.01344,0.02688l3.66844,11.13969l-16.93125,6.18125l-3.78938,-11.47563c-1.58562,-4.82406 0.67188,-9.98406 5.64375,-11.56969h0.04031l0.01344,-0.01344c1.1825,-0.40313 2.37844,-0.55094 3.5475,-0.49719zM129.69875,34.38656c3.27875,0.17469 6.24844,2.35156 7.4175,6.24844v0.05375c1.55875,4.91813 -0.69875,10.17219 -5.40187,11.74438l-0.04031,0.01344l-10.11844,3.69531l-5.73781,-17.415l10.535,-3.84313c1.11531,-0.40312 2.24406,-0.55094 3.34594,-0.49719zM47.56875,34.4c3.48031,0.18813 6.61125,2.39188 7.79375,6.20813l0.01344,0.02687l3.77594,11.46219l-16.93125,6.18125l-3.89688,-11.81156c-1.58562,-4.82406 0.67188,-9.97063 5.64375,-11.56969h0.04031l0.01344,-0.01344c1.1825,-0.40312 2.37844,-0.55094 3.5475,-0.48375zM109.35438,41.07844l5.73781,17.415l-16.93125,6.19469l-5.73781,-17.42844zM85.95969,49.62469l5.73781,17.415l-18.18094,6.65156l-5.73781,-17.415zM61.31531,58.64125l5.72437,17.415l-16.93125,6.18125l-5.72437,-17.415zM117.24219,65.0375l5.57656,16.93125l-16.93125,6.18125l-5.57656,-16.93125zM37.90719,67.1875l5.73781,17.415l-11.79812,4.3c-0.80625,0.29563 -1.86781,0.5375 -2.64719,0.5375c-3.27875,0 -6.82625,-2.2575 -8.11625,-6.3425c-1.51844,-4.82406 1.12875,-10.23937 5.46906,-11.77125zM93.8475,73.58375l5.57656,16.93125l-18.18094,6.665l-5.57656,-16.94469zM69.18969,82.58688l5.59,16.95812l-16.93125,6.19469l-5.59,-16.95812zM143.2975,82.58688c3.26531,0.29562 6.31563,2.60687 7.45781,6.22156l0.01344,0.09406l0.02688,0.06719c1.76031,4.79719 -0.83313,10.18563 -5.30781,12.04h-0.01344l-8.15656,2.94281l-5.88563,-17.81812l8.57313,-3.13094c1.075,-0.37625 2.19031,-0.51062 3.29219,-0.41656zM124.96875,88.49938l5.87219,17.80469l-16.95812,6.1275l-5.84531,-17.7375zM101.5875,97.05906l5.81844,17.69719l-18.19437,6.57094l-5.805,-17.60312zM76.92969,106.08906l5.79156,17.58969l-16.94469,6.11406l-5.77813,-17.50906zM132.99094,112.83469l4.16563,12.61781c1.54531,4.71656 -1.10188,10.03781 -5.6975,11.59656c-0.86,0.28219 -1.98875,0.5375 -2.83531,0.5375c-3.34594,0 -7.25625,-2.72781 -8.54625,-6.38281l-4.04469,-12.255zM53.535,114.64875l5.76469,17.48219l-13.47781,4.86438c-1.34375,0.34937 -2.62031,0.60469 -2.84875,0.60469c-3.72219,0 -6.7725,-2.12312 -8.10281,-6.3425h0.01344c-1.55875,-4.93156 0.69875,-10.19906 5.38844,-11.75781l0.04031,-0.01344zM84.88469,130.20938l4.11188,12.47c1.54531,4.70312 -1.10188,10.02437 -5.6975,11.58312c-0.86,0.28219 -1.98875,0.5375 -2.83531,0.5375c-3.34594,0 -7.25625,-2.74125 -8.54625,-6.38281l-0.01344,-0.01344l-3.9775,-12.08031z"/></g></g></svg>