<svg xmlns="http://www.w3.org/2000/svg" xmlns:xlink="http://www.w3.org/1999/xlink" version="1.1" viewBox="0 0 172 172"><g fill="none" fill-rule="nonzero" stroke="none" stroke-width="1" stroke-linecap="butt" stroke-linejoin="miter" stroke-miterlimit="10" stroke-dasharray="" stroke-dashoffset="0" font-family="none" font-weight="none" font-size="none" text-anchor="none" style="mix-blend-mode: normal"><path d="M0,172v-172h172v172z" fill="none"/><g fill="#aaf0d1"><path d="M141.04,13.76h-110.08c-9.48408,0 -17.2,7.71592 -17.2,17.2v110.08c0,9.48408 7.71592,17.2 17.2,17.2h110.08c9.48408,0 17.2,-7.71592 17.2,-17.2v-110.08c0,-9.48408 -7.71592,-17.2 -17.2,-17.2zM127.30064,76.79112c-0.78088,0.07224 -1.57208,0.1204 -2.3736,0.1204c-9.02312,0 -16.95232,-4.64056 -21.56536,-11.65472c0,18.40056 0,39.3364 0,39.68728c0,16.19896 -13.13392,29.33288 -29.33288,29.33288c-16.19896,0 -29.33288,-13.13392 -29.33288,-29.33288c0,-16.19896 13.13392,-29.33288 29.33288,-29.33288c0.61232,0 1.21088,0.05504 1.81288,0.09288v14.45488c-0.602,-0.07224 -1.19368,-0.18232 -1.81288,-0.18232c-8.26976,0 -14.97088,6.70112 -14.97088,14.97088c0,8.26976 6.70112,14.97088 14.97088,14.97088c8.26976,0 15.57288,-6.51536 15.57288,-14.78512c0,-0.3268 0.14448,-67.40336 0.14448,-67.40336h13.81504c1.30032,12.35304 11.27288,22.102 23.73944,22.9964z"/></g></g></svg>