<svg xmlns="http://www.w3.org/2000/svg" xmlns:xlink="http://www.w3.org/1999/xlink" version="1.1" viewBox="0 0 172 172"><g fill="none" fill-rule="nonzero" stroke="none" stroke-width="1" stroke-linecap="butt" stroke-linejoin="miter" stroke-miterlimit="10" stroke-dasharray="" stroke-dashoffset="0" font-family="none" font-weight="none" font-size="none" text-anchor="none" style="mix-blend-mode: normal"><path d="M0,172v-172h172v172z" fill="none"/><g fill="#aaf0d1"><path d="M141.04,13.76h-110.08c-9.48408,0 -17.2,7.71592 -17.2,17.2v110.08c0,9.48408 7.71592,17.2 17.2,17.2h110.08c9.48408,0 17.2,-7.71592 17.2,-17.2v-110.08c0,-9.48408 -7.71592,-17.2 -17.2,-17.2zM96.32,127.28h-37.84l-10.32,-75.68l27.52,-3.44344l6.88,55.04344c6.30552,-10.03792 13.76,-27.08312 13.76,-37.84c0,-5.88584 -1.82664,-10.4576 -3.44,-13.76l27.52,-6.88c2.93432,4.73688 3.44,13.0548 3.44,19.21584c0,19.65616 -13.588,45.41488 -27.52,63.34416z"/></g></g></svg>