<svg xmlns="http://www.w3.org/2000/svg" xmlns:xlink="http://www.w3.org/1999/xlink" version="1.1" viewBox="0 0 172 172"><g fill="none" fill-rule="nonzero" stroke="none" stroke-width="1" stroke-linecap="butt" stroke-linejoin="miter" stroke-miterlimit="10" stroke-dasharray="" stroke-dashoffset="0" font-family="none" font-weight="none" font-size="none" text-anchor="none" style="mix-blend-mode: normal"><path d="M0,172v-172h172v172z" fill="none"/><g fill="#aaf0d1"><path d="M86,3.44c-18.97375,0 -34.4,15.42625 -34.4,34.4c0,18.97375 15.42625,34.4 34.4,34.4c18.97375,0 34.4,-15.42625 34.4,-34.4c0,-18.97375 -15.42625,-34.4 -34.4,-34.4zM86,17.2c1.89469,0 3.44,1.53188 3.44,3.44c0,1.90813 -1.54531,3.44 -3.44,3.44c-7.59219,0 -13.76,6.16781 -13.76,13.76c0,1.90813 -1.54531,3.44 -3.44,3.44c-1.89469,0 -3.44,-1.53187 -3.44,-3.44c0,-11.38156 9.25844,-20.64 20.64,-20.64zM75.68,77.76281v71.00375l10.32,19.75312l10.32,-19.75312v-71.00375c-3.30562,0.86 -6.75906,1.35719 -10.32,1.35719c-3.56094,0 -7.01437,-0.49719 -10.32,-1.35719z"/></g></g></svg>