<svg xmlns="http://www.w3.org/2000/svg" xmlns:xlink="http://www.w3.org/1999/xlink" version="1.1" viewBox="0 0 172 172"><g fill="none" fill-rule="nonzero" stroke="none" stroke-width="1" stroke-linecap="butt" stroke-linejoin="miter" stroke-miterlimit="10" stroke-dasharray="" stroke-dashoffset="0" font-family="none" font-weight="none" font-size="none" text-anchor="none" style="mix-blend-mode: normal"><path d="M0,172v-172h172v172z" fill="none"/><path d="M25.8,172c-14.24895,0 -25.8,-11.55105 -25.8,-25.8v-120.4c0,-14.24895 11.55105,-25.8 25.8,-25.8h120.4c14.24895,0 25.8,11.55105 25.8,25.8v120.4c0,14.24895 -11.55105,25.8 -25.8,25.8z" fill="#000000"/><g fill="#ffffff"><path d="M86.45505,50.14719c-8.92336,0 -18.83519,3.33904 -20.92081,14.25292c-0.22419,1.1617 -0.28193,1.77312 -0.28193,1.77312l12.1605,1.22964c0,0 0.06794,-0.98847 0.23098,-1.82747c0.78126,-3.76024 3.96405,-5.61829 7.53747,-5.61829c1.92938,0 4.11011,0.72352 5.25143,2.4321c1.31795,1.90899 1.10056,4.49735 1.10056,6.70866v1.25681c-5.43486,0.60463 -12.52735,0.97488 -17.61234,3.18619c-5.87644,2.51362 -9.99335,7.63938 -9.99335,15.17685c0,9.64348 6.16517,14.50428 14.0593,14.50428c6.66789,0 10.26849,-1.59989 15.41462,-6.79018c1.70179,2.43889 2.30642,3.64136 5.42127,6.20593l1.01564,0.85259l1.18548,-1.01904c1.87163,-1.65084 5.2854,-4.61284 7.19779,-6.20593c0.62161,-0.50612 1.15151,-0.98167 1.15151,-0.98167c0,0 -1.03942,-1.29418 -1.15151,-1.45043c-1.71538,-2.34378 -3.47152,-4.28675 -3.47152,-8.63803v-14.42276c0,-6.1278 0.41101,-11.79704 -4.15087,-16.01585c-3.60059,-3.41717 -9.58573,-4.60944 -14.14422,-4.60944zM88.99585,77.81742c0.8458,-0.05435 1.6916,0 2.5408,0v2.0109c0,3.61758 0.14606,6.59316 -1.695,9.80992c-1.49119,2.61213 -3.88932,4.19164 -6.52183,4.19164c-3.5972,0 -5.67603,-2.69026 -5.67603,-6.70866c0,-6.91246 5.43486,-8.91996 11.35206,-9.3038zM114.90994,99.45156c-2.37435,0.03397 -5.15632,0.5333 -7.28271,2.0109c-0.65218,0.45517 -1.34173,1.11075 -1.34173,1.11075c0,0 9.1985,-1.0598 10.1496,0.14606c0.9511,1.20586 -2.54419,9.70802 -2.54419,9.70802c0,0 0.91713,-0.39742 1.52855,-0.90694c3.98443,-3.30168 5.05102,-10.1496 4.23579,-11.15165c-0.40422,-0.48914 -2.36756,-0.9511 -4.74531,-0.91713zM52.01163,101.099c8.11832,8.40365 20.96837,13.58715 33.96787,13.58715c9.27323,0 19.21563,-3.09447 26.6444,-8.52254c1.03262,-0.79145 1.81728,-1.61008 2.29283,-2.37096l-2.66987,1.01564c-8.32892,3.49869 -17.39155,4.87099 -25.62536,4.87099c-12.20466,0 -25.0547,-3.07409 -34.60987,-8.58029z"/></g></g></svg>