<svg xmlns="http://www.w3.org/2000/svg" xmlns:xlink="http://www.w3.org/1999/xlink" version="1.1" viewBox="0 0 172 172"><g fill="none" fill-rule="nonzero" stroke="none" stroke-width="1" stroke-linecap="butt" stroke-linejoin="miter" stroke-miterlimit="10" stroke-dasharray="" stroke-dashoffset="0" font-family="none" font-weight="none" font-size="none" text-anchor="none" style="mix-blend-mode: normal"><path d="M0,172v-172h172v172z" fill="none"/><path d="M25.8,172c-14.24895,0 -25.8,-11.55105 -25.8,-25.8v-120.4c0,-14.24895 11.55105,-25.8 25.8,-25.8h120.4c14.24895,0 25.8,11.55105 25.8,25.8v120.4c0,14.24895 -11.55105,25.8 -25.8,25.8z" fill="#000000"/><g fill="#ffffff"><path d="M104.89611,51.85456h-37.79221c-8.52376,0 -15.43236,6.9086 -15.43236,15.43065v37.65147c0,8.52204 6.9086,15.43236 15.43236,15.43236h37.79393c8.52204,-0.00172 15.43065,-6.91032 15.43065,-15.43236v-37.65147c0,-8.52204 -6.9086,-15.43065 -15.43236,-15.43065zM70.8457,106.23258c-0.63851,1.09165 -1.7868,1.69754 -2.96598,1.69754c-0.58873,0 -1.18605,-0.15105 -1.73187,-0.4703c-1.63575,-0.95948 -2.18501,-3.0621 -1.22553,-4.69613l0.49948,-0.85306c0.88396,-0.27806 1.81426,-0.42911 2.77031,-0.40164h0.00858c1.7559,0.05149 3.22516,0.8462 4.22927,2.01851zM90.14173,98.07098h-26.45524c-1.89493,0 -3.43285,-1.53792 -3.43285,-3.43285c0,-1.89493 1.53792,-3.43285 3.43285,-3.43285h8.00712l10.06854,-17.1814l-3.10844,-5.30547c-0.95948,-1.63575 -0.41023,-3.73837 1.22553,-4.69785c1.63575,-0.95776 3.73837,-0.41023 4.69785,1.22553l1.16374,1.9859l1.16374,-1.9859c0.95776,-1.63575 3.06038,-2.18329 4.69785,-1.22553c1.63575,0.95948 2.18501,3.0621 1.22553,4.69785l-13.17698,22.48687h7.17465c1.07276,0.71403 1.99448,1.65807 2.65874,2.81493l0.00515,0.00687c0.75523,1.31306 0.92172,2.73426 0.65224,4.04389zM108.31351,98.07098h-4.50218l2.74971,4.69099c0.95948,1.63404 0.41023,3.73837 -1.22553,4.69613c-0.54582,0.32097 -1.14314,0.4703 -1.73187,0.4703c-1.17918,0 -2.32575,-0.60761 -2.96598,-1.69754l-10.55772,-18.0173c-1.4315,-2.65874 -1.37829,-5.88218 0.18709,-8.48428l1.41777,-2.35665l8.10324,13.83266h8.52548c1.89493,0 3.43285,1.53792 3.43285,3.43285c0,1.89493 -1.53792,3.43285 -3.43285,3.43285z"/></g></g></svg>