<svg xmlns="http://www.w3.org/2000/svg" xmlns:xlink="http://www.w3.org/1999/xlink" version="1.1" viewBox="0 0 172 172"><g fill="none" fill-rule="nonzero" stroke="none" stroke-width="1" stroke-linecap="butt" stroke-linejoin="miter" stroke-miterlimit="10" stroke-dasharray="" stroke-dashoffset="0" font-family="none" font-weight="none" font-size="none" text-anchor="none" style="mix-blend-mode: normal"><path d="M0,172v-172h172v172z" fill="none"/><path d="M25.8,172c-14.24895,0 -25.8,-11.55105 -25.8,-25.8v-120.4c0,-14.24895 11.55105,-25.8 25.8,-25.8h120.4c14.24895,0 25.8,11.55105 25.8,25.8v120.4c0,14.24895 -11.55105,25.8 -25.8,25.8z" fill="#000000"/><g><path d="M86,52.40625c-18.55332,0 -33.59375,15.04043 -33.59375,33.59375c0,18.55332 15.04043,33.59375 33.59375,33.59375c18.55332,0 33.59375,-15.04043 33.59375,-33.59375c0,-18.55332 -15.04043,-33.59375 -33.59375,-33.59375z" fill="#000000"/><path d="M86,121.60938c-19.61875,0 -35.60937,-15.99062 -35.60937,-35.60937c0,-19.61875 15.99063,-35.60937 35.60938,-35.60937c19.61875,0 35.60938,15.99063 35.60938,35.60938c0,19.61875 -15.99062,35.60938 -35.60937,35.60938zM86,54.42188c-17.40156,0 -31.57812,14.17656 -31.57812,31.57813c0,17.40156 14.17656,31.57813 31.57813,31.57813c17.40156,0 31.57813,-14.17656 31.57813,-31.57813c0,-17.40156 -14.17656,-31.57812 -31.57813,-31.57812z" fill="#ffffff"/><path d="M88.55313,84.58906l-4.16562,-1.00781c-1.27656,-0.33594 -2.08281,-1.41094 -2.08281,-2.6875c0,-1.54531 1.27656,-2.82188 2.82187,-2.82188h2.01563c1.41094,0 2.55313,1.14219 2.55313,2.55313c0,1.14219 0.87344,2.01562 2.01562,2.01562c1.14219,0 2.01563,-0.87344 2.01563,-2.01562c0,-3.35938 -2.48594,-6.11406 -5.71094,-6.51719v-0.87344c0,-1.14219 -0.87344,-2.01562 -2.01563,-2.01562c-1.14219,0 -2.01562,0.87344 -2.01562,2.01562v0.94063c-3.225,0.5375 -5.71094,3.35938 -5.71094,6.71875c0,3.15781 2.15,5.84531 5.17344,6.65156l4.16562,1.00781c1.27656,0.33594 2.08281,1.41094 2.08281,2.6875c0,1.54531 -1.27656,2.82188 -2.82188,2.82188h-2.01562c-1.41094,0 -2.55313,-1.14219 -2.55313,-2.55313c0,-1.14219 -0.87344,-2.01562 -2.01562,-2.01562c-1.14219,0 -2.01563,0.87344 -2.01563,2.01563c0,3.35938 2.48594,6.11406 5.71094,6.51719v0.87344c0,1.14219 0.87344,2.01563 2.01562,2.01563c1.14219,0 2.01563,-0.87344 2.01563,-2.01562v-0.94063c3.225,-0.5375 5.71094,-3.35937 5.71094,-6.71875c0,-3.225 -2.15,-5.9125 -5.17344,-6.65156z" fill="#ffffff"/></g></g></svg>