<svg xmlns="http://www.w3.org/2000/svg" xmlns:xlink="http://www.w3.org/1999/xlink" version="1.1" viewBox="0 0 172 172"><g fill="none" fill-rule="nonzero" stroke="none" stroke-width="1" stroke-linecap="butt" stroke-linejoin="miter" stroke-miterlimit="10" stroke-dasharray="" stroke-dashoffset="0" font-family="none" font-weight="none" font-size="none" text-anchor="none" style="mix-blend-mode: normal"><path d="M0,172v-172h172v172z" fill="none"/><path d="M24.94,172c-13.77398,0 -24.94,-11.16602 -24.94,-24.94v-122.12c0,-13.77398 11.16602,-24.94 24.94,-24.94h122.12c13.77398,0 24.94,11.16602 24.94,24.94v122.12c0,13.77398 -11.16602,24.94 -24.94,24.94z" fill="#000000"/><g fill="#ffffff"><path d="M85.91668,46.52734c-0.24612,0 -0.49095,0.03974 -0.73707,0.12178l-36.09716,16.90132c-0.49223,0.32816 -0.82039,0.82103 -0.82039,1.47734v2.78804c0,0.98447 0.65631,1.64078 1.64078,1.64078h13.12624c0.82039,0 1.64078,0.82039 1.64078,1.64078c0,0.82039 -0.82039,1.64078 -1.64078,1.64078h-1.64078v34.45638h49.2234v-34.45638h-1.64078c-0.82039,0 -1.64078,-0.82039 -1.64078,-1.64078c0,-0.82039 0.82039,-1.64078 1.64078,-1.64078h13.12624c0.98447,0 1.64078,-0.65631 1.64078,-1.64078v-2.78804c0,-0.65631 -0.32751,-1.14919 -0.98383,-1.47734l-36.09716,-16.90132c-0.24612,-0.08204 -0.49416,-0.12178 -0.74027,-0.12178zM84.35922,61.2527h3.28156v5.08578c6.23496,0.82039 8.2039,6.56376 8.2039,9.68124h-3.28156c0,-0.65631 -0.32816,-6.56312 -6.56312,-6.56312c-6.39904,0 -6.56312,4.75826 -6.56312,4.92234c0,3.44564 2.62653,4.43011 7.05664,5.74273c4.10195,1.31262 9.35116,2.78933 9.35116,9.02429c0,2.13301 -0.65759,4.10323 -2.1343,5.41586c-1.80486,1.80486 -4.42882,2.46053 -6.0696,2.62461v5.08578h-3.28156v-5.08578c-2.13301,-0.32816 -4.10323,-1.14855 -5.41586,-2.46117c-2.78933,-2.9534 -2.78804,-7.056 -2.78804,-7.22007h3.28156c0,0 -0.00064,2.9534 1.80422,4.92234c1.14855,1.14855 2.62589,1.64078 4.7589,1.64078c0,0 3.611,0.00064 5.41586,-1.80422c0.82039,-0.82039 1.14726,-1.8055 1.14726,-3.11812c0,-3.44564 -2.62653,-4.43011 -7.05664,-5.74273c-4.10195,-1.31262 -9.35116,-2.9534 -9.35116,-9.02429c0,-2.62525 1.96894,-7.38415 8.2039,-8.04046zM54.82518,72.73816v34.45638h3.28156v-34.45638zM113.89326,72.73816v34.45638h3.28156v-34.45638zM53.1844,110.4761c-2.78933,0 -4.92234,2.13301 -4.92234,4.92234v3.28156h75.47588v-3.28156c0,-2.78933 -2.13301,-4.92234 -4.92234,-4.92234z"/></g></g></svg>