<svg xmlns="http://www.w3.org/2000/svg" xmlns:xlink="http://www.w3.org/1999/xlink" version="1.1" viewBox="0 0 172 172"><g fill="none" fill-rule="nonzero" stroke="none" stroke-width="1" stroke-linecap="butt" stroke-linejoin="miter" stroke-miterlimit="10" stroke-dasharray="" stroke-dashoffset="0" font-family="none" font-weight="none" font-size="none" text-anchor="none" style="mix-blend-mode: normal"><path d="M0,172v-172h172v172z" fill="none"/><path d="M25.8,172c-14.24895,0 -25.8,-11.55105 -25.8,-25.8v-120.4c0,-14.24895 11.55105,-25.8 25.8,-25.8h120.4c14.24895,0 25.8,11.55105 25.8,25.8v120.4c0,14.24895 -11.55105,25.8 -25.8,25.8z" fill="#000000"/><g fill="#ffffff"><path d="M57.64475,56.76045c-3.29379,0 -5.96963,2.67584 -5.96963,5.96963v4.47723h62.68116v-4.47723c0,-3.29379 -2.67584,-5.96963 -5.96963,-5.96963zM51.67511,74.66935v20.89372c0,3.29379 2.67584,5.96963 5.96963,5.96963h50.74189c3.29379,0 5.96963,-2.67584 5.96963,-5.96963v-20.89372zM62.12197,79.14658h23.87854v2.98482h-23.87854zM117.34109,85.20949v10.35358c0,4.93777 -4.01668,8.95445 -8.95445,8.95445h-50.74189c-0.18072,0 -0.37893,-0.03498 -0.55965,-0.04664l1.44577,7.97506c0.27983,1.57403 1.11931,2.9615 2.42516,3.87093c1.01437,0.71123 2.19198,1.07267 3.40456,1.07267c0.34978,0 0.72289,-0.02915 1.07267,-0.09328l49.94905,-8.90781c1.56819,-0.27983 2.9615,-1.16594 3.87093,-2.4718c0.90944,-1.30586 1.25922,-2.86239 0.97939,-4.43059z"/></g></g></svg>