<svg xmlns="http://www.w3.org/2000/svg" xmlns:xlink="http://www.w3.org/1999/xlink" version="1.1" viewBox="0 0 172 172"><g fill="none" fill-rule="nonzero" stroke="none" stroke-width="1" stroke-linecap="butt" stroke-linejoin="miter" stroke-miterlimit="10" stroke-dasharray="" stroke-dashoffset="0" font-family="none" font-weight="none" font-size="none" text-anchor="none" style="mix-blend-mode: normal"><path d="M0,172v-172h172v172z" fill="none"/><path d="M25.8,172c-14.24895,0 -25.8,-11.55105 -25.8,-25.8v-120.4c0,-14.24895 11.55105,-25.8 25.8,-25.8h120.4c14.24895,0 25.8,11.55105 25.8,25.8v120.4c0,14.24895 -11.55105,25.8 -25.8,25.8z" fill="#1a314f"/><g fill="#ffffff"><path d="M80.45423,60.2c-1.52105,0 -2.90979,0.85779 -3.59005,2.21831l-0.79169,1.58339c-0.68026,1.35851 -2.071,2.21831 -3.59005,2.21831h-8.55577c-2.21737,0 -4.01333,1.79597 -4.01333,4.01333v26.08667c0,2.21737 1.79597,4.01333 4.01333,4.01333h44.14667c2.21737,0 4.01333,-1.79597 4.01333,-4.01333v-26.08667c0,-2.21737 -1.79597,-4.01333 -4.01333,-4.01333h-8.55577c-1.52105,0 -2.90979,-0.85779 -3.59005,-2.21831l-0.79169,-1.58339c-0.68026,-1.35851 -2.071,-2.21831 -3.59005,-2.21831zM67.94,62.20667c-1.10768,0 -2.00667,0.89899 -2.00667,2.00667h6.02c0,-1.10768 -0.89899,-2.00667 -2.00667,-2.00667zM86,68.22667c7.74573,0 14.04667,6.30093 14.04667,14.04667c0,7.74573 -6.30093,14.04667 -14.04667,14.04667c-7.74573,0 -14.04667,-6.30093 -14.04667,-14.04667c0,-7.74573 6.30093,-14.04667 14.04667,-14.04667zM104.06,70.23333c1.10768,0 2.00667,0.89899 2.00667,2.00667c0,1.10768 -0.89899,2.00667 -2.00667,2.00667c-1.10768,0 -2.00667,-0.89899 -2.00667,-2.00667c0,-1.10768 0.89899,-2.00667 2.00667,-2.00667zM86,72.24c-5.54126,0 -10.03333,4.49208 -10.03333,10.03333c0,5.54126 4.49208,10.03333 10.03333,10.03333c5.54126,0 10.03333,-4.49208 10.03333,-10.03333c0,-5.54126 -4.49208,-10.03333 -10.03333,-10.03333z"/></g></g></svg>