<svg xmlns="http://www.w3.org/2000/svg" xmlns:xlink="http://www.w3.org/1999/xlink" version="1.1" viewBox="0 0 172 172"><g fill="none" fill-rule="nonzero" stroke="none" stroke-width="1" stroke-linecap="butt" stroke-linejoin="miter" stroke-miterlimit="10" stroke-dasharray="" stroke-dashoffset="0" font-family="none" font-weight="none" font-size="none" text-anchor="none" style="mix-blend-mode: normal"><path d="M0,172v-172h172v172z" fill="none"/><path d="M25.8,172c-14.24895,0 -25.8,-11.55105 -25.8,-25.8v-120.4c0,-14.24895 11.55105,-25.8 25.8,-25.8h120.4c14.24895,0 25.8,11.55105 25.8,25.8v120.4c0,14.24895 -11.55105,25.8 -25.8,25.8z" fill="#000000"/><g fill="#ffffff"><path d="M86,50.16667c-19.70833,0 -35.83333,16.125 -35.83333,35.83333c0,19.70833 16.125,35.83333 35.83333,35.83333c19.70833,0 35.83333,-16.125 35.83333,-35.83333c0,-19.70833 -16.125,-35.83333 -35.83333,-35.83333zM99.4375,91.375h-14.33333c-1.43333,0 -2.6875,-1.25417 -2.6875,-2.6875v-21.5c0,-1.43333 1.25417,-2.6875 2.6875,-2.6875c1.43333,0 2.6875,1.25417 2.6875,2.6875v18.8125h11.64583c1.43333,0 2.6875,1.25417 2.6875,2.6875c0,1.43333 -1.25417,2.6875 -2.6875,2.6875z"/></g></g></svg>