<svg xmlns="http://www.w3.org/2000/svg" xmlns:xlink="http://www.w3.org/1999/xlink" version="1.1" viewBox="0 0 172 172"><g fill="none" fill-rule="nonzero" stroke="none" stroke-width="1" stroke-linecap="butt" stroke-linejoin="miter" stroke-miterlimit="10" stroke-dasharray="" stroke-dashoffset="0" font-family="none" font-weight="none" font-size="none" text-anchor="none" style="mix-blend-mode: normal"><path d="M0,172v-172h172v172z" fill="none"/><path d="M25.8,172c-14.24895,0 -25.8,-11.55105 -25.8,-25.8v-120.4c0,-14.24895 11.55105,-25.8 25.8,-25.8h120.4c14.24895,0 25.8,11.55105 25.8,25.8v120.4c0,14.24895 -11.55105,25.8 -25.8,25.8z" fill="#000000"/><g fill="#ffffff"><path d="M123.81224,48.18776c-8.95833,-8.95834 -40.8584,-6.80274 -61.99447,14.33333c-21.15007,21.15006 -23.29167,53.03613 -14.33333,61.99446c8.95833,8.95833 40.8444,6.81673 61.99447,-14.33333c21.13607,-21.13607 23.29167,-53.38607 14.33333,-61.99446zM49.98997,122.01003l14.33333,-17.91667l3.58333,3.58333zM101.58438,84.38503l-5.01107,-5.01107l-6.80273,6.80273l5.01107,5.01107c1.0778,1.0778 1.0778,2.86947 0,3.58333c-1.0778,1.0778 -2.86947,1.0778 -3.58333,0l-5.375,-4.64714l-6.80273,6.80273l5.01107,5.01107c1.0778,1.0778 1.0778,2.86947 0,3.58333c-1.0778,1.0778 -2.86947,1.0778 -3.58333,0l-5.375,-4.64714l-3.58333,3.58333l-3.58333,-3.94727l3.58333,-3.58333l-5.01107,-5.01107c-1.0778,-1.0778 -1.0778,-2.86947 0,-3.58333c1.0638,-1.0778 2.85547,-1.0778 3.58333,0l5.01107,4.64714l6.80274,-6.80274l-5.01107,-5.01107c-1.0778,-1.0778 -1.0778,-2.86947 0,-3.58333c1.0778,-1.0778 2.86947,-1.0778 3.58333,0l5.01107,5.01107l7.16667,-7.16667l-5.01107,-5.01107c-1.0778,-1.0778 -1.0778,-2.86947 0,-3.58333c1.0778,-1.0778 2.86947,-1.0778 3.58333,0l5.375,4.64714l3.58333,-3.58333l3.58333,3.94726l-3.58333,3.58333l5.01107,5.01107c1.0778,1.0778 1.0778,2.86947 0,3.58333c-0.71387,1.44173 -2.50553,1.44173 -3.58333,0.36393zM107.32331,68.26003l-3.58333,-3.58333l17.91667,-14.33333z"/></g></g></svg>