<svg xmlns="http://www.w3.org/2000/svg" xmlns:xlink="http://www.w3.org/1999/xlink" version="1.1" viewBox="0 0 172 172"><g fill="none" fill-rule="nonzero" stroke="none" stroke-width="1" stroke-linecap="butt" stroke-linejoin="miter" stroke-miterlimit="10" stroke-dasharray="" stroke-dashoffset="0" font-family="none" font-weight="none" font-size="none" text-anchor="none" style="mix-blend-mode: normal"><path d="M0,172v-172h172v172z" fill="none"/><path d="M25.8,172c-14.24895,0 -25.8,-11.55105 -25.8,-25.8v-120.4c0,-14.24895 11.55105,-25.8 25.8,-25.8h120.4c14.24895,0 25.8,11.55105 25.8,25.8v120.4c0,14.24895 -11.55105,25.8 -25.8,25.8z" fill="#1a314f"/><g fill="#ffffff"><path d="M71.66667,50.16667c-3.94167,0 -7.16667,3.225 -7.16667,7.16667v14.33333c0,3.94167 3.225,7.16667 7.16667,7.16667h7.16667l5.51497,8.27246c0.78475,1.17892 2.51864,1.17892 3.30339,0l5.51497,-8.27246h7.16667c3.94167,0 7.16667,-3.225 7.16667,-7.16667v-14.33333c0,-3.94167 -3.225,-7.16667 -7.16667,-7.16667zM68.08333,89.58333c-3.95804,0 -7.16667,3.20863 -7.16667,7.16667c0,3.95804 3.20863,7.16667 7.16667,7.16667c3.95804,0 7.16667,-3.20863 7.16667,-7.16667c0,-3.95804 -3.20863,-7.16667 -7.16667,-7.16667zM103.91667,89.58333c-3.95804,0 -7.16667,3.20863 -7.16667,7.16667c0,3.95804 3.20863,7.16667 7.16667,7.16667c3.95804,0 7.16667,-3.20863 7.16667,-7.16667c0,-3.95804 -3.20863,-7.16667 -7.16667,-7.16667zM68.08333,107.5c-7.82958,0 -14.33333,3.25652 -14.33333,7.94352v2.80648c0,1.978 1.60533,3.58333 3.58333,3.58333h21.5c1.978,0 3.58333,-1.60533 3.58333,-3.58333v-2.80648c0,-4.687 -6.50375,-7.94352 -14.33333,-7.94352zM103.91667,107.5c-7.82958,0 -14.33333,3.25652 -14.33333,7.94352v2.80648c0,1.978 1.60533,3.58333 3.58333,3.58333h21.5c1.978,0 3.58333,-1.60533 3.58333,-3.58333v-2.80648c0,-4.687 -6.50375,-7.94352 -14.33333,-7.94352z"/></g></g></svg>