<svg xmlns="http://www.w3.org/2000/svg" xmlns:xlink="http://www.w3.org/1999/xlink" version="1.1" viewBox="0 0 172 172"><g fill="none" fill-rule="nonzero" stroke="none" stroke-width="1" stroke-linecap="butt" stroke-linejoin="miter" stroke-miterlimit="10" stroke-dasharray="" stroke-dashoffset="0" font-family="none" font-weight="none" font-size="none" text-anchor="none" style="mix-blend-mode: normal"><path d="M0,172v-172h172v172z" fill="none"/><path d="M25.8,172c-14.24895,0 -25.8,-11.55105 -25.8,-25.8v-120.4c0,-14.24895 11.55105,-25.8 25.8,-25.8h120.4c14.24895,0 25.8,11.55105 25.8,25.8v120.4c0,14.24895 -11.55105,25.8 -25.8,25.8z" fill="#1a314f"/><g fill="#ffffff"><path d="M54.24615,68.66769c-5.39567,0 -9.52615,4.13048 -9.52615,9.52615v22.22769c0,5.39567 4.13048,9.52615 9.52615,9.52615h63.50769c5.39567,0 9.52615,-4.13048 9.52615,-9.52615v-22.22769c0,-5.39567 -4.13048,-9.52615 -9.52615,-9.52615zM57.71923,77.20154h5.45769v22.92231h-5.45769zM65.95538,77.20154h7.04538l1.88538,10.81615l1.29,-10.81615h7.64077v22.92231h-4.76308v-12.70154l-2.28231,12.70154h-3.47308l-2.18308,-12.70154v12.70154h-5.16zM86.59538,77.20154h6.35077c3.80798,0 4.49019,0.35971 5.75538,0.99231c0.9551,0.6326 1.58769,1.88538 1.58769,3.47308v13.69385c0,1.26519 -0.6326,2.54279 -1.58769,3.17538c-0.9551,0.6326 -2.2575,1.29 -5.75538,1.29h-6.35077zM101.87692,77.20154h5.75538v5.16c0.6326,-0.6326 2.18308,-1.58769 3.77077,-1.58769c1.58769,0 3.47308,1.26519 3.47308,3.17538v13.29692c0,0.9551 -0.3349,1.55048 -1.29,2.18308c-0.6326,0.3225 -1.21558,0.39692 -2.48077,0.39692c-1.26519,0 -3.2374,-0.99231 -3.87,-0.99231c-0.3225,-0.3225 -0.59538,1.29 -0.59538,1.29h-4.76308zM92.05308,80.77385v15.18231c0.9551,0 2.18308,0.06202 2.18308,-0.89308v-13.39615c0,-0.9551 -1.22798,-0.89308 -2.18308,-0.89308zM108.52538,83.55231c-0.6326,0 -0.59538,0.35971 -0.59538,0.99231v11.41154c0,0.6326 0.27289,0.99231 0.59538,0.99231c0.6326,0 0.69462,-0.35971 0.69462,-0.99231v-11.41154c0,-0.6326 -0.37211,-0.99231 -0.69462,-0.99231z"/></g></g></svg>