<svg xmlns="http://www.w3.org/2000/svg" xmlns:xlink="http://www.w3.org/1999/xlink" version="1.1" viewBox="0 0 172 172"><g fill="none" fill-rule="nonzero" stroke="none" stroke-width="1" stroke-linecap="butt" stroke-linejoin="miter" stroke-miterlimit="10" stroke-dasharray="" stroke-dashoffset="0" font-family="none" font-weight="none" font-size="none" text-anchor="none" style="mix-blend-mode: normal"><path d="M0,172v-172h172v172z" fill="none"/><path d="M25.8,172c-14.24895,0 -25.8,-11.55105 -25.8,-25.8v-120.4c0,-14.24895 11.55105,-25.8 25.8,-25.8h120.4c14.24895,0 25.8,11.55105 25.8,25.8v120.4c0,14.24895 -11.55105,25.8 -25.8,25.8z" fill="#1a314f"/><g fill="#ffffff"><path d="M78.17687,53.76046c-1.04356,0.00599 -2.10159,0.07296 -3.16876,0.20551c-11.58151,1.4378 -20.95369,10.59723 -22.65531,22.14486c-0.83151,5.64562 0.31658,10.96871 2.61854,15.58526l-2.8373,11.51493c-0.21362,0.86516 0.04067,1.77904 0.67047,2.40952c0.6298,0.63047 1.5434,0.88575 2.4088,0.67306l11.52487,-2.83399c4.61697,2.30017 9.94162,3.44511 15.58526,2.61191c11.544,-1.70352 20.70042,-11.07226 22.13823,-22.65199c1.8574,-14.93931 -9.0135,-27.9087 -23.1989,-29.49665c-1.01324,-0.11342 -2.04233,-0.16841 -3.08589,-0.16242zM108.04807,69.89594c1.54434,4.48028 2.0524,9.31668 1.45842,14.15335c-1.71405,13.88208 -12.59244,25.01398 -26.44058,27.05047c-1.56131,0.23759 -3.1388,0.35798 -4.70011,0.35798c-0.83157,0 -1.6809,-0.03447 -2.51247,-0.11932c3.75054,3.46203 8.55393,5.82163 13.83184,6.61926c5.49853,0.79763 10.96325,-0.06749 15.83385,-2.56219l11.26965,2.78427c0.20365,0.05091 0.40624,0.06629 0.60989,0.06629c0.66186,0 1.32465,-0.25363 1.79983,-0.74579c0.62792,-0.62792 0.88314,-1.54421 0.67949,-2.40972l-2.78427,-11.26965c2.4947,-4.87061 3.37678,-10.31836 2.56219,-15.83385c-1.12007,-7.56896 -5.48129,-14.06903 -11.60774,-18.0911zM68.18335,72.42167h22.06199c1.40688,0 2.54561,1.14044 2.54561,2.54561c0,1.40518 -1.13874,2.54561 -2.54561,2.54561h-22.06199c-1.40688,0 -2.54561,-1.14044 -2.54561,-2.54561c0,-1.40518 1.13874,-2.54561 2.54561,-2.54561zM68.18335,84.30121h15.27369c1.40688,0 2.54561,1.14044 2.54561,2.54561c0,1.40518 -1.13874,2.54561 -2.54561,2.54561h-15.27369c-1.40688,0 -2.54561,-1.14044 -2.54561,-2.54561c0,-1.40518 1.13874,-2.54561 2.54561,-2.54561z"/></g></g></svg>