<svg xmlns="http://www.w3.org/2000/svg" xmlns:xlink="http://www.w3.org/1999/xlink" version="1.1" viewBox="0 0 172 172"><g fill="none" fill-rule="nonzero" stroke="none" stroke-width="1" stroke-linecap="butt" stroke-linejoin="miter" stroke-miterlimit="10" stroke-dasharray="" stroke-dashoffset="0" font-family="none" font-weight="none" font-size="none" text-anchor="none" style="mix-blend-mode: normal"><path d="M0,172v-172h172v172z" fill="none"/><path d="M25.8,172c-14.24895,0 -25.8,-11.55105 -25.8,-25.8v-120.4c0,-14.24895 11.55105,-25.8 25.8,-25.8h120.4c14.24895,0 25.8,11.55105 25.8,25.8v120.4c0,14.24895 -11.55105,25.8 -25.8,25.8z" fill="#000000"/><g fill="#ffffff"><path d="M63.60417,53.75c-5.41043,0 -9.85417,4.44374 -9.85417,9.85417v44.79167c0,5.41043 4.44374,9.85417 9.85417,9.85417h44.79167c5.41043,0 9.85417,-4.44374 9.85417,-9.85417v-44.79167c0,-5.41043 -4.44374,-9.85417 -9.85417,-9.85417zM63.60417,59.125h44.79167c2.50515,0 4.47917,1.97401 4.47917,4.47917v44.79167c0,2.50515 -1.97401,4.47917 -4.47917,4.47917h-44.79167c-2.50515,0 -4.47917,-1.97401 -4.47917,-4.47917v-44.79167c0,-2.50515 1.97401,-4.47917 4.47917,-4.47917zM70.77083,66.29167c-2.47378,0 -4.47917,2.00539 -4.47917,4.47917c0,2.47378 2.00539,4.47917 4.47917,4.47917c2.47378,0 4.47917,-2.00539 4.47917,-4.47917c0,-2.47378 -2.00539,-4.47917 -4.47917,-4.47917zM68.08333,78.83333c-0.99079,0 -1.79167,0.80088 -1.79167,1.79167v23.29167c0,0.99079 0.80088,1.79167 1.79167,1.79167h5.375c0.99079,0 1.79167,-0.80087 1.79167,-1.79167v-23.29167c0,-0.99079 -0.80087,-1.79167 -1.79167,-1.79167zM80.625,78.83333c-0.99079,0 -1.79167,0.80088 -1.79167,1.79167v23.29167c0,0.99079 0.80088,1.79167 1.79167,1.79167h5.375c0.99079,0 1.79167,-0.80087 1.79167,-1.79167v-13.4375c0,-2.47071 2.00846,-4.47917 4.47917,-4.47917c2.47071,0 4.47917,2.00846 4.47917,4.47917v13.4375c0,0.99079 0.80088,1.79167 1.79167,1.79167h5.375c0.99079,0 1.79167,-0.80087 1.79167,-1.79167v-14.33333c0,-5.92862 -4.82137,-10.75 -10.75,-10.75c-2.75558,0 -5.26212,1.04995 -7.16667,2.76099v-0.96932c0,-0.99079 -0.80088,-1.79167 -1.79167,-1.79167z"/></g></g></svg>