<svg xmlns="http://www.w3.org/2000/svg" xmlns:xlink="http://www.w3.org/1999/xlink" version="1.1" viewBox="0 0 172 172"><g fill="none" fill-rule="nonzero" stroke="none" stroke-width="1" stroke-linecap="butt" stroke-linejoin="miter" stroke-miterlimit="10" stroke-dasharray="" stroke-dashoffset="0" font-family="none" font-weight="none" font-size="none" text-anchor="none" style="mix-blend-mode: normal"><path d="M0,172v-172h172v172z" fill="none"/><path d="M25.8,172c-14.24895,0 -25.8,-11.55105 -25.8,-25.8v-120.4c0,-14.24895 11.55105,-25.8 25.8,-25.8h120.4c14.24895,0 25.8,11.55105 25.8,25.8v120.4c0,14.24895 -11.55105,25.8 -25.8,25.8z" fill="#000000"/><g fill="#ffffff"><path d="M64.5,64.5c-2.49938,0 -4.58941,1.72781 -5.18604,4.04175l26.68604,16.72339l26.70178,-16.67615c-0.5805,-2.34081 -2.6836,-4.08899 -5.20178,-4.08899zM59.125,74.53613v27.58887c0,2.96431 2.41069,5.375 5.375,5.375h43c2.96431,0 5.375,-2.41069 5.375,-5.375v-27.53113l-26.875,16.78113z"/></g></g></svg>