<svg xmlns="http://www.w3.org/2000/svg" xmlns:xlink="http://www.w3.org/1999/xlink" version="1.1" viewBox="0 0 172 172"><g fill="none" fill-rule="nonzero" stroke="none" stroke-width="1" stroke-linecap="butt" stroke-linejoin="miter" stroke-miterlimit="10" stroke-dasharray="" stroke-dashoffset="0" font-family="none" font-weight="none" font-size="none" text-anchor="none" style="mix-blend-mode: normal"><path d="M0,172v-172h172v172z" fill="none"/><path d="M25.8,172c-14.24895,0 -25.8,-11.55105 -25.8,-25.8v-120.4c0,-14.24895 11.55105,-25.8 25.8,-25.8h120.4c14.24895,0 25.8,11.55105 25.8,25.8v120.4c0,14.24895 -11.55105,25.8 -25.8,25.8z" fill="#000000"/><g fill="#ffffff"><path d="M68.8,54.46667c-0.98327,0 -1.94073,0.10195 -2.86667,0.29115v26.29831c-1.01405,0.36154 -1.98701,0.80376 -2.86667,1.39414v-26.77422c-3.569,1.56233 -6.3429,4.54967 -7.68737,8.23047l4.8207,3.37617v17.60312l-5.73333,-4.01445v22.32864c0,5.8738 3.5432,10.91089 8.6,13.12396v-12.44089c2.05184,1.37709 4.51569,2.18359 7.16667,2.18359c2.65098,0 5.11483,-0.8065 7.16667,-2.18359v13.65026h25.8c1.0578,0 2.08196,-0.12927 3.07383,-0.34714l-24.97136,-17.50234c1.13552,-1.92012 1.83086,-4.12978 1.83086,-6.51719c0,-3.03956 -1.10082,-5.79915 -2.86667,-8.00651v-3.81289l36.67878,25.71042c0.34687,-1.23553 0.58789,-2.51322 0.58789,-3.85768v-14.40612c-18.64193,-0.7396 -33.58761,-15.68528 -34.32721,-34.32721h-5.80612v27.98359c-0.87965,-0.59038 -1.85262,-1.0326 -2.86667,-1.39414v-26.58945zM94.67279,54.46667c0.71667,12.30947 10.55108,22.14101 22.86055,22.86055v-8.52721c0,-7.91487 -6.41847,-14.33333 -14.33333,-14.33333zM70.23333,83.13333c2.81217,0 5.34495,1.16516 7.16667,3.02904c0.44218,0.45222 0.84092,0.94412 1.19258,1.47252c0.35166,0.52841 0.65364,1.09314 0.90143,1.68529c0.24779,0.59215 0.44053,1.20982 0.57109,1.85326c0.1301,0.64481 0.20156,1.31007 0.20156,1.99323c0,0.68227 -0.071,1.3498 -0.20156,1.99323c-0.13057,0.64343 -0.32331,1.26111 -0.57109,1.85326c-0.24779,0.59214 -0.54978,1.15688 -0.90143,1.68529c-0.35166,0.52841 -0.7504,1.02031 -1.19258,1.47252c-1.82172,1.86388 -4.3545,3.02904 -7.16667,3.02904c-2.81062,0 -5.34516,-1.16137 -7.16667,-3.02344c-0.05191,-0.05317 -0.08923,-0.11927 -0.13997,-0.17357c-0.3815,-0.40819 -0.74223,-0.83783 -1.0526,-1.30456c-0.35166,-0.52881 -0.65365,-1.09296 -0.90143,-1.68529c-0.24779,-0.59232 -0.44053,-1.20978 -0.57109,-1.85326c-0.13057,-0.64347 -0.20156,-1.31096 -0.20156,-1.99323c0,-0.68316 0.07146,-1.34842 0.20156,-1.99323c0.13057,-0.64343 0.32331,-1.26111 0.57109,-1.85326c0.24779,-0.59214 0.54977,-1.15688 0.90143,-1.68529c0.35166,-0.52841 0.75039,-1.02031 1.19258,-1.47252c1.82172,-1.86388 4.3545,-3.02904 7.16667,-3.02904zM70.30612,86.62148c-0.27412,-0.00143 -0.54901,0.15641 -0.65508,0.47031l-3.67852,10.89558c-0.24367,0.731 0.66484,1.28946 1.20378,0.73906l3.13542,-3.2082l2.96745,3.13542c0.53033,0.559 1.45577,0.0116 1.21497,-0.72227l-3.53854,-10.83398c-0.10177,-0.3139 -0.37535,-0.47448 -0.64948,-0.47591z"/></g></g></svg>