<svg xmlns="http://www.w3.org/2000/svg" xmlns:xlink="http://www.w3.org/1999/xlink" version="1.1" viewBox="0 0 172 172"><g fill="none" fill-rule="nonzero" stroke="none" stroke-width="1" stroke-linecap="butt" stroke-linejoin="miter" stroke-miterlimit="10" stroke-dasharray="" stroke-dashoffset="0" font-family="none" font-weight="none" font-size="none" text-anchor="none" style="mix-blend-mode: normal"><path d="M0,172v-172h172v172z" fill="none"/><path d="M25.8,172c-14.24895,0 -25.8,-11.55105 -25.8,-25.8v-120.4c0,-14.24895 11.55105,-25.8 25.8,-25.8h120.4c14.24895,0 25.8,11.55105 25.8,25.8v120.4c0,14.24895 -11.55105,25.8 -25.8,25.8z" fill="#000000"/><g fill="#ffffff"><path d="M118.25,42.93859l-46.58333,16.57292c-1.97363,0.65788 -3.58333,2.84147 -3.58333,4.8151v42.32813c-1.6237,-0.26595 -3.45736,-0.23795 -5.375,0.22396c-6.92871,1.69368 -12.54167,7.95052 -12.54167,13.88542c0,5.9349 5.61295,9.30827 12.54167,7.61458c6.84473,-1.66569 12.40169,-7.68457 12.54167,-13.54948c0,-0.06999 0,-0.15397 0,-0.22396v-41.99219l39.41667,-14.10937v37.40104c-1.6237,-0.26595 -3.45736,-0.23795 -5.375,0.22396c-6.92871,1.69368 -12.54167,7.95052 -12.54167,13.88542c0,5.9349 5.61295,9.30827 12.54167,7.61458c6.92871,-1.69368 12.54167,-7.83854 12.54167,-13.77344v-57.33333c0,-1.97363 -1.6097,-3.58333 -3.58333,-3.58333z"/></g></g></svg>