<svg xmlns="http://www.w3.org/2000/svg" xmlns:xlink="http://www.w3.org/1999/xlink" version="1.1" viewBox="0 0 172 172"><g fill="none" fill-rule="nonzero" stroke="none" stroke-width="1" stroke-linecap="butt" stroke-linejoin="miter" stroke-miterlimit="10" stroke-dasharray="" stroke-dashoffset="0" font-family="none" font-weight="none" font-size="none" text-anchor="none" style="mix-blend-mode: normal"><path d="M0,172v-172h172v172z" fill="none"/><path d="M25.8,172c-14.24895,0 -25.8,-11.55105 -25.8,-25.8v-120.4c0,-14.24895 11.55105,-25.8 25.8,-25.8h120.4c14.24895,0 25.8,11.55105 25.8,25.8v120.4c0,14.24895 -11.55105,25.8 -25.8,25.8z" fill="#000000"/><g fill="#ffffff"><path d="M86,44.72c-6.13422,0 -11.29422,4.05813 -13.06125,9.62125c-1.99547,-1.04812 -4.1925,-1.55875 -6.39625,-1.55875c-3.52734,0 -7.04797,1.35047 -9.72875,4.03125c-4.35375,4.35375 -5.19359,10.93141 -2.4725,16.125c-5.56312,1.76703 -9.62125,6.92703 -9.62125,13.06125c0,6.14094 4.05141,11.35469 9.62125,13.115c-2.69422,5.18687 -1.86781,11.73094 2.4725,16.07125c4.34031,4.34031 10.88438,5.16672 16.07125,2.4725c1.76031,5.56984 6.97406,9.62125 13.115,9.62125c6.14094,0 11.35469,-4.05141 13.115,-9.62125c5.18687,2.69422 11.73094,1.86781 16.07125,-2.4725c4.35375,-4.35375 5.19359,-10.93141 2.4725,-16.125c5.56313,-1.76703 9.62125,-6.92703 9.62125,-13.06125c0,-6.13422 -4.05813,-11.29422 -9.62125,-13.06125c0.00672,-0.01344 -0.00672,-0.04031 0,-0.05375c2.69422,-5.18687 1.86781,-11.73094 -2.4725,-16.07125c-2.68078,-2.68078 -6.20141,-4.03125 -9.72875,-4.03125c-2.19031,0 -4.36047,0.52406 -6.3425,1.55875c0,-0.00672 -0.05375,0.00672 -0.05375,0c-1.76703,-5.56312 -6.92703,-9.62125 -13.06125,-9.62125zM86,48.16c5.02562,0 9.16438,3.54078 10.105,8.2775c-0.12766,0.12094 -0.24859,0.24859 -0.37625,0.37625l-7.31,7.31c-0.97422,0.97422 -1.80063,2.06937 -2.41875,3.225c-0.61812,-1.15563 -1.44453,-2.25078 -2.41875,-3.225l-7.31,-7.31c-0.12766,-0.12766 -0.24859,-0.25531 -0.37625,-0.37625c0.94062,-4.73672 5.07938,-8.2775 10.105,-8.2775zM66.5425,56.2225c1.97531,0 3.9775,0.5375 5.6975,1.66625c-0.00672,0.19484 0,0.38969 0,0.59125v10.32c0,1.42437 0.24188,2.795 0.645,4.085c-1.29,-0.40312 -2.66062,-0.645 -4.085,-0.645h-10.32c-0.20156,0 -0.39641,-0.00672 -0.59125,0c-2.65391,-4.01781 -2.19703,-9.46672 1.34375,-13.0075c2.02234,-2.02234 4.66953,-3.01 7.31,-3.01zM105.4575,56.2225c2.64047,0 5.28766,0.98766 7.31,3.01c3.54078,3.54078 3.99766,8.98969 1.34375,13.0075c-0.19484,-0.00672 -0.38969,0 -0.59125,0h-10.32c-1.42437,0 -2.795,0.24188 -4.085,0.645c0.40312,-1.29 0.645,-2.66062 0.645,-4.085v-10.32c0,-0.20156 0.00672,-0.39641 0,-0.59125c1.72,-1.12875 3.72219,-1.66625 5.6975,-1.66625zM75.68,61.06l5.4825,5.4825c3.28547,3.28547 3.88344,8.20359 1.8275,12.09375c-4.23281,-1.28328 -7.31,-5.17344 -7.31,-9.83625zM96.32,61.06v7.74c0,4.66281 -3.07719,8.55297 -7.31,9.83625c-2.05594,-3.90359 -1.45797,-8.80828 1.8275,-12.09375zM61.06,75.68h7.74c4.66281,0 8.55297,3.07719 9.83625,7.31c-3.90359,2.05594 -8.80828,1.45797 -12.09375,-1.8275zM103.2,75.68h7.74l-5.4825,5.4825c-3.28547,3.28547 -8.20359,3.88344 -12.09375,1.8275c1.28328,-4.23281 5.17344,-7.31 9.83625,-7.31zM56.38375,75.895c0.02016,-0.00672 0.03359,0.00672 0.05375,0c0.12094,0.12766 0.24859,0.24859 0.37625,0.37625l7.31,7.31c0.97422,0.97422 2.06937,1.80063 3.225,2.41875c-1.15563,0.62484 -2.25078,1.44453 -3.225,2.41875l-7.31,7.31c-0.12766,0.12766 -0.25531,0.24859 -0.37625,0.37625c-4.73672,-0.94062 -8.2775,-5.07937 -8.2775,-10.105c0,-5.00547 3.51391,-9.14422 8.22375,-10.105zM115.5625,75.895c4.73672,0.94062 8.2775,5.07938 8.2775,10.105c0,5.02562 -3.54078,9.16438 -8.2775,10.105c-0.12094,-0.12766 -0.24859,-0.24859 -0.37625,-0.37625l-7.31,-7.31c-0.97422,-0.97422 -2.06938,-1.79391 -3.225,-2.41875c1.15562,-0.61812 2.25078,-1.44453 3.225,-2.41875l7.31,-7.31c0.12766,-0.12766 0.25531,-0.24859 0.37625,-0.37625zM84.6025,82.50625c0.46359,0.04703 0.92047,0.05375 1.3975,0.05375c0.47703,0 0.93391,-0.00672 1.3975,-0.05375c0.30906,0.38297 0.66516,0.71891 1.02125,1.075c0.35609,0.35609 0.69203,0.71219 1.075,1.02125c-0.04703,0.46359 -0.05375,0.92047 -0.05375,1.3975c0,0.47703 0.00672,0.93391 0.05375,1.3975c-0.38297,0.30906 -0.71891,0.66516 -1.075,1.02125c-0.35609,0.35609 -0.71219,0.69203 -1.02125,1.075c-0.46359,-0.04703 -0.92047,-0.05375 -1.3975,-0.05375c-0.47703,0 -0.93391,0.00672 -1.3975,0.05375c-0.30906,-0.38297 -0.66516,-0.71891 -1.02125,-1.075c-0.35609,-0.35609 -0.69203,-0.71219 -1.075,-1.02125c0.04703,-0.46359 0.05375,-0.92047 0.05375,-1.3975c0,-0.47703 -0.00672,-0.93391 -0.05375,-1.3975c0.38297,-0.30906 0.71891,-0.66516 1.075,-1.02125c0.35609,-0.35609 0.71219,-0.69203 1.02125,-1.075zM73.8525,87.8275c1.64609,0 3.29891,0.39641 4.78375,1.1825c-1.28328,4.23281 -5.17344,7.31 -9.83625,7.31h-7.74l5.4825,-5.4825c2.02234,-2.02234 4.66953,-3.01 7.31,-3.01zM98.1475,87.8275c2.64047,0 5.28766,0.98766 7.31,3.01l5.4825,5.4825h-7.74c-4.66281,0 -8.55297,-3.07719 -9.83625,-7.31c1.505,-0.78609 3.13766,-1.1825 4.78375,-1.1825zM82.93625,93.36375c0.01344,-0.00672 0.04031,0.00672 0.05375,0c2.05594,3.90359 1.45797,8.80828 -1.8275,12.09375l-5.4825,5.4825v-7.74c0,-4.64937 3.05031,-8.53281 7.25625,-9.83625zM89.01,93.36375c4.23281,1.28328 7.31,5.17344 7.31,9.83625v7.74l-5.4825,-5.4825c-3.28547,-3.28547 -3.88344,-8.20359 -1.8275,-12.09375zM72.885,99.115c-0.40312,1.29 -0.645,2.66062 -0.645,4.085v10.32c0,0.20156 -0.00672,0.39641 0,0.59125c-4.01781,2.65391 -9.46672,2.19703 -13.0075,-1.34375c-3.54078,-3.54078 -3.99766,-8.98969 -1.34375,-13.0075c0.19484,0.00672 0.38969,0 0.59125,0h10.32c1.42437,0 2.795,-0.24187 4.085,-0.645zM99.115,99.115c1.29,0.40312 2.66062,0.645 4.085,0.645h10.32c0.20156,0 0.39641,0.00672 0.59125,0c2.65391,4.01781 2.19703,9.46672 -1.34375,13.0075c-3.54078,3.54078 -8.98969,3.99766 -13.0075,1.34375c0.00672,-0.19484 0,-0.38969 0,-0.59125v-10.32c0,-1.42437 -0.24187,-2.795 -0.645,-4.085zM86,104.65125c0.61812,1.15562 1.44453,2.25078 2.41875,3.225l7.31,7.31c0.12766,0.12766 0.24859,0.25531 0.37625,0.37625c-0.94062,4.73672 -5.07937,8.2775 -10.105,8.2775c-5.02562,0 -9.16438,-3.54078 -10.105,-8.2775c0.12766,-0.12094 0.24859,-0.24859 0.37625,-0.37625l7.31,-7.31c0.97422,-0.97422 1.80063,-2.06938 2.41875,-3.225z"/></g></g></svg>