<svg xmlns="http://www.w3.org/2000/svg" xmlns:xlink="http://www.w3.org/1999/xlink" version="1.1" viewBox="0 0 172 172"><g fill="none" fill-rule="nonzero" stroke="none" stroke-width="1" stroke-linecap="butt" stroke-linejoin="miter" stroke-miterlimit="10" stroke-dasharray="" stroke-dashoffset="0" font-family="none" font-weight="none" font-size="none" text-anchor="none" style="mix-blend-mode: normal"><path d="M0,172v-172h172v172z" fill="none"/><path d="M25.8,172c-14.24895,0 -25.8,-11.55105 -25.8,-25.8v-120.4c0,-14.24895 11.55105,-25.8 25.8,-25.8h120.4c14.24895,0 25.8,11.55105 25.8,25.8v120.4c0,14.24895 -11.55105,25.8 -25.8,25.8z" fill="#000000"/><g fill="#ffffff"><path d="M92.21131,49.95063c-3.26943,0 -7.09084,2.5658 -7.66708,14.02397c0.48526,-0.01213 0.96445,-0.04853 1.45578,-0.04853c0.54592,0 1.11003,0.03033 1.64988,0.04853c0.37001,-6.88461 2.00776,-10.91832 4.56143,-10.91832c1.09183,0 1.71054,0.59444 2.86303,1.84398c1.34659,1.46184 3.10565,3.36042 6.55099,4.07617c-0.05459,-0.4064 -0.09705,-0.84314 -0.09705,-1.26167c0,-0.6551 0.06672,-1.2738 0.1941,-1.89251c-2.13514,-0.58231 -3.26336,-1.81365 -4.36733,-3.0086c-1.23134,-1.33446 -2.64466,-2.86303 -5.14374,-2.86303zM110.84524,51.50346c-3.42714,0 -6.21131,2.79024 -6.21131,6.21131c0,3.42107 2.78417,6.21131 6.21131,6.21131c3.42714,0 6.21131,-2.79024 6.21131,-6.21131c0,-3.42107 -2.78417,-6.21131 -6.21131,-6.21131zM86,67.03173c-18.84016,0 -34.1622,9.59599 -34.1622,23.29241c0,13.69642 15.32204,24.84524 34.1622,24.84524c18.84016,0 34.1622,-11.14881 34.1622,-24.84524c0,-13.69642 -15.32204,-23.29241 -34.1622,-23.29241zM58.82552,68.4875c-2.26858,0 -4.42192,0.92806 -6.06573,2.57187c-2.67499,2.67499 -3.22697,6.52066 -1.6984,9.70517c2.34744,-4.54323 6.38721,-8.41924 11.59768,-11.30652c-1.18282,-0.60051 -2.49302,-0.97052 -3.83354,-0.97052zM113.17448,68.4875c-1.34053,0 -2.65072,0.37001 -3.83354,0.97052c5.21046,2.88729 9.25024,6.76329 11.59768,11.30652c1.52856,-3.18451 0.97658,-7.03018 -1.6984,-9.70517c-1.64381,-1.64381 -3.79715,-2.57187 -6.06573,-2.57187zM73.57738,81.00717c2.57187,0 4.65848,2.08661 4.65848,4.65848c0,2.57187 -2.08661,4.65848 -4.65848,4.65848c-2.57187,0 -4.65848,-2.08661 -4.65848,-4.65848c0,-2.57187 2.08661,-4.65848 4.65848,-4.65848zM98.42262,81.00717c2.57187,0 4.65848,2.08661 4.65848,4.65848c0,2.57187 -2.08661,4.65848 -4.65848,4.65848c-2.57187,0 -4.65848,-2.08661 -4.65848,-4.65848c0,-2.57187 2.08661,-4.65848 4.65848,-4.65848zM72.12161,98.08827c0.38821,0.06672 0.77035,0.28509 1.01904,0.63084c0.16378,0.2305 3.80321,5.09521 12.85935,5.09521c9.17745,0 12.82296,-4.99816 12.85935,-5.04669c0.49132,-0.69756 1.48004,-0.8856 2.18366,-0.38821c0.69756,0.49132 0.831,1.43151 0.33968,2.13514c-0.18197,0.26083 -4.60996,6.40541 -15.38269,6.40541c-10.7788,0 -15.20072,-6.14459 -15.38269,-6.40541c-0.49132,-0.70362 -0.36394,-1.64381 0.33968,-2.13514c0.35181,-0.24869 0.77641,-0.35788 1.16462,-0.29116z"/></g></g></svg>