<svg xmlns="http://www.w3.org/2000/svg" xmlns:xlink="http://www.w3.org/1999/xlink" version="1.1" viewBox="0 0 172 172"><g fill="none" fill-rule="nonzero" stroke="none" stroke-width="1" stroke-linecap="butt" stroke-linejoin="miter" stroke-miterlimit="10" stroke-dasharray="" stroke-dashoffset="0" font-family="none" font-weight="none" font-size="none" text-anchor="none" style="mix-blend-mode: normal"><path d="M0,172v-172h172v172z" fill="none"/><path d="M25.8,172c-14.24895,0 -25.8,-11.55105 -25.8,-25.8v-120.4c0,-14.24895 11.55105,-25.8 25.8,-25.8h120.4c14.24895,0 25.8,11.55105 25.8,25.8v120.4c0,14.24895 -11.55105,25.8 -25.8,25.8z" fill="#000000"/><g fill="#ffffff"><path d="M83.34399,44.49072c-21.48425,0 -38.96875,17.4845 -38.96875,38.96875c0,21.48425 17.4845,38.96875 38.96875,38.96875c21.48425,0 38.96875,-17.4845 38.96875,-38.96875c0,-21.48425 -17.4845,-38.96875 -38.96875,-38.96875zM83.34399,47.17822c20.00403,0 36.28125,16.27722 36.28125,36.28125c0,20.00403 -16.27722,36.28125 -36.28125,36.28125c-20.00403,0 -36.28125,-16.27722 -36.28125,-36.28125c0,-20.00403 16.27722,-36.28125 36.28125,-36.28125zM83.34399,52.56897c-17.03308,0 -30.8905,13.85742 -30.8905,30.8905c0,6.20959 1.84241,12.19873 5.32776,17.32703c0.26245,0.38318 0.68762,0.59314 1.11279,0.59314c0.26245,0 0.5249,-0.07874 0.75586,-0.23621c0.61414,-0.41992 0.77161,-1.25452 0.35693,-1.86865c-3.18091,-4.67688 -4.86584,-10.14636 -4.86584,-15.81531c0,-15.55286 12.65015,-28.203 28.203,-28.203c2.7085,0 5.3855,0.38318 7.96277,1.14429c0.70862,0.21521 1.45923,-0.19946 1.66394,-0.91333c0.20996,-0.70862 -0.19421,-1.45923 -0.90808,-1.66394c-2.82397,-0.8346 -5.75293,-1.25452 -8.71863,-1.25452zM96.52429,55.6344c-0.5249,-0.03149 -1.03931,0.2467 -1.28601,0.74536c-0.33069,0.66663 -0.05774,1.46973 0.60364,1.80042c1.06555,0.53015 2.09436,1.12329 3.06543,1.77417c0.23096,0.14697 0.48816,0.22571 0.74536,0.22571c0.43567,0 0.86084,-0.21521 1.12329,-0.60364c0.40942,-0.61938 0.24146,-1.44873 -0.37793,-1.8634c-1.06555,-0.70862 -2.19409,-1.36475 -3.35937,-1.93689c-0.16272,-0.08398 -0.34119,-0.12598 -0.5144,-0.14172zM83.32825,57.92822c-0.74536,0 -1.34375,0.59839 -1.34375,1.34375v2.6875c0,0.74536 0.59839,1.34375 1.34375,1.34375c0.74536,0 1.34375,-0.59839 1.34375,-1.34375v-2.6875c0,-0.74536 -0.59839,-1.34375 -1.34375,-1.34375zM74.28418,59.68665c-0.17322,0 -0.34643,0.03149 -0.51965,0.09973c-0.68762,0.2782 -1.01831,1.0603 -0.74536,1.74792l1.00781,2.49329c0.20996,0.5249 0.71387,0.83984 1.24402,0.83984c0.16797,0 0.34119,-0.03149 0.50391,-0.09973c0.69287,-0.27295 1.02356,-1.05505 0.74536,-1.74792l-1.00781,-2.49329c-0.20996,-0.5144 -0.70337,-0.82935 -1.22827,-0.83984zM92.78174,59.84937c-0.5249,0 -1.02356,0.30969 -1.24402,0.81885l-1.0498,2.47754c-0.2887,0.68237 0.03149,1.46973 0.71387,1.76367c0.17322,0.06824 0.35168,0.10498 0.5249,0.10498c0.5249,0 1.02356,-0.30969 1.23877,-0.81885l1.0498,-2.47754c0.2887,-0.68237 -0.02624,-1.46973 -0.71387,-1.76367c-0.16797,-0.06824 -0.34643,-0.09973 -0.51965,-0.10498zM105.3269,60.26929c-0.29919,-0.03149 -0.60364,0.03149 -0.87134,0.20471l-25.13232,16.15649c-1.12329,0.72437 -2.09961,1.70068 -2.82397,2.82922l-16.15649,25.12708c-0.34119,0.53015 -0.2677,1.22827 0.18372,1.67969c0.2572,0.2572 0.59839,0.38843 0.94482,0.38843c0.25195,0 0.50915,-0.06824 0.72961,-0.21521l25.13232,-16.15124c0.5564,-0.36218 1.0813,-0.7821 1.55896,-1.25452c0,-0.00525 0,-0.00525 0.00525,-0.00525c0.00525,-0.00525 0,-0.00525 0.00525,-0.0105c0.47241,-0.47241 0.89233,-0.99731 1.25452,-1.55896l16.15649,-25.12708c0.34119,-0.53015 0.2677,-1.22827 -0.18372,-1.67969c-0.22046,-0.22046 -0.50391,-0.35168 -0.8031,-0.38318zM66.22168,65.0144c-0.34119,0 -0.68237,0.13123 -0.95007,0.39368c-0.5249,0.51965 -0.5249,1.36999 0,1.8949l1.9054,1.9054c0.2572,0.2572 0.60364,0.38843 0.95007,0.38843c0.34119,0 0.68762,-0.13123 0.94482,-0.38843c0.53015,-0.5249 0.53015,-1.37524 0,-1.9054l-1.8949,-1.8949c-0.26245,-0.26245 -0.60889,-0.39368 -0.95532,-0.39368zM107.64172,65.72302c-0.16797,0.03149 -0.33594,0.09973 -0.49341,0.20471c-0.61414,0.41467 -0.77686,1.24927 -0.36743,1.8634c3.11792,4.64539 4.76611,10.06238 4.76611,15.66834c0,15.55286 -12.65015,28.203 -28.203,28.203c-5.67419,0 -11.14893,-1.68494 -15.83105,-4.87109c-0.60889,-0.41992 -1.44873,-0.26245 -1.8634,0.35168c-0.41992,0.61414 -0.26245,1.44873 0.35168,1.8634c5.1283,3.49585 11.12793,5.34876 17.34277,5.34876c17.03308,-0.00525 30.8905,-13.86267 30.8905,-30.89575c0,-6.14136 -1.80566,-12.078 -5.22278,-17.16431c-0.30969,-0.46191 -0.85034,-0.67187 -1.36999,-0.57214zM100.71301,66.07996l-12.81287,19.93054c-0.01575,0.021 -0.04199,0.04199 -0.05774,0.06299l-7.13342,-7.13342c0.02625,-0.01575 0.04724,-0.03149 0.07349,-0.04724zM61.06714,72.66223c-0.5249,0 -1.02356,0.30969 -1.23877,0.81885c-0.29395,0.68762 0.02624,1.47498 0.70862,1.76367l2.47229,1.0498c0.17322,0.07349 0.35168,0.10498 0.5249,0.10498c0.5249,0 1.02356,-0.30444 1.23877,-0.81885c0.2887,-0.68237 -0.02624,-1.46973 -0.71387,-1.75842l-2.47229,-1.0498c-0.16797,-0.07349 -0.34644,-0.10498 -0.51965,-0.11023zM105.77307,73.05591c-0.17322,-0.00525 -0.35168,0.02624 -0.5249,0.09973l-2.48804,1.00781c-0.68762,0.27295 -1.01831,1.05505 -0.74536,1.74792c0.21521,0.51965 0.71912,0.83984 1.24927,0.83984c0.16797,0 0.33594,-0.03149 0.49866,-0.09973l2.49329,-1.00781c0.68762,-0.2782 1.01831,-1.0603 0.74011,-1.74792c-0.20471,-0.5144 -0.69812,-0.82935 -1.22302,-0.83984zM78.81409,80.84546l7.13342,7.12817c-0.02624,0.01575 -0.04724,0.04199 -0.07349,0.05249l-19.93054,12.81287l12.81287,-19.93054c0.01575,-0.02624 0.04199,-0.04199 0.05774,-0.06299zM59.14075,82.11572c-0.74536,0 -1.34375,0.59839 -1.34375,1.34375c0,0.74536 0.59839,1.34375 1.34375,1.34375h2.6875c0.74536,0 1.34375,-0.60364 1.34375,-1.34375c0,-0.74536 -0.59839,-1.34375 -1.34375,-1.34375zM104.82825,82.11572c-0.74536,0 -1.34375,0.59839 -1.34375,1.34375c0,0.74536 0.59839,1.34375 1.34375,1.34375h2.6875c0.74536,0 1.34375,-0.60364 1.34375,-1.34375c0,-0.74536 -0.59839,-1.34375 -1.34375,-1.34375zM63.4187,90.16773c-0.17847,0 -0.35693,0.03149 -0.53015,0.09973l-2.48804,1.00781c-0.69287,0.2782 -1.01831,1.0603 -0.74011,1.74792c0.20996,0.5249 0.70862,0.83984 1.24402,0.83984c0.16797,0 0.33594,-0.03149 0.50391,-0.09973l2.48804,-1.00781c0.68762,-0.27295 1.01831,-1.05505 0.74536,-1.74792c-0.20996,-0.5144 -0.70337,-0.82935 -1.22302,-0.83984zM103.12232,90.51941c-0.5249,-0.00525 -1.02356,0.30444 -1.23877,0.81885c-0.29395,0.68237 0.02624,1.46973 0.71387,1.76367l2.46704,1.0498c0.17322,0.06824 0.35168,0.10498 0.5249,0.10498c0.5249,0 1.02356,-0.30969 1.23877,-0.81885c0.29395,-0.68762 -0.02624,-1.47498 -0.70862,-1.76367l-2.47229,-1.0498c-0.17322,-0.07349 -0.35168,-0.10498 -0.5249,-0.10498zM98.52942,97.32214c-0.34643,0 -0.68762,0.12598 -0.95007,0.38843c-0.5249,0.5249 -0.5249,1.37524 0,1.90015l1.90015,1.90015c0.26245,0.26245 0.60364,0.39368 0.95007,0.39368c0.34643,0 0.68762,-0.13123 0.95007,-0.39368c0.5249,-0.5249 0.5249,-1.37524 0,-1.90015l-1.90015,-1.90015c-0.26245,-0.26245 -0.60364,-0.38843 -0.95007,-0.38843zM74.92981,101.90454c-0.5249,0 -1.02356,0.30969 -1.23877,0.81885l-1.0498,2.47754c-0.2887,0.68237 0.02624,1.47498 0.71387,1.76367c0.16797,0.07349 0.34644,0.10498 0.5249,0.10498c0.51965,0 1.01831,-0.30969 1.23877,-0.81885l1.0498,-2.47754c0.2887,-0.68237 -0.03149,-1.46973 -0.71387,-1.76367c-0.17322,-0.06824 -0.35168,-0.09973 -0.5249,-0.10498zM91.40125,102.05151c-0.17322,-0.00525 -0.35168,0.02624 -0.51965,0.09973c-0.69287,0.27295 -1.02356,1.05505 -0.74536,1.74792l1.00781,2.48804c0.20996,0.5249 0.71387,0.84509 1.24402,0.84509c0.16797,0 0.34119,-0.03149 0.50391,-0.09973c0.68762,-0.2782 1.01831,-1.0603 0.74536,-1.74792l-1.00781,-2.49329c-0.20996,-0.5144 -0.70337,-0.8346 -1.22827,-0.83984zM83.32825,103.61572c-0.74536,0 -1.34375,0.59839 -1.34375,1.34375v2.6875c0,0.74536 0.59839,1.34375 1.34375,1.34375c0.74536,0 1.34375,-0.59839 1.34375,-1.34375v-2.6875c0,-0.74536 -0.59839,-1.34375 -1.34375,-1.34375z"/></g></g></svg>