<svg xmlns="http://www.w3.org/2000/svg" xmlns:xlink="http://www.w3.org/1999/xlink" version="1.1" viewBox="0 0 172 172"><g fill="none" fill-rule="nonzero" stroke="none" stroke-width="1" stroke-linecap="butt" stroke-linejoin="miter" stroke-miterlimit="10" stroke-dasharray="" stroke-dashoffset="0" font-family="none" font-weight="none" font-size="none" text-anchor="none" style="mix-blend-mode: normal"><path d="M0,172v-172h172v172z" fill="none"/><path d="M25.8,172c-14.24895,0 -25.8,-11.55105 -25.8,-25.8v-120.4c0,-14.24895 11.55105,-25.8 25.8,-25.8h120.4c14.24895,0 25.8,11.55105 25.8,25.8v120.4c0,14.24895 -11.55105,25.8 -25.8,25.8z" fill="#000000"/><g fill="#ffffff"><path d="M86,46.30227c-21.90401,0 -39.69773,17.79373 -39.69773,39.69773c0,21.90401 17.79373,39.69773 39.69773,39.69773c21.90401,0 39.69773,-17.79373 39.69773,-39.69773c0,-21.90401 -17.79373,-39.69773 -39.69773,-39.69773zM86,49.74227c20.04489,0 36.25773,16.21284 36.25773,36.25773c0,20.04489 -16.21284,36.25773 -36.25773,36.25773c-20.04489,0 -36.25773,-16.21284 -36.25773,-36.25773c0,-0.6264 0.01574,-1.24927 0.04703,-1.86781c0.96992,-19.17476 16.79221,-34.38992 36.2107,-34.38992zM86,53.32c-18.02044,0 -32.68,14.65956 -32.68,32.68c0,18.02044 14.65956,32.68 32.68,32.68c18.02044,0 32.68,-14.65956 32.68,-32.68c0,-18.02044 -14.65956,-32.68 -32.68,-32.68zM86,58.48c0.95116,0 1.72,0.76884 1.72,1.72v1.72c0,0.95116 -0.76884,1.72 -1.72,1.72c-0.95116,0 -1.72,-0.76884 -1.72,-1.72v-1.72c0,-0.95116 0.76884,-1.72 1.72,-1.72zM95.86648,60.44523c0.22336,-0.00177 0.45008,0.04072 0.66852,0.13102c0.8772,0.36292 1.29347,1.3685 0.93055,2.24742l-0.65844,1.58898c-0.27348,0.6622 -0.91302,1.06156 -1.58898,1.06156c-0.22016,0 -0.44344,-0.04158 -0.65844,-0.13102c-0.8772,-0.36464 -1.29347,-1.37022 -0.93055,-2.24742l0.65844,-1.58898c0.27219,-0.6579 0.90883,-1.05624 1.57891,-1.06156zM76.11672,60.45195c0.66991,0.00363 1.30543,0.40366 1.57891,1.06156l0.6618,1.58562c0.36636,0.8772 -0.04999,1.88278 -0.92719,2.24742c-0.215,0.09116 -0.44164,0.13437 -0.6618,0.13437c-0.67424,0 -1.31214,-0.39936 -1.58562,-1.06156l-0.6618,-1.58563c-0.36636,-0.8772 0.04999,-1.88278 0.92719,-2.24742c0.21887,-0.09159 0.44521,-0.13558 0.66852,-0.13438zM106.64,65.36l-15.48,25.8l-25.8,15.48l15.48,-25.8zM67.73844,66.05203c0.44032,0 0.88319,0.16601 1.21945,0.50055l1.21609,1.2161c0.67252,0.67252 0.67416,1.76131 0.00336,2.43555c-0.3354,0.3354 -0.77913,0.50391 -1.21945,0.50391c-0.44032,0 -0.88069,-0.17023 -1.21609,-0.50391l-1.2161,-1.21609c-0.67252,-0.6708 -0.67416,-1.75795 -0.00336,-2.43219c0.33626,-0.33626 0.77578,-0.5039 1.21609,-0.5039zM109.81461,74.33625c0.67048,0.00266 1.3075,0.4003 1.58227,1.0582c0.36636,0.8772 -0.04663,1.88442 -0.92383,2.25078l-1.58898,0.66516c-0.21672,0.09116 -0.43992,0.13102 -0.6618,0.13102c-0.67252,0 -1.31378,-0.39436 -1.58898,-1.05484c-0.36636,-0.87892 0.04663,-1.88442 0.92383,-2.25078l1.58563,-0.66516c0.21887,-0.09159 0.44838,-0.13526 0.67188,-0.13438zM62.15516,74.41016c0.22328,-0.00164 0.45051,0.04072 0.66852,0.13102l1.58898,0.65844c0.8772,0.36292 1.29347,1.37022 0.93055,2.24742c-0.27348,0.6622 -0.91474,1.06156 -1.58898,1.06156c-0.22016,0 -0.44344,-0.04158 -0.65844,-0.13102l-1.58898,-0.65844c-0.8772,-0.36292 -1.29347,-1.37022 -0.93055,-2.24742c0.27219,-0.65919 0.90907,-1.05664 1.57891,-1.06156zM86,82.56c-1.76728,-0.00016 -3.24716,1.33885 -3.4232,3.09734c-0.01129,0.11387 -0.0169,0.22823 -0.0168,0.34266c0,1.89986 1.54014,3.44 3.44,3.44c1.89986,0 3.44,-1.54014 3.44,-3.44c0,-1.89986 -1.54014,-3.44 -3.44,-3.44zM60.2,84.28h1.72c0.95116,0 1.72,0.76884 1.72,1.72c0,0.95116 -0.76884,1.72 -1.72,1.72h-1.72c-0.95116,0 -1.72,-0.76884 -1.72,-1.72c0,-0.95116 0.76884,-1.72 1.72,-1.72zM110.08,84.28h1.72c0.95116,0 1.72,0.76884 1.72,1.72c0,0.95116 -0.76884,1.72 -1.72,1.72h-1.72c-0.95116,0 -1.72,-0.76884 -1.72,-1.72c0,-0.95116 0.76884,-1.72 1.72,-1.72zM108.2357,93.49141c0.22344,-0.00164 0.44965,0.04072 0.66852,0.13102l1.58898,0.65844c0.8772,0.36292 1.29347,1.37022 0.93055,2.24742c-0.27348,0.6622 -0.91474,1.06156 -1.58898,1.06156c-0.22016,0 -0.44344,-0.04158 -0.65844,-0.13102l-1.58898,-0.65844c-0.8772,-0.36292 -1.29347,-1.37022 -0.93055,-2.24742c0.27219,-0.65919 0.90859,-1.05664 1.5789,-1.06156zM63.78445,93.55859c0.67024,0.0029 1.3075,0.39695 1.58227,1.05484c0.36636,0.8772 -0.04663,1.88442 -0.92383,2.25078l-1.58562,0.66516c-0.21672,0.09116 -0.44328,0.13102 -0.66516,0.13102c-0.67252,0 -1.31378,-0.39436 -1.58898,-1.05484c-0.36636,-0.8772 0.04663,-1.88442 0.92383,-2.25078l1.58898,-0.66516c0.21844,-0.09116 0.44511,-0.13198 0.66852,-0.13102zM103.04211,101.29187c0.44032,0 0.87983,0.16937 1.21609,0.50391l1.2161,1.21609c0.67252,0.6708 0.67416,1.75795 0.00336,2.43219c-0.3354,0.3354 -0.77913,0.5039 -1.21945,0.5039c-0.44032,0 -0.88069,-0.16687 -1.21609,-0.50055l-1.21609,-1.2161c-0.67252,-0.67252 -0.67416,-1.76131 -0.00336,-2.43555c0.33626,-0.33626 0.77913,-0.50391 1.21945,-0.50391zM95.24164,106.51906c0.67032,0.00363 1.30336,0.40366 1.57555,1.06156l0.6618,1.58563c0.36636,0.8772 -0.04999,1.88278 -0.92719,2.24742c-0.215,0.09116 -0.43828,0.13437 -0.65844,0.13437c-0.67424,0 -1.3155,-0.39936 -1.58898,-1.06156l-0.6618,-1.58563c-0.36636,-0.8772 0.04999,-1.88278 0.92719,-2.24742c0.21887,-0.09159 0.44844,-0.13558 0.67188,-0.13437zM76.7718,106.52578c0.22336,-0.00178 0.45008,0.04072 0.66852,0.13102c0.8772,0.36464 1.29347,1.37022 0.93055,2.24742l-0.65844,1.58898c-0.27348,0.6622 -0.91302,1.06156 -1.58899,1.06156c-0.22016,0 -0.44344,-0.04158 -0.65844,-0.13102c-0.8772,-0.36292 -1.29347,-1.3685 -0.93055,-2.24742l0.65844,-1.58898c0.27219,-0.6579 0.90883,-1.05624 1.57891,-1.06156zM86,108.36c0.95116,0 1.72,0.76884 1.72,1.72v1.72c0,0.95116 -0.76884,1.72 -1.72,1.72c-0.95116,0 -1.72,-0.76884 -1.72,-1.72v-1.72c0,-0.95116 0.76884,-1.72 1.72,-1.72z"/></g></g></svg>