<svg xmlns="http://www.w3.org/2000/svg" xmlns:xlink="http://www.w3.org/1999/xlink" version="1.1" viewBox="0 0 172 172"><g fill="none" fill-rule="nonzero" stroke="none" stroke-width="1" stroke-linecap="butt" stroke-linejoin="miter" stroke-miterlimit="10" stroke-dasharray="" stroke-dashoffset="0" font-family="none" font-weight="none" font-size="none" text-anchor="none" style="mix-blend-mode: normal"><path d="M0,172v-172h172v172z" fill="none"/><path d="M25.8,172c-14.24895,0 -25.8,-11.55105 -25.8,-25.8v-120.4c0,-14.24895 11.55105,-25.8 25.8,-25.8h120.4c14.24895,0 25.8,11.55105 25.8,25.8v120.4c0,14.24895 -11.55105,25.8 -25.8,25.8z" fill="#000000"/><g fill="#ffffff"><path d="M91.08825,48.18863c-1.02797,-0.08062 -2.0761,0.04703 -3.09062,0.38969c-4.28656,1.38406 -6.3761,6.03344 -5.02563,10.12515l1.92156,5.84531l-9.09047,3.31906l-1.84094,-5.59c-1.01453,-3.24515 -3.87,-5.26078 -6.9539,-5.48922c-1.02125,-0.07391 -2.06937,0.05375 -3.07719,0.38969c-4.3,1.38406 -6.38953,6.03344 -5.03906,10.13859l1.97531,6.00656l-5.73781,2.09625c-4.05141,1.4311 -6.18797,6.01328 -4.87781,10.16547c1.08172,3.42656 4.14547,5.57656 7.34359,5.57656c0.99437,0 1.84094,-0.24187 2.46578,-0.46359h0.01344l5.81844,-2.12984l2.795,8.48578l-6.64484,2.43219c-4.21266,1.40422 -6.18125,6.07375 -4.89125,10.17219c1.06156,3.3661 4.01781,5.58328 7.33016,5.58328c0.92047,0 1.64609,-0.24187 2.33812,-0.42328l0.0739,-0.01344l6.82625,-2.46578l1.98203,5.99312v0.02016c1.14891,3.23844 4.1925,5.48922 7.525,5.48922c1.00109,0 1.86781,-0.23516 2.51281,-0.45016c4.13203,-1.39078 6.38953,-5.97297 5.0189,-10.13188l-2.08281,-6.32234l9.09719,-3.28547l2.00891,6.08047v0.01344c1.14891,3.23844 4.1925,5.48922 7.525,5.48922c1.00109,0 1.86781,-0.23516 2.51281,-0.45016c4.13203,-1.3975 6.38953,-5.97969 5.0189,-10.13188l-2.10969,-6.40297l4.27984,-1.54531l0.02688,-0.01344c3.95734,-1.62594 6.10062,-6.19469 4.59562,-10.36031c-1.00109,-3.09063 -3.72219,-5.19359 -6.72547,-5.46234c-1.00781,-0.08734 -2.0425,0.03359 -3.05703,0.38969l-0.00672,0.00672l-4.20594,1.53859l-2.78156,-8.46563l5.08609,-1.85438c4.21266,-1.40422 6.18797,-6.06031 4.89797,-10.15875c-0.9675,-3.23844 -3.75578,-5.29437 -6.7725,-5.52281c-1.00781,-0.08062 -2.03578,0.04031 -3.03688,0.38969l-0.00672,0.00672l-5.19359,1.89469l-1.78719,-5.42203c-1.01453,-3.24516 -3.87,-5.26078 -6.9539,-5.4825zM90.85981,51.58832c1.74016,0.10078 3.30562,1.19594 3.89687,3.10406l0.00672,0.01344l1.83422,5.56984l-8.46563,3.09062l-1.89469,-5.73781c-0.79281,-2.41203 0.33594,-4.99203 2.82187,-5.78484h0.02016l0.00672,-0.00672c0.59125,-0.20156 1.18922,-0.27547 1.77375,-0.24859zM107.84481,60.19504c1.63938,0.08734 3.12422,1.17578 3.70875,3.12422v0.02687c0.77938,2.45906 -0.34938,5.08609 -2.70094,5.87219l-0.02016,0.00672l-5.05922,1.84766l-2.86891,-8.7075l5.2675,-1.92156c0.55766,-0.20156 1.12203,-0.27547 1.67297,-0.24859zM66.77981,60.20176c1.74016,0.09406 3.30563,1.19594 3.89687,3.10406l0.00672,0.01344l1.88797,5.73109l-8.46562,3.09063l-1.94844,-5.90578c-0.79281,-2.41203 0.33594,-4.98531 2.82188,-5.78485h0.02016l0.00672,-0.00672c0.59125,-0.20156 1.18922,-0.27547 1.77375,-0.24188zM97.67263,63.54098l2.8689,8.7075l-8.46562,3.09735l-2.8689,-8.71422zM85.97528,67.8141l2.86891,8.7075l-9.09047,3.32578l-2.86891,-8.7075zM73.65309,72.32238l2.86219,8.7075l-8.46562,3.09062l-2.86219,-8.7075zM101.61653,75.52051l2.78828,8.46562l-8.46562,3.09063l-2.78828,-8.46563zM61.94903,76.59551l2.86891,8.7075l-5.89906,2.15c-0.40312,0.14781 -0.93391,0.26875 -1.3236,0.26875c-1.63938,0 -3.41313,-1.12875 -4.05813,-3.17125c-0.75922,-2.41203 0.56437,-5.11969 2.73453,-5.88563zM89.91919,79.79363l2.78828,8.46563l-9.09047,3.3325l-2.78828,-8.47234zM77.59028,84.2952l2.795,8.47906l-8.46562,3.09734l-2.795,-8.47906zM114.64419,84.2952c1.63266,0.14781 3.15781,1.30344 3.72891,3.11078l0.00672,0.04703l0.01344,0.03359c0.88015,2.3986 -0.41656,5.09281 -2.65391,6.02h-0.00672l-4.07828,1.47141l-2.94281,-8.90906l4.28656,-1.56547c0.5375,-0.18812 1.09516,-0.25531 1.64609,-0.20828zM105.47981,87.25145l2.93609,8.90234l-8.47906,3.06375l-2.92266,-8.86875zM93.78919,91.53129l2.90922,8.84859l-9.09719,3.28547l-2.9025,-8.80156zM81.46028,96.04629l2.89578,8.79484l-8.47234,3.05703l-2.88906,-8.75453zM109.49091,99.4191l2.08281,6.30891c0.77266,2.35828 -0.55094,5.01891 -2.84875,5.79828c-0.43,0.14109 -0.99437,0.26875 -1.41766,0.26875c-1.67297,0 -3.62813,-1.36391 -4.27312,-3.19141l-2.02234,-6.1275zM69.76294,100.32613l2.88234,8.74109l-6.7389,2.43219c-0.67187,0.17469 -1.31016,0.30234 -1.42437,0.30234c-1.8611,0 -3.38625,-1.06156 -4.05141,-3.17125h0.00672c-0.77937,-2.46578 0.34938,-5.09953 2.69422,-5.87891l0.02016,-0.00672zM85.43778,108.10645l2.05594,6.235c0.77266,2.35156 -0.55094,5.01219 -2.84875,5.79156c-0.43,0.14109 -0.99438,0.26875 -1.41766,0.26875c-1.67297,0 -3.62812,-1.37062 -4.27313,-3.19141l-0.00672,-0.00672l-1.98875,-6.04016z"/></g></g></svg>