<svg xmlns="http://www.w3.org/2000/svg" xmlns:xlink="http://www.w3.org/1999/xlink" version="1.1" viewBox="0 0 172 172"><g fill="none" fill-rule="nonzero" stroke="none" stroke-width="1" stroke-linecap="butt" stroke-linejoin="miter" stroke-miterlimit="10" stroke-dasharray="" stroke-dashoffset="0" font-family="none" font-weight="none" font-size="none" text-anchor="none" style="mix-blend-mode: normal"><path d="M0,172v-172h172v172z" fill="none"/><path d="M25.8,172c-14.24895,0 -25.8,-11.55105 -25.8,-25.8v-120.4c0,-14.24895 11.55105,-25.8 25.8,-25.8h120.4c14.24895,0 25.8,11.55105 25.8,25.8v120.4c0,14.24895 -11.55105,25.8 -25.8,25.8z" fill="#000000"/><g fill="#ffffff"><path d="M85.29425,51.06601c-1.58791,0 -4.95906,0.24575 -8.62007,1.86516c-3.66101,1.61941 -7.61818,4.70701 -10.08196,10.23319c-1.85886,4.16511 -1.31065,10.22689 -1.0082,15.07253c0.0252,0.35917 0.03151,0.66793 0.05041,1.0082c-0.15123,0.06931 -0.0189,0.10082 -0.5041,0.10082c-0.73094,0 -1.70763,-0.23945 -2.92377,-0.80656c-0.48519,-0.22684 -1.0019,-0.30246 -1.51229,-0.30246c-0.92628,0 -1.83366,0.27725 -2.62131,0.75615c-0.78765,0.47889 -1.5438,1.22244 -1.76434,2.36926c-0.13233,0.70574 0.0189,1.76434 0.70574,2.62131c0.68683,0.85697 1.75174,1.5564 3.42787,2.21803c0.36547,0.14493 0.73724,0.28355 1.10902,0.40328c0.75615,0.23945 1.64462,0.4978 2.31885,0.85697c0.67423,0.35917 1.07121,0.78135 1.20984,1.10902c0.15123,0.35287 0.19534,0.90108 -0.30246,1.91557c-0.0189,0.03151 -0.03781,0.06931 -0.05041,0.10082c-0.0063,0.0252 -0.03151,0.04411 -0.05041,0.10082c-0.20164,0.45369 -4.6188,10.08196 -13.81228,11.59425c-1.18463,0.19534 -2.02899,1.22874 -1.96598,2.41967c0.0189,0.34657 0.13233,0.71834 0.25205,1.0082c0.44739,1.0523 1.40517,1.82736 2.97418,2.52049c1.44928,0.64273 3.70512,1.20984 6.7045,1.71393c0.07561,0.20794 0.17643,0.59862 0.30246,1.15943c0,0.0126 -0.0063,0.03781 0,0.05041c0.11342,0.523 0.22054,1.09641 0.40328,1.71393c0.18274,0.63012 0.64903,1.24764 1.20984,1.5627c0.56081,0.31506 1.09011,0.35287 1.41147,0.35287c0.66793,0 1.22244,-0.13863 1.81475,-0.25205c0.97669,-0.18904 2.15502,-0.40328 3.67991,-0.40328c0.84436,0 1.72654,0.05671 2.62131,0.20164c1.5312,0.25205 3.03719,1.24764 4.83934,2.52049c2.60871,1.84626 5.74042,4.08319 10.43483,4.08319c0.08192,0 0.17013,-0.04411 0.25205,-0.05041c0.08192,0.0063 0.17013,0 0.25205,0c0.13233,0.0063 0.27095,0.05041 0.40328,0.05041c4.69441,0 7.81982,-2.23693 10.43483,-4.08319c1.79585,-1.27285 3.30814,-2.26844 4.83934,-2.52049c0.89477,-0.14493 1.77695,-0.20164 2.62131,-0.20164c1.47449,0 2.64021,0.18904 3.73032,0.40328c0.69314,0.13863 1.22244,0.20164 1.76434,0.20164h0.10082c0.4978,0 1.07121,-0.13863 1.5627,-0.5041c0.4915,-0.36547 0.81916,-0.88847 0.95779,-1.36106c0.18274,-0.61752 0.28355,-1.20984 0.40328,-1.76434c0.13233,-0.61752 0.23314,-0.95149 0.30246,-1.15943c2.99938,-0.5041 5.25522,-1.07121 6.7045,-1.71393c1.569,-0.69313 2.52679,-1.47449 2.97418,-2.52049c0.13233,-0.30246 0.23314,-0.66163 0.25205,-1.0082c0.06301,-1.18463 -0.78765,-2.22433 -1.96598,-2.41967c-4.6377,-0.76245 -8.04036,-3.55389 -10.33401,-6.25081c-2.28104,-2.68432 -3.41526,-5.24892 -3.47828,-5.39385c0,-0.0189 0,-0.03151 0,-0.05041c-0.0126,-0.03151 -0.03151,-0.06931 -0.05041,-0.10082c-0.5041,-1.0145 -0.5041,-1.5564 -0.35287,-1.91557c0.13863,-0.32766 0.5356,-0.74985 1.20984,-1.10902c0.67423,-0.35917 1.5564,-0.61752 2.31885,-0.85697c0.37807,-0.11972 0.75615,-0.26465 1.10902,-0.40328c1.46818,-0.57971 2.47638,-1.18463 3.17582,-1.91557c0.69944,-0.73094 1.0208,-1.63832 1.0082,-2.41967c-0.03151,-1.65092 -1.26024,-2.74733 -2.67172,-3.27664l-0.05041,-0.05041c-0.0126,-0.0063 -0.03781,0.0063 -0.05041,0c-0.57971,-0.23314 -1.19093,-0.35287 -1.81475,-0.35287c-0.42218,0 -1.0082,0.0189 -1.71393,0.35287c-1.09641,0.5167 -2.01639,0.76875 -2.72213,0.80656c-0.04411,0 -0.0063,0 -0.05041,0c-0.04411,0 -0.0126,0.0063 -0.05041,0c-0.20794,-0.0252 -0.14493,-0.06301 -0.25205,-0.10082c0.0189,-0.27725 0.03151,-0.523 0.05041,-0.80656v-0.20164c0.30876,-4.84564 0.85067,-10.90112 -1.0082,-15.07253c-2.46378,-5.52617 -6.41465,-8.66418 -10.08196,-10.2836c-3.66731,-1.61941 -7.02587,-1.81475 -8.62007,-1.81475h-0.15123c-0.0189,0 -0.03151,0 -0.05041,0zM85.29425,54.29224h1.41147c1.29175,0 4.22182,0.20164 7.30942,1.5627c3.0876,1.36106 6.33903,3.83745 8.46885,8.62007c1.20984,2.70953 1.0145,8.72089 0.70574,13.56023v0.20164c-0.04411,0.67423 -0.11972,1.32956 -0.15123,1.96598c-0.0126,0.45369 0.17013,0.89477 0.5041,1.20984c0.25205,0.25835 1.31065,1.09011 3.075,1.15943c0.0189,0 0.03151,0 0.05041,0c0.0189,0 0.03151,0 0.05041,0c1.30435,-0.05041 2.67172,-0.44739 4.08319,-1.10902c0.03781,-0.0189 0.21424,-0.05041 0.35287,-0.05041c0.20164,0 0.46629,0.05041 0.60492,0.10082c0.0126,0.0063 0.03781,-0.0063 0.05041,0c0.03151,0.0189 0.06931,0.03781 0.10082,0.05041c0.37807,0.13233 0.55451,0.28355 0.60492,0.35287c0.0126,0.0126 -0.0063,0.04411 0,0.05041c-0.0189,0.03151 -0.03781,0.03151 -0.10082,0.10082c-0.23314,0.24575 -0.87587,0.68683 -2.0668,1.15943c-0.19534,0.07561 -0.49149,0.18904 -0.85697,0.30246c-0.76245,0.23945 -1.84626,0.56711 -2.87336,1.10902c-1.0271,0.54191 -2.11091,1.34216 -2.67172,2.67172c-0.59862,1.40517 -0.34657,2.94897 0.35287,4.43606c0.0063,0.0252 -0.0063,0.03151 0,0.05041c0.0252,0.06931 0.05041,0.10712 0.05041,0.10082c0.14493,0.33396 1.36737,3.18212 3.98237,6.25081c2.35036,2.75994 5.92315,5.61439 10.68688,6.85573c-0.20164,0.13233 -0.06301,0.12602 -0.45369,0.30246c-1.15943,0.5104 -3.15061,1.05861 -6.40204,1.5627c-0.91998,0.13863 -1.60681,1.0082 -1.86516,1.61311c-0.25835,0.60492 -0.39068,1.20353 -0.55451,1.96598c-0.07561,0.35287 -0.17013,0.67423 -0.25205,1.0082c-0.22054,-0.0189 -0.40328,-0.0189 -0.80656,-0.10082c-1.17203,-0.22684 -2.5898,-0.45369 -4.33524,-0.45369c-1.0334,0 -2.0668,0.07561 -3.12541,0.25205c-2.47638,0.41588 -4.40456,1.80215 -6.2004,3.075c-2.62131,1.84626 -4.85194,3.47828 -8.56966,3.47828c-0.15123,0 -0.30246,0.0063 -0.45369,0c-0.06931,-0.0063 -0.13233,-0.0063 -0.20164,0c-0.06301,0.0063 -0.17643,0 -0.25205,0c-3.71772,0 -5.96096,-1.63202 -8.56966,-3.47828c-1.80215,-1.27285 -3.72402,-2.66542 -6.2004,-3.075c-1.05861,-0.17643 -2.09201,-0.25205 -3.12541,-0.25205c-1.85886,0 -3.35855,0.26465 -4.33524,0.45369c-0.39068,0.07561 -0.5356,0.11972 -0.75615,0.15123c-0.08822,-0.35287 -0.22054,-0.68683 -0.30246,-1.05861c-0.15123,-0.69313 -0.25205,-1.30435 -0.5041,-1.91557c-0.12602,-0.30246 -0.30246,-0.63642 -0.60492,-0.95779c-0.30246,-0.32136 -0.74985,-0.57971 -1.26024,-0.65533c-3.24513,-0.5041 -5.29303,-1.10271 -6.45245,-1.61311c-0.40328,-0.17643 -0.25205,-0.16383 -0.45369,-0.30246c10.05045,-2.5961 14.4235,-12.53944 14.66925,-13.10655c0.0189,-0.03781 0.03151,-0.06301 0.05041,-0.10082c0.0063,-0.0189 -0.0063,-0.0252 0,-0.05041c0.69944,-1.48709 0.95149,-3.03089 0.35287,-4.43606c-0.56711,-1.32956 -1.64462,-2.12981 -2.67172,-2.67172c-1.0271,-0.5419 -2.0605,-0.86957 -2.82295,-1.10902c-0.37177,-0.11972 -0.71834,-0.22684 -0.90738,-0.30246c-1.35476,-0.5356 -1.94708,-1.046 -2.11721,-1.26024c0,0.03151 -0.03781,-0.10712 0.20164,-0.25205c0.26465,-0.15753 0.73094,-0.25205 0.95779,-0.25205c0.12602,0 0.11972,0.0063 0.10082,0c1.51229,0.70574 2.94897,1.10902 4.33524,1.10902c1.91557,0 3.0624,-0.83176 3.37746,-1.15943c0.31506,-0.32136 0.47889,-0.76245 0.45369,-1.20984c-0.03781,-0.70574 -0.10712,-1.42408 -0.15123,-2.16762c-0.30246,-4.84564 -0.5041,-10.85071 0.70574,-13.56023c2.12981,-4.77633 5.33714,-7.25901 8.41844,-8.62007c3.0813,-1.36106 6.06808,-1.5627 7.35983,-1.5627z"/></g></g></svg>