<svg xmlns="http://www.w3.org/2000/svg" xmlns:xlink="http://www.w3.org/1999/xlink" version="1.1" viewBox="0 0 172 172"><g fill="none" fill-rule="nonzero" stroke="none" stroke-width="1" stroke-linecap="butt" stroke-linejoin="miter" stroke-miterlimit="10" stroke-dasharray="" stroke-dashoffset="0" font-family="none" font-weight="none" font-size="none" text-anchor="none" style="mix-blend-mode: normal"><path d="M0,172v-172h172v172z" fill="none"/><path d="M25.8,172c-14.24895,0 -25.8,-11.55105 -25.8,-25.8v-120.4c0,-14.24895 11.55105,-25.8 25.8,-25.8h120.4c14.24895,0 25.8,11.55105 25.8,25.8v120.4c0,14.24895 -11.55105,25.8 -25.8,25.8z" fill="#000000"/><g fill="#ffffff"><path d="M68.83044,56.4375c-6.8118,0 -12.39294,5.58115 -12.39294,12.39294v34.33911c0,6.8118 5.58115,12.39294 12.39294,12.39294h34.33911c6.8118,0 12.39294,-5.58115 12.39294,-12.39294v-34.33911c0,-6.8118 -5.58115,-12.39294 -12.39294,-12.39294zM68.83044,61.8125h34.33911c3.90595,0 7.01794,3.11199 7.01794,7.01794v34.33911c0,3.90595 -3.11199,7.01794 -7.01794,7.01794h-34.33911c-3.90595,0 -7.01794,-3.11199 -7.01794,-7.01794v-34.33911c0,-3.90595 3.11199,-7.01794 7.01794,-7.01794zM88.6875,67.1875v26.875c0,3.00104 -2.37396,5.375 -5.375,5.375c-3.00104,0 -5.375,-2.37396 -5.375,-5.375c0,-3.00104 2.37396,-5.375 5.375,-5.375v-5.375c-5.90534,0 -10.75,4.84466 -10.75,10.75c0,5.90534 4.84466,10.75 10.75,10.75c5.90534,0 10.75,-4.84466 10.75,-10.75v-16.42419c2.2248,1.72294 4.86243,2.94399 7.86829,2.98669l0.07874,-5.375c-4.42434,-0.06286 -7.94702,-3.61675 -7.94702,-8.0625z"/></g></g></svg>