<svg xmlns="http://www.w3.org/2000/svg" xmlns:xlink="http://www.w3.org/1999/xlink" version="1.1" viewBox="0 0 172 172"><g fill="none" fill-rule="nonzero" stroke="none" stroke-width="1" stroke-linecap="butt" stroke-linejoin="miter" stroke-miterlimit="10" stroke-dasharray="" stroke-dashoffset="0" font-family="none" font-weight="none" font-size="none" text-anchor="none" style="mix-blend-mode: normal"><path d="M0,172v-172h172v172z" fill="none"/><path d="M25.8,172c-14.24895,0 -25.8,-11.55105 -25.8,-25.8v-120.4c0,-14.24895 11.55105,-25.8 25.8,-25.8h120.4c14.24895,0 25.8,11.55105 25.8,25.8v120.4c0,14.24895 -11.55105,25.8 -25.8,25.8z" fill="#000000"/><g fill="#ffffff"><path d="M89.50739,56.21343c-11.7822,0 -23.79913,7.7781 -26.15557,19.5603c-1.41386,7.06932 0.47405,13.6646 -5.41705,13.6646c-2.59208,0 -4.24528,3.06613 -2.59577,5.18693c3.29902,4.47724 7.77902,7.06748 12.25625,8.71699l1.44976,0.57991c-0.16915,1.65681 0.37089,3.30781 1.48645,4.5444c1.11556,1.23659 2.70241,1.94322 4.36783,1.94502c2.79571,-0.00467 5.2031,-1.97366 5.76223,-4.71288h9.31991h0.35899c0.55949,2.74092 2.9694,4.71039 5.76684,4.71288c1.89366,-0.00035 3.6717,-0.91099 4.77866,-2.44741c1.10695,-1.53642 1.40785,-3.51131 0.80868,-5.30768c9.87274,-5.01989 15.35828,-15.01317 13.49891,-25.70454c-1.41386,-12.01785 -13.19699,-20.73852 -25.68612,-20.73852zM89.50739,60.92631c10.60398,0 20.03251,7.30681 21.68202,17.20386c1.41386,8.48319 -3.06522,16.72797 -11.31276,20.73392l-1.06776,0.42803c-0.83472,-0.43341 -1.76109,-0.66066 -2.70162,-0.66275c-1.85265,0.00145 -3.59669,0.87432 -4.70828,2.35644c-0.00163,0 -0.00297,0 -0.0046,0h-0.9435h-9.89521c-0.28832,0 -0.65871,-0.03749 -0.98952,-0.05063c-1.11326,-1.45147 -2.83762,-2.30345 -4.66686,-2.30582c-1.14501,0.00224 -2.26454,0.3381 -3.2217,0.96651c-0.0247,-0.00814 -0.05381,-0.01487 -0.07824,-0.02301l-2.12172,-0.70877c-3.29902,-1.17822 -6.12583,-2.82589 -8.48227,-5.18233c5.65546,-1.64951 6.12951,-8.24662 6.36515,-12.01693c0.23564,-1.64951 0.2338,-3.3027 0.46945,-4.95221c2.1208,-9.89705 12.4873,-15.78631 21.67742,-15.78631zM81.96862,72.70852c-1.95214,0 -3.53466,1.58252 -3.53466,3.53466c0,1.95214 1.58252,3.53466 3.53466,3.53466c1.95214,0 3.53466,-1.58252 3.53466,-3.53466c0,-1.95214 -1.58252,-3.53466 -3.53466,-3.53466zM96.10726,72.70852c-1.95214,0 -3.53466,1.58252 -3.53466,3.53466c0,1.95214 1.58252,3.53466 3.53466,3.53466c1.95214,0 3.53466,-1.58252 3.53466,-3.53466c0,-1.95214 -1.58252,-3.53466 -3.53466,-3.53466zM79.86071,82.08365c-0.14728,-0.02209 -0.30652,-0.00829 -0.48325,0.05063c-0.70693,0.23564 -1.17914,0.70601 -0.9435,1.41294c1.17822,5.41981 6.36239,8.01282 10.60398,8.01282c4.24159,0 9.42576,-2.59301 10.60398,-8.01282c0,-0.70693 -0.23657,-1.1773 -0.9435,-1.41294c-0.70693,0 -1.1773,0.23657 -1.41294,0.9435c-0.94258,4.24159 -4.94853,6.12582 -8.24754,6.12582c-3.29902,0 -7.30497,-1.88423 -8.24754,-6.12582c-0.17673,-0.5302 -0.48786,-0.92785 -0.92969,-0.99412z"/></g></g></svg>