<svg xmlns="http://www.w3.org/2000/svg" xmlns:xlink="http://www.w3.org/1999/xlink" version="1.1" viewBox="0 0 172 172"><g fill="none" fill-rule="nonzero" stroke="none" stroke-width="1" stroke-linecap="butt" stroke-linejoin="miter" stroke-miterlimit="10" stroke-dasharray="" stroke-dashoffset="0" font-family="none" font-weight="none" font-size="none" text-anchor="none" style="mix-blend-mode: normal"><path d="M0,172v-172h172v172z" fill="none"/><path d="M25.8,172c-14.24895,0 -25.8,-11.55105 -25.8,-25.8v-120.4c0,-14.24895 11.55105,-25.8 25.8,-25.8h120.4c14.24895,0 25.8,11.55105 25.8,25.8v120.4c0,14.24895 -11.55105,25.8 -25.8,25.8z" fill="#000000"/><g fill="#ffffff"><path d="M76.83301,56.77155c-0.04774,0.00868 -0.09547,0.0217 -0.13887,0.03472c-0.51641,0.11717 -0.88093,0.5815 -0.86791,1.11092v5.55462c-0.00434,0.39924 0.20396,0.77244 0.55112,0.9764c0.34716,0.19962 0.77244,0.19962 1.1196,0c0.34716,-0.20396 0.55546,-0.57716 0.55112,-0.9764v-5.55462c0.01302,-0.32113 -0.11717,-0.62923 -0.34716,-0.84621c-0.23433,-0.22132 -0.55112,-0.32981 -0.86791,-0.29943zM64.26569,61.979c-0.04774,0.00868 -0.09547,0.0217 -0.13887,0.03472c-0.4166,0.07377 -0.75074,0.37754 -0.86791,0.78112c-0.11717,0.40792 0.00434,0.84187 0.31245,1.12828l3.92295,3.92295c0.44263,0.44263 1.15432,0.44263 1.59695,0c0.44263,-0.44263 0.44263,-1.15432 0,-1.59695l-3.92295,-3.92295c-0.23,-0.24735 -0.56414,-0.3732 -0.90263,-0.34716zM89.40034,61.979c-0.04774,0.00868 -0.09547,0.0217 -0.13887,0.03472c-0.21264,0.04774 -0.40358,0.15622 -0.55546,0.31245l-3.92295,3.92295c-0.44263,0.44263 -0.44263,1.15432 0,1.59695c0.44263,0.44263 1.15432,0.44263 1.59695,0l3.92295,-3.92295c0.38188,-0.32113 0.50339,-0.86357 0.29075,-1.31488c-0.21264,-0.45565 -0.69867,-0.71169 -1.19338,-0.62923zM76.83301,66.80457c-0.03472,0.00868 -0.06943,0.0217 -0.10415,0.03472c-0.06943,0.00434 -0.13887,0.01736 -0.2083,0.03472c-0.01302,0.01302 -0.0217,0.0217 -0.03472,0.03472c-4.66935,0.25169 -8.43608,4.05747 -8.43608,8.78324c0,3.29372 1.79657,6.17517 4.47841,7.70703c0.34282,0.25169 0.79848,0.28641 1.17602,0.09113c0.37754,-0.19962 0.60754,-0.59452 0.59452,-1.01979c-0.01302,-0.42962 -0.26905,-0.80716 -0.65961,-0.98074c-2.00921,-1.14998 -3.36749,-3.31541 -3.36749,-5.79763c0,-3.65824 2.94655,-6.62649 6.59611,-6.66554c0.0217,0 0.04774,0 0.06943,0c0.03472,0 0.06943,0 0.10415,0c1.60997,0.02604 3.05938,0.62056 4.20068,1.59695c0.46867,0.40358 1.17602,0.34716 1.57959,-0.12151c0.40358,-0.46867 0.34716,-1.17602 -0.12151,-1.57959c-1.42337,-1.21507 -3.26334,-1.89204 -5.24217,-2.01355c-0.03472,-0.01302 -0.06943,-0.02604 -0.10415,-0.03472c-0.11283,-0.04339 -0.23,-0.06509 -0.34716,-0.06943c-0.0217,0 -0.04774,0 -0.06943,0c-0.03472,0 -0.06943,0 -0.10415,0zM90.26825,70.13734c-6.1231,0 -11.10924,4.98614 -11.10924,11.10924c0,0.45131 0.08245,0.88093 0.13887,1.31922c-3.80144,0.50339 -6.80441,3.6322 -6.80441,7.56817c0,4.28313 3.49333,7.77646 7.77646,7.77646h23.32939c5.50688,0 9.99831,-4.49143 9.99831,-9.99831c0,-5.50688 -4.49143,-9.99831 -9.99831,-9.99831c-0.97206,0 -1.85299,0.29509 -2.74259,0.55546c-1.25413,-4.76048 -5.44179,-8.33193 -10.58849,-8.33193zM90.26825,72.35919c4.46105,0 8.12797,3.26768 8.78324,7.53345l0.2083,1.42337l1.31922,-0.55546c0.92866,-0.3949 1.94412,-0.62489 3.02032,-0.62489c4.30917,0 7.77646,3.4673 7.77646,7.77646c0,4.30917 -3.4673,7.77646 -7.77646,7.77646h-23.32939c-3.08108,0 -5.55462,-2.47354 -5.55462,-5.55462c0,-3.08108 2.47354,-5.55462 5.55462,-5.55462c0.00434,0 0.06509,-0.00434 0.2083,0l1.45809,0.06943l-0.31245,-1.42337c-0.14754,-0.64659 -0.24301,-1.30186 -0.24301,-1.97883c0,-4.92104 3.96634,-8.88739 8.88739,-8.88739zM58.84994,74.58104c-0.61188,0.08679 -1.04149,0.65527 -0.9547,1.26715c0.08679,0.61188 0.65527,1.04149 1.26715,0.9547h5.55462c0.39924,0.00434 0.77244,-0.20396 0.9764,-0.55112c0.19962,-0.34716 0.19962,-0.77244 0,-1.1196c-0.20396,-0.34716 -0.57716,-0.55546 -0.9764,-0.55112h-5.55462c-0.03472,0 -0.06943,0 -0.10415,0c-0.03472,0 -0.06943,0 -0.10415,0c-0.03472,0 -0.06943,0 -0.10415,0zM68.18864,83.1907c-0.04774,0.00868 -0.09547,0.0217 -0.13887,0.03472c-0.21264,0.04774 -0.40358,0.15622 -0.55546,0.31245l-3.92295,3.92295c-0.44263,0.44263 -0.44263,1.15432 0,1.59695c0.44263,0.44263 1.15432,0.44263 1.59695,0l3.92295,-3.95767c0.34716,-0.32981 0.44697,-0.84621 0.24301,-1.28017c-0.2083,-0.43829 -0.66829,-0.68999 -1.14564,-0.62923z"/></g></g></svg>