<svg xmlns="http://www.w3.org/2000/svg" xmlns:xlink="http://www.w3.org/1999/xlink" version="1.1" viewBox="0 0 172 172"><g fill="none" fill-rule="nonzero" stroke="none" stroke-width="1" stroke-linecap="butt" stroke-linejoin="miter" stroke-miterlimit="10" stroke-dasharray="" stroke-dashoffset="0" font-family="none" font-weight="none" font-size="none" text-anchor="none" style="mix-blend-mode: normal"><path d="M0,172v-172h172v172z" fill="none"/><path d="M25.8,172c-14.24895,0 -25.8,-11.55105 -25.8,-25.8v-120.4c0,-14.24895 11.55105,-25.8 25.8,-25.8h120.4c14.24895,0 25.8,11.55105 25.8,25.8v120.4c0,14.24895 -11.55105,25.8 -25.8,25.8z" fill="#000000"/><g fill="#ffffff"><path d="M107.31103,74.20544c-0.44756,-2.47036 -2.58006,-4.26938 -5.05481,-4.83103c-3.70335,-0.78543 -10.55718,-1.34707 -17.97266,-1.34707c-7.41109,0 -14.37461,0.56165 -18.08235,1.34707c-2.47036,0.56165 -4.60725,2.24658 -5.05481,4.83103c-0.45195,2.80823 -0.89951,6.73975 -0.89951,11.79456c0,5.05481 0.44756,8.98633 1.00921,11.79456c0.45195,2.47036 2.58445,4.26938 5.05481,4.83103c3.93152,0.78543 10.67126,1.34707 18.08674,1.34707c7.41548,0 14.15522,-0.56165 18.08674,-1.34707c2.47036,-0.56165 4.60286,-2.24658 5.05481,-4.83103c0.44756,-2.80823 1.00921,-6.85383 1.12329,-11.79456c-0.22817,-5.05481 -0.78981,-8.98633 -1.35146,-11.79456zM78.21955,93.86304v-15.72607l13.70327,7.86304z"/></g></g></svg>