<svg xmlns="http://www.w3.org/2000/svg" xmlns:xlink="http://www.w3.org/1999/xlink" version="1.1" viewBox="0 0 172 172"><g fill="none" fill-rule="nonzero" stroke="none" stroke-width="1" stroke-linecap="butt" stroke-linejoin="miter" stroke-miterlimit="10" stroke-dasharray="" stroke-dashoffset="0" font-family="none" font-weight="none" font-size="none" text-anchor="none" style="mix-blend-mode: normal"><path d="M0,172v-172h172v172z" fill="none"/><path d="M25.8,172c-14.24895,0 -25.8,-11.55105 -25.8,-25.8v-120.4c0,-14.24895 11.55105,-25.8 25.8,-25.8h120.4c14.24895,0 25.8,11.55105 25.8,25.8v120.4c0,14.24895 -11.55105,25.8 -25.8,25.8z" fill="#000000"/><g fill="#ffffff"><path d="M86,44.72c-4.97187,0 -9.68172,1.00109 -13.2225,3.7625c-3.23172,2.51953 -5.30109,6.53734 -5.64375,11.87875c-3.93047,0.78609 -6.93375,4.28656 -6.93375,8.43875v6.88c-0.00672,0.07391 -0.00672,0.14109 0,0.215c-2.12313,2.17688 -3.44,5.13313 -3.44,8.385v10.32c0,1.31688 0.51734,2.52625 1.34375,3.44c-0.82641,0.91375 -1.34375,2.12313 -1.34375,3.44c0,1.31688 0.51734,2.52625 1.34375,3.44c-0.82641,0.91375 -1.34375,2.12313 -1.34375,3.44c0,2.82859 2.33141,5.16 5.16,5.16h5.16v6.5575c-0.04703,0.22844 -0.04703,0.47031 0,0.69875v3.06375c0,0.90031 0.31578,1.82078 0.9675,2.4725c0.65172,0.65172 1.57219,0.9675 2.4725,0.9675h30.96c0.90031,0 1.82078,-0.31578 2.4725,-0.9675c0.65172,-0.65172 0.9675,-1.57219 0.9675,-2.4725v-3.17125c0.04703,-0.22844 0.04703,-0.47031 0,-0.69875v-6.45h5.16c2.82859,0 5.16,-2.33141 5.16,-5.16c0,-1.31687 -0.51734,-2.52625 -1.34375,-3.44c0.82641,-0.91375 1.34375,-2.12313 1.34375,-3.44c0,-1.31687 -0.51734,-2.52625 -1.34375,-3.44c0.82641,-0.91375 1.34375,-2.12312 1.34375,-3.44v-10.32c0,-3.23844 -1.33703,-6.16109 -3.44,-8.33125c0.00672,-0.08734 0.00672,-0.18141 0,-0.26875v-6.88c0,-4.15219 -3.00328,-7.65266 -6.93375,-8.43875c-0.33594,-5.42203 -2.39859,-9.42641 -5.64375,-11.9325c-3.5475,-2.74125 -8.26406,-3.70875 -13.2225,-3.70875zM86,48.16c4.50156,0 8.385,0.93391 11.0725,3.01c2.55313,1.97531 4.25297,4.99875 4.4075,9.9975c-0.215,0.46359 -0.215,0.98766 0,1.45125c-0.14781,5.03234 -1.84094,8.06922 -4.4075,10.05125c-2.6875,2.07609 -6.57094,3.01 -11.0725,3.01c-4.48812,0 -8.37828,-0.9675 -11.0725,-3.06375c-2.63375,-2.05594 -4.34031,-5.19359 -4.4075,-10.37375c0.04703,-0.22844 0.04703,-0.47031 0,-0.69875c0.08063,-5.14656 1.78047,-8.27078 4.4075,-10.32c2.69422,-2.09625 6.58438,-3.06375 11.0725,-3.06375zM86,51.6c-2.54641,0 -5.34141,0.63828 -7.68625,1.98875c-2.34484,1.35047 -4.35375,3.62813 -4.35375,6.61125v3.44c0,2.82859 2.33141,5.16 5.16,5.16h13.76c2.82859,0 5.16,-2.33141 5.16,-5.16v-3.44c0,-2.92938 -2.01562,-5.19359 -4.35375,-6.5575c-2.33813,-1.36391 -5.11969,-2.0425 -7.68625,-2.0425zM86,55.04c1.90812,0 4.25969,0.61141 5.96625,1.6125c1.70656,1.00109 2.63375,2.17687 2.63375,3.5475v3.44c0,0.95406 -0.76594,1.72 -1.72,1.72h-13.76c-0.95406,0 -1.72,-0.76594 -1.72,-1.72v-3.44c0,-1.48484 0.94062,-2.62703 2.63375,-3.60125c1.69313,-0.97422 4.03797,-1.55875 5.96625,-1.55875zM67.1875,63.9625c0.28219,3.31234 1.24297,6.07375 2.74125,8.2775h-1.12875c-1.84766,0 -3.58781,0.43 -5.16,1.1825v-4.6225c0,-2.27094 1.505,-4.15219 3.5475,-4.8375zM104.8125,63.9625c2.0425,0.68531 3.5475,2.56656 3.5475,4.8375v4.6225c-1.57219,-0.7525 -3.31234,-1.1825 -5.16,-1.1825h-1.02125c1.45797,-2.19703 2.365,-4.96516 2.63375,-8.2775zM73.1,75.62625c3.50047,2.57328 8.08266,3.49375 12.9,3.49375c4.80391,0 9.39281,-0.88688 12.9,-3.44c0.1075,0.01344 0.215,0.01344 0.3225,0h3.9775c4.73672,0 8.6,3.86328 8.6,8.6v10.32c0,0.95406 -0.76594,1.72 -1.72,1.72h-5.16v-8.6c0.00672,-0.61812 -0.31578,-1.19594 -0.85328,-1.51172c-0.5375,-0.30906 -1.19594,-0.30906 -1.73344,0c-0.5375,0.31578 -0.86,0.89359 -0.85328,1.51172v9.9975c-0.04703,0.22844 -0.04703,0.47031 0,0.69875v6.18125c-0.04703,0.22844 -0.04703,0.47031 0,0.69875v6.18125c-0.04703,0.22844 -0.04703,0.47031 0,0.69875v4.89125c-1.70656,-0.93391 -4.05141,-1.8275 -6.88,-1.8275c-2.82859,0 -5.17344,0.89359 -6.88,1.8275v-8.7075c0.01344,-0.53078 -0.22172,-1.03469 -0.63156,-1.37063c-0.40313,-0.33594 -0.94735,-0.46359 -1.46469,-0.34937c-0.79953,0.18141 -1.36391,0.90031 -1.34375,1.72v8.7075c-1.70656,-0.93391 -4.05141,-1.8275 -6.88,-1.8275c-2.82859,0 -5.17344,0.89359 -6.88,1.8275v-4.945c0.04703,-0.22844 0.04703,-0.47031 0,-0.69875v-6.18125c0.04703,-0.22844 0.04703,-0.47031 0,-0.69875v-6.18125c0.04703,-0.22844 0.04703,-0.47031 0,-0.69875v-9.94375c0.01344,-0.53078 -0.22172,-1.03469 -0.63156,-1.37062c-0.40313,-0.33594 -0.94735,-0.46359 -1.46469,-0.34938c-0.79953,0.18141 -1.36391,0.90031 -1.34375,1.72v8.6h-5.16c-0.95406,0 -1.72,-0.76594 -1.72,-1.72v-10.32c0,-4.73672 3.86328,-8.6 8.6,-8.6h3.9775c0.1075,-0.00672 0.215,-0.02688 0.3225,-0.05375zM79.12,82.56c-0.90031,0 -1.82078,0.31578 -2.4725,0.9675c-0.65172,0.65172 -0.9675,1.57219 -0.9675,2.4725v10.32c0,0.90031 0.31578,1.82078 0.9675,2.4725c0.65172,0.65172 1.57219,0.9675 2.4725,0.9675h13.76c0.90031,0 1.82078,-0.31578 2.4725,-0.9675c0.65172,-0.65172 0.9675,-1.57219 0.9675,-2.4725v-10.32c0,-0.90031 -0.31578,-1.82078 -0.9675,-2.4725c-0.65172,-0.65172 -1.57219,-0.9675 -2.4725,-0.9675zM79.12,86h13.76v10.32h-13.76zM61.92,99.76h5.16v3.44h-5.0525c-0.03359,0 -0.07391,0 -0.1075,0c-0.95406,0 -1.72,-0.76594 -1.72,-1.72c0,-0.95406 0.76594,-1.72 1.72,-1.72zM104.92,99.76h5.16c0.95406,0 1.72,0.76594 1.72,1.72c0,0.95406 -0.76594,1.72 -1.72,1.72h-5.16zM61.92,106.64c0.05375,0 0.1075,0 0.16125,0h4.99875v3.44h-5.16c-0.95406,0 -1.72,-0.76594 -1.72,-1.72c0,-0.95406 0.76594,-1.72 1.72,-1.72zM104.92,106.64h5.16c0.95406,0 1.72,0.76594 1.72,1.72c0,0.95406 -0.76594,1.72 -1.72,1.72h-5.16zM77.4,118.68c3.41312,0 5.90578,1.72672 6.88,2.52625v2.63375h-13.76v-2.63375c0.97422,-0.79953 3.46688,-2.52625 6.88,-2.52625zM94.6,118.68c3.41313,0 5.90578,1.72672 6.88,2.52625v2.63375h-13.76v-2.63375c0.97422,-0.79953 3.46688,-2.52625 6.88,-2.52625z"/></g></g></svg>