<svg xmlns="http://www.w3.org/2000/svg" xmlns:xlink="http://www.w3.org/1999/xlink" version="1.1" viewBox="0 0 172 172"><g fill="none" fill-rule="nonzero" stroke="none" stroke-width="1" stroke-linecap="butt" stroke-linejoin="miter" stroke-miterlimit="10" stroke-dasharray="" stroke-dashoffset="0" font-family="none" font-weight="none" font-size="none" text-anchor="none" style="mix-blend-mode: normal"><path d="M0,172v-172h172v172z" fill="none"/><path d="M25.8,172c-14.24895,0 -25.8,-11.55105 -25.8,-25.8v-120.4c0,-14.24895 11.55105,-25.8 25.8,-25.8h120.4c14.24895,0 25.8,11.55105 25.8,25.8v120.4c0,14.24895 -11.55105,25.8 -25.8,25.8z" fill="#000000"/><g fill="#ffffff"><path d="M104.5038,67.83317c-4.4303,-3.56511 -11.43879,-4.16944 -11.73878,-4.19118c-0.4652,-0.03913 -0.90867,0.22173 -1.09997,0.65216c-0.01739,0.02609 -0.16956,0.37825 -0.33912,0.92606c2.93035,0.49564 6.53024,1.49126 9.78667,3.51294c0.52172,0.32173 0.68259,1.00867 0.36086,1.53039c-0.21304,0.34347 -0.5739,0.53042 -0.9478,0.53042c-0.19999,0 -0.40434,-0.05652 -0.58694,-0.16956c-5.59983,-3.47381 -12.59093,-3.64772 -13.93872,-3.64772c-1.34779,0 -8.34323,0.17391 -13.93872,3.64772c-0.52172,0.32608 -1.20866,0.16521 -1.53039,-0.35651c-0.32608,-0.52607 -0.16521,-1.20866 0.35651,-1.53474c3.25642,-2.01733 6.85632,-3.0173 9.78667,-3.50859c-0.16956,-0.55216 -0.32173,-0.89997 -0.33477,-0.93041c-0.19565,-0.43042 -0.63476,-0.69998 -1.10432,-0.65216c-0.29999,0.02174 -7.30848,0.62607 -11.79965,4.239c-2.34341,2.1695 -7.03457,14.84739 -7.03457,25.80793c0,0.19565 0.05217,0.3826 0.14782,0.55216c3.23469,5.68679 12.06486,7.1737 14.07784,7.23892c0.0087,0 0.02174,0 0.03478,0c0.35651,0 0.69128,-0.16956 0.89997,-0.45651l2.03472,-2.79992c-5.49114,-1.41735 -8.29541,-3.82597 -8.45627,-3.96945c-0.46086,-0.40434 -0.50433,-1.10866 -0.09565,-1.56952c0.40434,-0.46086 1.10866,-0.50433 1.56952,-0.1c0.06522,0.06087 5.23028,4.44335 15.3865,4.44335c10.17361,0 15.33867,-4.39987 15.39085,-4.44335c0.46086,-0.39999 1.16084,-0.36086 1.56952,0.10434c0.40434,0.46086 0.36086,1.16083 -0.1,1.56517c-0.16087,0.14347 -2.96513,2.5521 -8.45627,3.96945l2.03472,2.79992c0.20869,0.28695 0.54346,0.45651 0.89997,0.45651c0.01304,0 0.02609,0 0.03478,0c2.01298,-0.06522 10.84316,-1.55213 14.07784,-7.23892c0.09565,-0.16956 0.14782,-0.35651 0.14782,-0.55216c0,-10.96054 -4.69117,-23.63843 -7.09544,-25.85575zM78.76543,89.23689c-2.15211,0 -3.89554,-1.99124 -3.89554,-4.45204c0,-2.4608 1.74343,-4.45204 3.89554,-4.45204c2.15211,0 3.89554,1.99125 3.89554,4.45204c0,2.4608 -1.74343,4.45204 -3.89554,4.45204zM93.23457,89.23689c-2.15211,0 -3.89554,-1.99124 -3.89554,-4.45204c0,-2.4608 1.74343,-4.45204 3.89554,-4.45204c2.15211,0 3.89554,1.99125 3.89554,4.45204c0,2.4608 -1.74343,4.45204 -3.89554,4.45204z"/></g></g></svg>