<svg xmlns="http://www.w3.org/2000/svg" xmlns:xlink="http://www.w3.org/1999/xlink" version="1.1" viewBox="0 0 172 172"><g fill="none" fill-rule="nonzero" stroke="none" stroke-width="1" stroke-linecap="butt" stroke-linejoin="miter" stroke-miterlimit="10" stroke-dasharray="" stroke-dashoffset="0" font-family="none" font-weight="none" font-size="none" text-anchor="none" style="mix-blend-mode: normal"><path d="M0,172v-172h172v172z" fill="none"/><path d="M25.8,172c-14.24895,0 -25.8,-11.55105 -25.8,-25.8v-120.4c0,-14.24895 11.55105,-25.8 25.8,-25.8h120.4c14.24895,0 25.8,11.55105 25.8,25.8v120.4c0,14.24895 -11.55105,25.8 -25.8,25.8z" fill="#000000"/><g fill="#ffffff"><path d="M86,77.4c-3.84073,0 -5.43158,2.46352 -5.43158,5.43158c0,0.99941 0.47856,2.00384 0.47856,2.00384c-0.19192,0.11105 -0.51108,0.46397 -0.43141,1.08679c0.14846,1.16115 0.65256,1.45398 0.97363,1.47812c0.12191,1.0839 1.28825,2.47178 1.69501,2.67336v1.61957c-0.90526,2.71579 -8.14737,2.30323 -8.14737,8.64008h21.72632c0,-6.33684 -7.24211,-5.92429 -8.14737,-8.64008v-1.61957c0.40797,-0.20157 1.5731,-1.58945 1.69501,-2.67336c0.32107,-0.02414 0.82517,-0.31697 0.97363,-1.47812c0.07966,-0.62403 -0.2395,-0.97574 -0.43141,-1.08679c0,0 0.47856,-0.90666 0.47856,-2.00384c0,-2.19798 -0.86302,-4.07368 -2.71579,-4.07368c0,0 -0.64334,-1.35789 -2.71579,-1.35789zM95.05263,79.81168c-0.61799,0 -1.14384,0.11178 -1.62664,0.27111c0.26434,0.81957 0.41963,1.73369 0.41963,2.74879c0,0.64213 -0.10073,1.23084 -0.22867,1.7233c0.17502,0.51781 0.23514,1.08724 0.16031,1.67144c-0.17019,1.32893 -0.68615,2.23215 -1.33432,2.80066c-0.18829,0.45625 -0.44613,0.88852 -0.72374,1.30132c0.34279,0.70369 0.84457,1.33017 1.07029,1.45691v0.01415c2.45869,1.1527 6.48772,3.09034 6.48772,8.53399h4.82807c0,-5.98439 -6.03509,-5.12511 -6.78947,-7.69002v-0.86047c0.33917,-0.19071 1.31073,-1.50128 1.41212,-2.52484c0.26675,-0.02293 0.68785,-0.29844 0.81096,-1.39561c0.06639,-0.58902 -0.19901,-0.92048 -0.35833,-1.02549c0,0 0.39841,-0.85862 0.39841,-1.89304c0,-2.07607 -0.71938,-3.84737 -2.26316,-3.84737c0,0 -0.53592,-1.28481 -2.26316,-1.28481zM76.94737,79.81404c-1.72724,0 -2.26316,1.28246 -2.26316,1.28246c-1.54378,0 -2.26316,1.77366 -2.26316,3.84973c0,1.03562 0.39841,1.89068 0.39841,1.89068c-0.16053,0.1038 -0.42472,0.43647 -0.35833,1.02549c0.12312,1.09718 0.54421,1.37504 0.81096,1.39797c0.10139,1.02355 1.07294,2.33413 1.41212,2.52484v0.85811c-0.75439,2.56371 -6.78947,1.70563 -6.78947,7.69002h4.82807c0,-5.44365 4.02902,-7.38008 6.48772,-8.53399v-0.0165c0.22571,-0.12674 0.72749,-0.74965 1.07029,-1.45455c-0.27761,-0.4128 -0.53544,-0.84742 -0.72374,-1.30367c-0.64817,-0.5673 -1.16534,-1.47058 -1.33432,-2.7983c-0.07604,-0.59144 -0.01362,-1.17002 0.16502,-1.69265c-0.13036,-0.49608 -0.23339,-1.0853 -0.23339,-1.70208c0,-0.9982 0.14132,-1.91584 0.39841,-2.75351c-0.47677,-0.15571 -0.99588,-0.26404 -1.60543,-0.26404z"/></g></g></svg>