<svg xmlns="http://www.w3.org/2000/svg" xmlns:xlink="http://www.w3.org/1999/xlink" version="1.1" viewBox="0 0 172 172"><g fill="none" fill-rule="nonzero" stroke="none" stroke-width="1" stroke-linecap="butt" stroke-linejoin="miter" stroke-miterlimit="10" stroke-dasharray="" stroke-dashoffset="0" font-family="none" font-weight="none" font-size="none" text-anchor="none" style="mix-blend-mode: normal"><path d="M0,172v-172h172v172z" fill="none"/><path d="M25.8,172c-14.24895,0 -25.8,-11.55105 -25.8,-25.8v-120.4c0,-14.24895 11.55105,-25.8 25.8,-25.8h120.4c14.24895,0 25.8,11.55105 25.8,25.8v120.4c0,14.24895 -11.55105,25.8 -25.8,25.8z" fill="#000000"/><g fill="#ffffff"><path d="M67.96274,43c-13.7476,0 -24.96274,11.21514 -24.96274,24.96274v36.07452c0,13.7476 11.21514,24.96274 24.96274,24.96274h36.07452c13.7476,0 24.96274,-11.21514 24.96274,-24.96274v-36.07452c0,-13.7476 -11.21514,-24.96274 -24.96274,-24.96274zM67.96274,49.61538h36.07452c10.16857,0 18.34736,8.16587 18.34736,18.34736v36.07452c0,10.16857 -8.16587,18.34736 -18.34736,18.34736h-36.07452c-10.16857,0 -18.34736,-8.16587 -18.34736,-18.34736v-36.07452c0,-10.16857 8.16587,-18.34736 18.34736,-18.34736zM110.80769,56.23077c-2.73918,0 -4.96154,2.22236 -4.96154,4.96154c0,2.73918 2.22236,4.96154 4.96154,4.96154c2.73918,0 4.96154,-2.22236 4.96154,-4.96154c0,-2.73918 -2.22236,-4.96154 -4.96154,-4.96154zM86,62.84615c-12.75271,0 -23.15385,10.40114 -23.15385,23.15385c0,12.75271 10.40114,23.15385 23.15385,23.15385c12.75271,0 23.15385,-10.40114 23.15385,-23.15385c0,-12.75271 -10.40114,-23.15385 -23.15385,-23.15385zM86,69.46154c9.17368,0 16.53846,7.36479 16.53846,16.53846c0,9.17368 -7.36478,16.53846 -16.53846,16.53846c-9.17368,0 -16.53846,-7.36478 -16.53846,-16.53846c0,-9.17368 7.36479,-16.53846 16.53846,-16.53846z"/></g></g></svg>