<svg xmlns="http://www.w3.org/2000/svg" xmlns:xlink="http://www.w3.org/1999/xlink" version="1.1" viewBox="0 0 172 172"><g xmlns="http://www.w3.org/2000/svg" fill="none" fill-rule="nonzero" stroke="none" stroke-width="1" stroke-linecap="butt" stroke-linejoin="miter" stroke-miterlimit="10" stroke-dasharray="" stroke-dashoffset="0" font-family="none" font-weight="none" font-size="none" text-anchor="none" style="mix-blend-mode: normal"><path d="M0,172v-172h172v172z" fill="none"/><path d="M25.8,172c-14.24895,0 -25.8,-11.55105 -25.8,-25.8v-120.4c0,-14.24895 11.55105,-25.8 25.8,-25.8h120.4c14.24895,0 25.8,11.55105 25.8,25.8v120.4c0,14.24895 -11.55105,25.8 -25.8,25.8z" fill="#000000"/><g fill="#ffffff"><path d="M76.09689,42.91938c-16.98433,0 -31.09213,12.26043 -31.09213,27.66586c0,7.45342 3.34317,14.21008 8.69352,19.17689c-0.78625,2.3204 -2.45464,4.16778 -4.24449,5.62522c-0.9972,0.81182 -1.96883,1.50858 -2.76147,2.19895c-0.39632,0.34518 -0.76068,0.65202 -1.07391,1.12504c-0.31322,0.47303 -0.63284,1.29124 -0.40911,2.09667l0.20455,0.61366l0.56252,0.35797c1.70035,0.96524 3.76506,1.07391 5.93205,0.92049c2.16699,-0.15342 4.50657,-0.64562 6.8014,-1.27846c3.16419,-0.86935 5.87452,-1.9049 8.131,-2.81261c4.5641,10.58564 15.936,17.64274 28.89318,17.64274c2.19895,0 4.41708,-0.30044 6.49457,-0.61366c2.2373,0.99081 11.99834,5.16498 18.76778,5.16498c1.94326,0 3.45184,-0.34518 4.65359,-1.02277l0.61366,-0.35797l0.15342,-0.61366c0.47942,-1.75149 -1.00359,-2.97881 -2.91489,-4.50018c-1.92408,-1.52776 -4.46822,-3.56051 -5.57408,-6.3923c5.57408,-5.13941 8.74466,-12.1198 8.74466,-19.33031c0,-11.77461 -8.59125,-22.41139 -20.96674,-26.18285c-3.90569,-11.34633 -15.7698,-19.48372 -29.60912,-19.48372zM76.09689,46.19223c12.46498,0 22.86525,7.19773 26.3874,17.02908c0.01279,0.03835 0.03835,0.06392 0.05114,0.10228c0.01918,0.05114 0.03196,0.10228 0.05114,0.15342c0.22373,0.64562 0.40272,1.27846 0.56252,1.94326c0.11506,0.46025 0.17259,0.90771 0.25569,1.38074c0.01918,0.12145 0.03196,0.23651 0.05114,0.35797c0.07032,0.43468 0.15981,0.88853 0.20455,1.3296c0.00639,0.06392 -0.00639,0.14063 0,0.20455c0.05114,0.62005 0.10228,1.25928 0.10228,1.89212c0,0.83739 -0.05753,1.63643 -0.15342,2.45464c-0.09588,0.831 -0.22373,1.64921 -0.40911,2.45464c-0.37075,1.58529 -0.93327,3.09387 -1.63643,4.55132c-0.70315,1.45744 -1.55333,2.84457 -2.55692,4.14221c-0.4986,0.64562 -1.06751,1.29124 -1.63643,1.89212c-0.56891,0.60088 -1.15701,1.18897 -1.78984,1.7387c-0.62005,0.54334 -1.26567,1.09308 -1.94326,1.58529c-3.43906,2.4866 -7.59405,4.25088 -12.1198,5.0627c-1.80902,0.32601 -3.65639,0.51138 -5.57408,0.51138c-1.10587,0 -2.20534,-0.05753 -3.27286,-0.15342c-0.05114,-0.00639 -0.10228,0.00639 -0.15342,0c-0.14063,-0.01278 -0.27487,-0.03835 -0.40911,-0.05114c-0.37715,-0.04475 -0.76708,-0.09588 -1.12504,-0.15342c-0.48581,-0.07671 -0.93327,-0.15342 -1.38074,-0.25569l-0.51138,-0.15342l-0.51138,0.20455c-2.10946,0.88853 -6.41147,2.69755 -10.73906,3.88652c-2.16699,0.59448 -4.35315,1.04194 -6.18774,1.17618c-0.81182,0.05753 -1.15061,-0.18538 -1.78984,-0.25569c0.52417,-0.40911 0.96524,-0.73511 1.63643,-1.27846c2.17977,-1.77706 4.86454,-4.34676 5.7275,-8.18214l0.20455,-0.97163l-0.71594,-0.6648c-5.23529,-4.46822 -8.43783,-10.68792 -8.43783,-17.54046c0,-13.39826 12.40106,-24.39301 27.81928,-24.39301z"/></g></g></svg>