<svg xmlns="http://www.w3.org/2000/svg" xmlns:xlink="http://www.w3.org/1999/xlink" version="1.1" viewBox="0 0 172 172"><g fill="none" fill-rule="nonzero" stroke="none" stroke-width="1" stroke-linecap="butt" stroke-linejoin="miter" stroke-miterlimit="10" stroke-dasharray="" stroke-dashoffset="0" font-family="none" font-weight="none" font-size="none" text-anchor="none" style="mix-blend-mode: normal"><path d="M0,172v-172h172v172z" fill="none"/><path d="M25.8,172c-14.24895,0 -25.8,-11.55105 -25.8,-25.8v-120.4c0,-14.24895 11.55105,-25.8 25.8,-25.8h120.4c14.24895,0 25.8,11.55105 25.8,25.8v120.4c0,14.24895 -11.55105,25.8 -25.8,25.8z" fill="#000000"/><g fill="#ffffff"><path d="M110.13631,123.83843c-0.02687,0 -0.05375,0 -0.08062,0c-12.92687,-0.42328 -28.07094,-12.95375 -38.50516,-23.39469c-10.44765,-10.44094 -22.97812,-25.59172 -23.38125,-38.45812c-0.14781,-4.515 10.93141,-12.54391 11.04563,-12.62453c2.87562,-2.00219 6.06703,-1.29 7.37719,0.52406c0.88688,1.22953 9.28531,13.95485 10.19906,15.39938c0.94735,1.49828 0.80625,3.72891 -0.37625,5.96625c-0.65172,1.24297 -2.81515,5.04578 -3.82969,6.81953c1.09516,1.55875 3.99094,5.38172 9.97062,11.36141c5.98641,5.97969 9.80266,8.88219 11.36813,9.97734c1.77375,-1.01453 5.57656,-3.17797 6.81953,-3.82969c2.20375,-1.16906 4.42094,-1.31688 5.93265,-0.38969c1.54531,0.94734 14.23703,9.38609 15.4061,10.19906c0.98094,0.69203 1.6125,1.87453 1.74015,3.25187c0.12094,1.39078 -0.30906,2.86219 -1.20265,4.14547c-0.07391,0.1075 -8.00875,11.05234 -12.48344,11.05234z"/></g></g></svg>