<svg xmlns="http://www.w3.org/2000/svg" xmlns:xlink="http://www.w3.org/1999/xlink" version="1.1" viewBox="0 0 172 172"><g fill="none" fill-rule="nonzero" stroke="none" stroke-width="1" stroke-linecap="butt" stroke-linejoin="miter" stroke-miterlimit="10" stroke-dasharray="" stroke-dashoffset="0" font-family="none" font-weight="none" font-size="none" text-anchor="none" style="mix-blend-mode: normal"><path d="M0,172v-172h172v172z" fill="none"/><path d="M25.8,172c-14.24895,0 -25.8,-11.55105 -25.8,-25.8v-120.4c0,-14.24895 11.55105,-25.8 25.8,-25.8h120.4c14.24895,0 25.8,11.55105 25.8,25.8v120.4c0,14.24895 -11.55105,25.8 -25.8,25.8z" fill="#000000"/><g fill="#ffffff"><path d="M45.93107,71.70994c-1.03213,-0.0146 -1.99217,0.52768 -2.5125,1.41918c-0.52033,0.8915 -0.52033,1.9941 0,2.8856c0.52033,0.8915 1.48036,1.43377 2.5125,1.41918h17.17187c1.6171,0 2.86198,1.24487 2.86198,2.86198v2.86198c0,1.6171 -1.24487,2.86198 -2.86198,2.86198h-14.30989c-3.12832,0 -5.72396,2.59563 -5.72396,5.72396v5.72396c-0.0146,1.03213 0.52768,1.99217 1.41918,2.5125c0.8915,0.52033 1.9941,0.52033 2.8856,0c0.8915,-0.52033 1.43377,-1.48036 1.41918,-2.5125v-5.72396h14.30989c4.70787,0 8.58594,-3.87807 8.58594,-8.58594v-2.86198c0,-4.70787 -3.87807,-8.58594 -8.58594,-8.58594zM91.72273,71.70994c-4.70787,0 -8.58594,3.87807 -8.58594,8.58594v11.44791c0,1.6171 -1.24487,2.86198 -2.86198,2.86198h-8.58594c-1.03213,-0.0146 -1.99217,0.52768 -2.5125,1.41918c-0.52033,0.8915 -0.52033,1.9941 0,2.8856c0.52033,0.8915 1.48036,1.43377 2.5125,1.41918h8.58594c4.70787,0 8.58594,-3.87807 8.58594,-8.58594v-11.44791c0,-1.6171 1.24487,-2.86198 2.86198,-2.86198h8.58594c1.03213,0.0146 1.99217,-0.52768 2.5125,-1.41918c0.52033,-0.8915 0.52033,-1.9941 0,-2.8856c-0.52033,-0.8915 -1.48036,-1.43377 -2.5125,-1.41918zM125.98262,71.70994c-0.60706,0.01881 -1.19239,0.23024 -1.67135,0.6037l-25.75781,20.03385c-0.96376,0.75077 -1.34477,2.03048 -0.94862,3.18615c0.39615,1.15566 1.48214,1.9325 2.70381,1.93411h22.89583c-0.0146,1.03213 0.52768,1.99217 1.41918,2.5125c0.8915,0.52033 1.9941,0.52033 2.8856,0c0.8915,-0.52033 1.43377,-1.48036 1.41918,-2.5125v-2.38125c0.05108,-0.30907 0.05108,-0.62443 0,-0.9335v-19.58107c0.00025,-0.77377 -0.31278,-1.51468 -0.86777,-2.05387c-0.55498,-0.53918 -1.30462,-0.8307 -2.07806,-0.80811zM123.20449,80.41885v11.32494h-14.55584z"/></g><path d="M25.8,172c-14.24895,0 -25.8,-11.55105 -25.8,-25.8v-120.4c0,-14.24895 11.55105,-25.8 25.8,-25.8h120.4c14.24895,0 25.8,11.55105 25.8,25.8v120.4c0,14.24895 -11.55105,25.8 -25.8,25.8z" fill="none"/><path d="M29.24,168.56c-14.24895,0 -25.8,-11.55105 -25.8,-25.8v-113.52c0,-14.24895 11.55105,-25.8 25.8,-25.8h113.52c14.24895,0 25.8,11.55105 25.8,25.8v113.52c0,14.24895 -11.55105,25.8 -25.8,25.8z" fill="none"/></g></svg>