<svg xmlns="http://www.w3.org/2000/svg" xmlns:xlink="http://www.w3.org/1999/xlink" version="1.1" viewBox="0 0 172 172"><g fill="none" fill-rule="nonzero" stroke="none" stroke-width="1" stroke-linecap="butt" stroke-linejoin="miter" stroke-miterlimit="10" stroke-dasharray="" stroke-dashoffset="0" font-family="none" font-weight="none" font-size="none" text-anchor="none" style="mix-blend-mode: normal"><path d="M0,172v-172h172v172z" fill="none"/><path d="M25.8,172c-14.24895,0 -25.8,-11.55105 -25.8,-25.8v-120.4c0,-14.24895 11.55105,-25.8 25.8,-25.8h120.4c14.24895,0 25.8,11.55105 25.8,25.8v120.4c0,14.24895 -11.55105,25.8 -25.8,25.8z" fill="#000000"/><g fill="#ffffff"><path d="M53.75,103.91667h7.16667v14.33333h-7.16667zM68.08333,96.75h7.16667v21.5h-7.16667zM82.41667,89.58333h7.16667v28.66667h-7.16667zM96.75,103.91667h7.16667v14.33333h-7.16667zM111.08333,103.91667h7.16667v14.33333h-7.16667zM86,71.66667v-17.91667h-17.91667z"/><path d="M53.75027,80.93254l23.29028,-23.29109l5.06769,5.06751l-23.29028,23.29109z"/><path d="M118.25,82.41667c0,3.58333 -2.15,8.6 -7.16667,10.03333v4.3h-7.16667v-4.3c-5.01667,-1.43333 -7.16667,-6.45 -7.16667,-10.03333h7.16667c0,1.79167 0.71667,3.58333 3.58333,3.58333c2.86667,0 3.58333,-1.79167 3.58333,-3.58333c0,-1.79167 -0.71667,-2.15 -5.01667,-3.94167c-3.58333,-1.43333 -9.31667,-3.58333 -9.31667,-10.39167c0,-5.73333 3.58333,-8.95833 7.16667,-10.03333v-4.3h7.16667v4.3c5.01667,1.43333 7.16667,6.45 7.16667,10.03333h-3.58333h-3.58333c0,-1.79167 -0.71667,-3.58333 -3.58333,-3.58333c-1.79167,0 -3.58333,0.71667 -3.58333,3.58333c0,1.79167 0.71667,2.15 5.01667,3.94167c3.58333,1.43333 9.31667,3.58333 9.31667,10.39167z"/></g></g></svg>