<svg xmlns="http://www.w3.org/2000/svg" xmlns:xlink="http://www.w3.org/1999/xlink" version="1.1" viewBox="0 0 172 172"><g fill="none" fill-rule="nonzero" stroke="none" stroke-width="1" stroke-linecap="butt" stroke-linejoin="miter" stroke-miterlimit="10" stroke-dasharray="" stroke-dashoffset="0" font-family="none" font-weight="none" font-size="none" text-anchor="none" style="mix-blend-mode: normal"><path d="M0,172v-172h172v172z" fill="none"/><path d="M25.8,172c-14.24895,0 -25.8,-11.55105 -25.8,-25.8v-120.4c0,-14.24895 11.55105,-25.8 25.8,-25.8h120.4c14.24895,0 25.8,11.55105 25.8,25.8v120.4c0,14.24895 -11.55105,25.8 -25.8,25.8z" fill="#000000"/><g fill="#ffffff"><path d="M86,50.16882c-20.36706,0 -20.36706,20.36706 -20.36706,20.36706v3.39451c0,0 -0.07807,-0.00339 -0.21385,-0.00339c-1.15413,0 -6.57517,0.23762 -6.57517,4.73874c0,5.24452 5.76048,5.44819 6.67021,5.44819c0.07807,0 0.11881,0 0.11881,0c0,3.39451 -5.60773,7.36948 -9.28738,8.2894c-3.42846,1.33065 -4.24653,3.60158 -4.29066,5.32259c-0.02716,1.02854 0.22404,1.86019 0.35982,2.18267c1.27973,3.00414 5.08158,4.55543 8.80536,4.55543c0.12899,4.8847 3.65249,6.80599 6.01168,6.80599c2.69524,0 5.54663,-1.31707 5.54663,-1.31707c0.13917,0.11541 4.48075,4.71158 13.22162,4.71158c8.74087,0 13.08244,-4.59617 13.22501,-4.71158c0,0 2.84799,1.31707 5.54663,1.31707c2.35918,0 5.87929,-1.92129 6.00828,-6.80599c3.72378,0 7.52563,-1.55129 8.80536,-4.55543c0.13578,-0.32248 0.38697,-1.15413 0.35982,-2.18267c-0.04413,-1.72102 -0.86221,-3.99194 -4.29066,-5.32259c-3.67965,-0.91991 -9.28738,-4.89488 -9.28738,-8.2894c0,0 0.04073,0 0.11881,0c0.90973,0 6.67021,-0.20367 6.67021,-5.44819c0,-4.50112 -5.42103,-4.73874 -6.57517,-4.73874c-0.13578,0 -0.21385,0.00339 -0.21385,0.00339v-3.39451c0,0 0,-20.36706 -20.36706,-20.36706z"/></g></g></svg>