<svg xmlns="http://www.w3.org/2000/svg" xmlns:xlink="http://www.w3.org/1999/xlink" version="1.1" viewBox="0 0 172 172"><g fill="none" fill-rule="nonzero" stroke="none" stroke-width="1" stroke-linecap="butt" stroke-linejoin="miter" stroke-miterlimit="10" stroke-dasharray="" stroke-dashoffset="0" font-family="none" font-weight="none" font-size="none" text-anchor="none" style="mix-blend-mode: normal"><path d="M0,172v-172h172v172z" fill="none"/><path d="M25.8,172c-14.24895,0 -25.8,-11.55105 -25.8,-25.8v-120.4c0,-14.24895 11.55105,-25.8 25.8,-25.8h120.4c14.24895,0 25.8,11.55105 25.8,25.8v120.4c0,14.24895 -11.55105,25.8 -25.8,25.8z" fill="#000000"/><g fill="#ffffff"><path d="M86.03096,46.39356c-21.82164,0 -39.57548,17.75384 -39.57548,39.57548c0,21.82164 17.75384,39.57548 39.57548,39.57548c21.82164,0 39.57548,-17.75212 39.57548,-39.57548c0,-21.82336 -17.75384,-39.57548 -39.57548,-39.57548zM102.78204,103.75728c-0.49708,0.74648 -1.3158,1.14896 -2.15,1.14896c-0.49192,0 -0.989,-0.13932 -1.42932,-0.43344c-4.25356,-2.83628 -11.46724,-4.72828 -17.48724,-4.72656c-6.38808,0.00344 -11.17656,1.57208 -11.22472,1.58756c-1.34848,0.45752 -2.8122,-0.27864 -3.26284,-1.63056c-0.45064,-1.35192 0.28036,-2.81392 1.63228,-3.26284c0.22704,-0.07568 5.63988,-1.849 12.85528,-1.85244c6.02,-0.00344 14.39296,1.62024 20.35104,5.59172c1.1868,0.7912 1.50672,2.39252 0.71552,3.5776zM107.92828,93.19648c-0.559,0.89784 -1.52392,1.39148 -2.50948,1.39148c-0.5332,0 -1.07328,-0.14276 -1.55832,-0.4472c-7.71248,-4.80568 -15.63824,-5.8222 -22.46664,-5.762c-7.70904,0.0688 -13.87352,1.5394 -13.97844,1.57036c-1.56004,0.44376 -3.20092,-0.46784 -3.6464,-2.03476c-0.44548,-1.57036 0.46784,-3.20264 2.03648,-3.6464c0.47644,-0.13588 6.62888,-1.64948 15.05172,-1.72c7.6798,-0.06364 17.24988,1.0492 26.12852,6.58072c1.38116,0.86 1.806,2.6832 0.94256,4.0678zM113.06248,80.84688c-0.64156,1.09048 -1.79052,1.69764 -2.97044,1.69764c-0.59168,0 -1.19024,-0.15308 -1.73892,-0.473c-8.98872,-5.27696 -19.9176,-6.39668 -27.5028,-6.407c-0.03612,0 -0.07224,0 -0.10836,0c-9.17276,0 -16.2368,1.61336 -16.30732,1.63056c-1.85416,0.42484 -3.69972,-0.72068 -4.12972,-2.5714c-0.43,-1.849 0.71724,-3.69628 2.56624,-4.128c0.3182,-0.07396 7.86556,-1.81116 17.8708,-1.81116c0.03956,0 0.07912,0 0.11868,0c8.4366,0.01204 20.65892,1.29516 30.9772,7.353c1.63744,0.9632 2.18612,3.07192 1.22464,4.70936z"/></g></g></svg>