<svg xmlns="http://www.w3.org/2000/svg" xmlns:xlink="http://www.w3.org/1999/xlink" version="1.1" viewBox="0 0 172 172"><g fill="none" fill-rule="nonzero" stroke="none" stroke-width="1" stroke-linecap="butt" stroke-linejoin="miter" stroke-miterlimit="10" stroke-dasharray="" stroke-dashoffset="0" font-family="none" font-weight="none" font-size="none" text-anchor="none" style="mix-blend-mode: normal"><path d="M0,172v-172h172v172z" fill="none"/><path d="M25.8,172c-14.24895,0 -25.8,-11.55105 -25.8,-25.8v-120.4c0,-14.24895 11.55105,-25.8 25.8,-25.8h120.4c14.24895,0 25.8,11.55105 25.8,25.8v120.4c0,14.24895 -11.55105,25.8 -25.8,25.8z" fill="#000000"/><g fill="#ffffff"><path d="M119.17297,68.80668c-2.44527,1.08564 -5.06631,1.81457 -7.82177,2.14543c2.81232,-1.68532 4.97326,-4.35289 5.98652,-7.52709c-2.62621,1.55608 -5.54709,2.68825 -8.64375,3.29827c-2.48146,-2.64689 -6.01754,-4.29603 -9.93101,-4.29603c-7.51675,0 -13.61184,6.08991 -13.61184,13.60667c0,1.06496 0.12407,2.10407 0.35671,3.10182c-11.31132,-0.56867 -21.33538,-5.98652 -28.05083,-14.22186c-1.17352,2.01618 -1.84042,4.35289 -1.84042,6.84469c0,4.71994 2.39874,8.88673 6.05373,11.332c-2.23331,-0.07238 -4.33221,-0.68757 -6.16746,-1.706c0,0.05687 0,0.11373 0,0.1706c0,6.59655 4.69409,12.09194 10.91325,13.34818c-1.13734,0.31018 -2.34188,0.47561 -3.58261,0.47561c-0.87885,0 -1.73185,-0.08272 -2.56417,-0.24815c1.73702,5.40234 6.76198,9.34683 12.71231,9.45539c-4.65274,3.64981 -10.52035,5.82109 -16.89977,5.82109c-1.10115,0 -2.18162,-0.06204 -3.24141,-0.19128c6.01754,3.86694 13.17241,6.11576 20.85977,6.11576c25.03172,0 38.7211,-20.73569 38.7211,-38.71593c0,-0.58935 -0.01551,-1.18386 -0.03619,-1.76287c2.65723,-1.91796 4.96292,-4.31671 6.78782,-7.04631z"/></g></g></svg>