<svg xmlns="http://www.w3.org/2000/svg" xmlns:xlink="http://www.w3.org/1999/xlink" version="1.1" viewBox="0 0 172 172"><g fill="none" fill-rule="nonzero" stroke="none" stroke-width="1" stroke-linecap="butt" stroke-linejoin="miter" stroke-miterlimit="10" stroke-dasharray="" stroke-dashoffset="0" font-family="none" font-weight="none" font-size="none" text-anchor="none" style="mix-blend-mode: normal"><path d="M0,172v-172h172v172z" fill="none"/><path d="M25.8,172c-14.24895,0 -25.8,-11.55105 -25.8,-25.8v-120.4c0,-14.24895 11.55105,-25.8 25.8,-25.8h120.4c14.24895,0 25.8,11.55105 25.8,25.8v120.4c0,14.24895 -11.55105,25.8 -25.8,25.8z" fill="#1a314f"/><g fill="#ffffff"><path d="M64.5,64.5c-1.78987,0 -3.36807,0.87902 -4.34094,2.23083c-0.65575,0.90838 -0.36605,2.19598 0.58264,2.78723l23.59961,14.70776c1.01587,0.63425 2.30151,0.63425 3.31739,0l23.49988,-14.83374c0.98631,-0.6235 1.23222,-1.97859 0.50391,-2.88696c-0.98094,-1.22013 -2.47741,-2.00513 -4.16248,-2.00513zM111.57324,75.48096c-0.22474,0.00248 -0.45297,0.06442 -0.66663,0.19946l-23.24792,14.66052c-1.01588,0.63156 -2.30151,0.629 -3.31739,-0.00525l-23.25317,-14.4873c-0.85463,-0.53213 -1.96313,0.08398 -1.96313,1.0918v25.18481c0,2.96969 2.40531,5.375 5.375,5.375h43c2.96969,0 5.375,-2.40531 5.375,-5.375v-25.35803c0,-0.75788 -0.62753,-1.29344 -1.30176,-1.28601z"/></g></g></svg>