<svg xmlns="http://www.w3.org/2000/svg" xmlns:xlink="http://www.w3.org/1999/xlink" version="1.1" viewBox="0 0 172 172"><g fill="none" fill-rule="nonzero" stroke="none" stroke-width="1" stroke-linecap="butt" stroke-linejoin="miter" stroke-miterlimit="10" stroke-dasharray="" stroke-dashoffset="0" font-family="none" font-weight="none" font-size="none" text-anchor="none" style="mix-blend-mode: normal"><path d="M0,172v-172h172v172z" fill="none"/><path d="M25.8,172c-14.24895,0 -25.8,-11.55105 -25.8,-25.8v-120.4c0,-14.24895 11.55105,-25.8 25.8,-25.8h120.4c14.24895,0 25.8,11.55105 25.8,25.8v120.4c0,14.24895 -11.55105,25.8 -25.8,25.8z" fill="#1a314f"/><g fill="#ffffff"><path d="M103.91667,50.16667h-35.83333c-9.87925,0 -17.91667,8.03742 -17.91667,17.91667v35.83333c0,9.87925 8.03742,17.91667 17.91667,17.91667h35.83333c9.87925,0 17.91667,-8.03742 17.91667,-17.91667v-35.83333c0,-9.87925 -8.03742,-17.91667 -17.91667,-17.91667zM89.58333,89.58333c0,3.95958 -3.20708,7.16667 -7.16667,7.16667h-10.75c-3.95958,0 -7.16667,-3.20708 -7.16667,-7.16667v-7.16667c0,-3.95958 3.20708,-7.16667 7.16667,-7.16667h10.75c3.95958,0 7.16667,3.20708 7.16667,7.16667zM107.5,92.67575c0,2.78425 -3.29308,4.26058 -5.37142,2.408l-4.78017,-4.26417c-0.37983,-0.344 -0.59842,-0.82775 -0.59842,-1.34017v-6.96242c0,-0.51242 0.21858,-0.99617 0.59842,-1.33658l4.78017,-4.26417c2.07833,-1.85258 5.37142,-0.37625 5.37142,2.408z"/></g></g></svg>