<svg xmlns="http://www.w3.org/2000/svg" xmlns:xlink="http://www.w3.org/1999/xlink" version="1.1" viewBox="0 0 172 172"><g fill="none" fill-rule="nonzero" stroke="none" stroke-width="1" stroke-linecap="butt" stroke-linejoin="miter" stroke-miterlimit="10" stroke-dasharray="" stroke-dashoffset="0" font-family="none" font-weight="none" font-size="none" text-anchor="none" style="mix-blend-mode: normal"><path d="M0,172v-172h172v172z" fill="none"/><path d="M25.8,172c-14.24895,0 -25.8,-11.55105 -25.8,-25.8v-120.4c0,-14.24895 11.55105,-25.8 25.8,-25.8h120.4c14.24895,0 25.8,11.55105 25.8,25.8v120.4c0,14.24895 -11.55105,25.8 -25.8,25.8z" fill="#1a314f"/><g fill="#ffffff"><path d="M91.66224,45.28072c-1.83352,-0.3612 -3.7238,-0.56072 -5.66224,-0.56072c-8.1012,0 -15.4456,3.3196 -20.7432,8.6688l11.9024,9.61824zM74.9834,65.66616l-11.997,-9.68016c-3.9044,4.9536 -6.2264,11.2144 -6.2264,17.974c0,3.92332 0.77744,7.71764 2.24288,11.23848zM81.88576,62.66304c1.2814,-0.46956 2.65912,-0.74304 4.11424,-0.74304c6.6564,0 12.04,5.3836 12.04,12.04c0,0.58136 -0.05504,1.14724 -0.13416,1.70624l13.36784,-16.33828c-3.53976,-6.08708 -9.19856,-10.78096 -15.9702,-13.0634zM90.02652,85.29652c-1.26076,0.4472 -2.61268,0.70348 -4.02652,0.70348c-6.6564,0 -12.04,-5.3836 -12.04,-12.04c0,-0.60888 0.05848,-1.204 0.14448,-1.78708l-13.42116,16.40364c0.66392,1.14552 1.39148,2.2618 2.21708,3.32304c0.6364,0.86 1.4964,1.9608 2.494,3.2508c2.17924,2.80876 5.08948,6.56352 7.8948,10.60208zM75.29816,108.7298c3.58104,5.47648 6.62544,11.17484 7.17584,15.5746c0.2408,1.7028 1.7028,2.9756 3.4228,2.9756c1.7544,0 3.2164,-1.29 3.4228,-3.01c1.0492,-8.3076 11.3004,-21.4656 16.8216,-28.552c0.9632,-1.2384 1.806,-2.322 2.58,-3.3368c4.1968,-5.1944 6.5188,-11.7304 6.5188,-18.4212c0,-3.99384 -0.81012,-7.80192 -2.26868,-11.2746z"/></g></g></svg>