<svg xmlns="http://www.w3.org/2000/svg" xmlns:xlink="http://www.w3.org/1999/xlink" version="1.1" viewBox="0 0 172 172"><g fill="none" fill-rule="nonzero" stroke="none" stroke-width="1" stroke-linecap="butt" stroke-linejoin="miter" stroke-miterlimit="10" stroke-dasharray="" stroke-dashoffset="0" font-family="none" font-weight="none" font-size="none" text-anchor="none" style="mix-blend-mode: normal"><path d="M0,172v-172h172v172z" fill="none"/><path d="M25.8,172c-14.24895,0 -25.8,-11.55105 -25.8,-25.8v-120.4c0,-14.24895 11.55105,-25.8 25.8,-25.8h120.4c14.24895,0 25.8,11.55105 25.8,25.8v120.4c0,14.24895 -11.55105,25.8 -25.8,25.8z" fill="#1a314f"/><g fill="#ffffff"><path d="M72.5625,51.95833c-11.36096,0 -20.60417,9.24321 -20.60417,20.60417v26.875c0,11.36096 9.24321,20.60417 20.60417,20.60417h26.875c11.36096,0 20.60417,-9.24321 20.60417,-20.60417v-26.875c0,-11.36096 -9.24321,-20.60417 -20.60417,-20.60417zM103.91667,64.5c1.97979,0 3.58333,1.60354 3.58333,3.58333c0,1.978 -1.60354,3.58333 -3.58333,3.58333c-1.97979,0 -3.58333,-1.60533 -3.58333,-3.58333c0,-1.97979 1.60354,-3.58333 3.58333,-3.58333zM86,68.08333c9.87925,0 17.91667,8.03742 17.91667,17.91667c0,9.87925 -8.03742,17.91667 -17.91667,17.91667c-9.87925,0 -17.91667,-8.03742 -17.91667,-17.91667c0,-9.87925 8.03742,-17.91667 17.91667,-17.91667zM86,73.45833c-6.92657,0 -12.54167,5.6151 -12.54167,12.54167c0,6.92657 5.6151,12.54167 12.54167,12.54167c6.92657,0 12.54167,-5.6151 12.54167,-12.54167c0,-6.92657 -5.6151,-12.54167 -12.54167,-12.54167z"/></g></g></svg>