<svg xmlns="http://www.w3.org/2000/svg" xmlns:xlink="http://www.w3.org/1999/xlink" version="1.1" viewBox="0 0 172 172"><g fill="none" fill-rule="nonzero" stroke="none" stroke-width="1" stroke-linecap="butt" stroke-linejoin="miter" stroke-miterlimit="10" stroke-dasharray="" stroke-dashoffset="0" font-family="none" font-weight="none" font-size="none" text-anchor="none" style="mix-blend-mode: normal"><path d="M0,172v-172h172v172z" fill="none"/><path d="M25.8,172c-14.24895,0 -25.8,-11.55105 -25.8,-25.8v-120.4c0,-14.24895 11.55105,-25.8 25.8,-25.8h120.4c14.24895,0 25.8,11.55105 25.8,25.8v120.4c0,14.24895 -11.55105,25.8 -25.8,25.8z" fill="#1a314f"/><g><path d="M49.94421,61.24002c0,8.89212 0.11382,6.42189 0.12271,14.42302c0.00711,6.67265 0.64379,11.02979 0.37169,15.81375c-0.22586,3.96233 -0.77895,7.86064 -0.51752,11.82119c0.35568,5.41352 -2.01673,13.02874 2.95752,16.87547c3.14425,2.43111 8.39238,1.47787 12.25868,1.36761c5.90615,-0.16895 15.03302,0.44283 18.90109,0.42149c12.92914,-0.06758 12.81177,-0.77717 22.83141,-0.36991c3.65644,0.14761 8.69294,0.62601 11.54553,-1.66283c2.74767,-2.20525 3.66355,-5.73898 3.58708,-11.73404c-0.10137,-7.90865 -0.6349,-12.5539 -0.59399,-20.46255c0.01601,-3.02154 0.57087,-7.76282 0.5851,-10.78436c0.01245,-2.43822 0.38236,-7.91932 0.34324,-10.35754c-0.03557,-2.26749 -0.17606,-7.47472 -0.36458,-9.79556c-0.18851,-2.32084 -1.97049,-4.88533 -4.06548,-5.90437c-0.89277,-0.43571 -1.89758,-0.5602 -2.86504,-0.78962c-1.81399,-0.43038 -17.92296,-0.22764 -18.87086,-0.13338c-8.89212,0.88921 -3.60487,0.25431 -13.47512,1.25912c-2.456,0.25076 -6.54282,-0.16717 -11.25387,-0.18851c-6.2476,-0.02845 -8.8939,-1.06528 -12.60369,-0.46773c-5.34239,0.85898 -9.23714,3.71691 -8.8939,10.66877" fill="#1a314f"/><path d="M83.85164,122.85175c-1.54012,0 -3.77915,-0.08536 -6.35431,-0.18496c-4.11883,-0.15828 -8.78364,-0.33612 -12.33871,-0.23653c-0.71848,0.02134 -1.48498,0.06936 -2.27638,0.12093c-3.62265,0.24009 -7.73081,0.50152 -10.54961,-1.67528c-4.01924,-3.10513 -3.69557,-8.32836 -3.40924,-12.93626c0.10315,-1.64149 0.19918,-3.19227 0.10671,-4.58122c-0.18851,-2.8846 0.04268,-5.75676 0.26854,-8.53466c0.0907,-1.1293 0.18318,-2.26038 0.24898,-3.39679c0.14761,-2.60361 0.02312,-5.07562 -0.12271,-7.93355c-0.1156,-2.26571 -0.2472,-4.83376 -0.24898,-7.82862c-0.00356,-3.83428 -0.03201,-5.25702 -0.06047,-6.6851c-0.03023,-1.54901 -0.06224,-3.10335 -0.06224,-7.71836c-0.31834,-6.5944 2.92551,-10.48559 9.63906,-11.56865c2.19102,-0.35213 3.99256,-0.16895 6.2725,0.06047c1.7642,0.1814 3.76492,0.38414 6.47702,0.39659c1.95805,0.00889 3.80938,0.08536 5.4811,0.15472c2.30662,0.09603 4.30023,0.17784 5.67851,0.03735c5.17344,-0.52819 6.19603,-0.60466 7.26486,-0.68647c0.97102,-0.07469 1.97939,-0.15117 6.21204,-0.57265c0.81452,-0.08359 17.1369,-0.32901 19.16608,0.15294c0.23475,0.05513 0.47306,0.10493 0.70959,0.15472c0.77361,0.16006 1.57035,0.32723 2.33863,0.70248c2.38665,1.16131 4.34825,4.01213 4.56166,6.62997c0.19385,2.39376 0.33257,7.76994 0.36636,9.85603c0.02134,1.37472 -0.08181,3.65822 -0.18318,5.86346c-0.07825,1.74819 -0.15472,3.43236 -0.16184,4.51186c-0.00711,1.54189 -0.15294,3.53195 -0.29522,5.45798c-0.13872,1.89047 -0.28277,3.84673 -0.28988,5.32638c-0.02134,4.35714 0.12982,7.68279 0.28988,11.20407c0.12805,2.80102 0.25965,5.69985 0.30411,9.24069c0.08359,6.53571 -1.05283,10.1388 -3.91965,12.4383c-2.85971,2.29595 -7.44271,2.08253 -11.12938,1.90469l-1.01014,-0.04446c-5.54513,-0.22942 -7.93355,-0.11026 -11.24142,0.05513c-2.58761,0.12627 -5.80656,0.28455 -11.54731,0.31656c-0.05691,-0.00178 -0.11915,-0.00178 -0.18496,-0.00178zM67.44924,120.62161c3.17093,0 6.81848,0.1405 10.11746,0.26676c2.6623,0.10315 4.96358,0.18496 6.46457,0.18496c5.70163,-0.03201 8.89924,-0.18673 11.46906,-0.31478c3.35233,-0.16895 5.77277,-0.28633 11.40148,-0.05691l1.02082,0.04624c3.38256,0.16006 7.59565,0.35924 9.9325,-1.51522c2.38665,-1.91536 3.32921,-5.11119 3.25452,-11.02801c-0.04446,-3.51417 -0.17606,-6.39699 -0.30233,-9.18556c-0.16184,-3.54262 -0.31478,-6.88962 -0.29166,-11.29477c0.00711,-1.53834 0.15294,-3.52484 0.29522,-5.44554c0.13872,-1.89402 0.28277,-3.85562 0.28988,-5.33705c0.00534,-1.09729 0.08359,-2.80813 0.16362,-4.583c0.09959,-2.18035 0.20096,-4.43361 0.17962,-5.75498c-0.03379,-2.06653 -0.17073,-7.38935 -0.36102,-9.74043c-0.16362,-2.00784 -1.73041,-4.28067 -3.56752,-5.17521c-0.5691,-0.27743 -1.22533,-0.41259 -1.92248,-0.55843c-0.25431,-0.05157 -0.50685,-0.10671 -0.75939,-0.16539c-1.64326,-0.38947 -17.7629,-0.19385 -18.57386,-0.11382c-4.2611,0.42682 -5.27836,0.50329 -6.2565,0.57799c-1.06172,0.08003 -2.07898,0.15828 -7.21862,0.68114c-1.50455,0.15472 -3.55685,0.06758 -5.93282,-0.03023c-1.65216,-0.06758 -3.48215,-0.14405 -5.4153,-0.15294c-2.79746,-0.01423 -4.84265,-0.22052 -6.64775,-0.40548c-2.15011,-0.21697 -3.85029,-0.39125 -5.81011,-0.07647c-5.75854,0.92834 -8.42262,4.11705 -8.14518,9.74932v0.04268c0,4.60968 0.03023,6.15868 0.06047,7.70236c0.02845,1.43697 0.05691,2.86504 0.06047,6.71889c0.00178,2.95218 0.13338,5.49533 0.2472,7.7397c0.14761,2.91306 0.27743,5.42775 0.12271,8.12562c-0.0658,1.15064 -0.15828,2.29595 -0.25076,3.44125c-0.22942,2.83837 -0.44816,5.52023 -0.26676,8.27145c0.09959,1.50455 0,3.11046 -0.10671,4.81064c-0.27032,4.37315 -0.55131,8.89212 2.72099,11.42282c2.28528,1.76598 6.03775,1.52055 9.3474,1.30714c0.81452,-0.05157 1.60236,-0.10493 2.34218,-0.12449c0.73805,-0.02134 1.52233,-0.03023 2.33863,-0.03023z" fill="#ffffff"/><path d="M75.37745,75.30558c0.67047,1.60947 1.96516,4.72172 2.56449,6.35787c1.54723,4.22198 3.08734,6.61574 5.03472,10.66877c3.15137,6.55527 4.1704,14.06734 7.62588,20.46611c0.12805,0.23831 0.26854,0.48373 0.4944,0.63134c0.30411,0.19741 0.69359,0.17606 1.05461,0.15294c3.06245,-0.18496 6.55527,-0.09959 9.53235,0.64557c0.3628,-3.43592 -1.04749,-6.80425 -2.70143,-9.83824c-1.65393,-3.03399 -5.10052,-13.09098 -5.5558,-14.94943c-1.1542,-4.7146 -5.13787,-10.40378 -7.53874,-18.34978c-1.19154,-3.94099 -2.10921,-6.85938 -3.82717,-10.60119c-0.12093,-0.26499 -0.25076,-0.53886 -0.4784,-0.72026c-0.29166,-0.23297 -0.69003,-0.27032 -1.0635,-0.297c-3.08379,-0.21519 -7.17772,0.19918 -10.26862,0.27388c0,0 2.9095,10.24017 5.1272,15.55943z" fill="#1a314f"/><path d="M70.28582,59.78171c-0.46595,8.01002 0.06047,17.83937 0.84119,25.8245c0.13516,1.38006 0.30767,2.75656 0.37525,4.14195c0.07469,1.50455 0.0249,3.01265 -0.02312,4.51898c-0.1565,4.82664 -0.313,9.65329 -0.46773,14.47815c-0.0498,1.517 -0.09781,3.03399 -0.14761,4.55277c-0.01245,0.37347 0.00356,0.8074 0.30233,1.03149c0.22586,0.16895 0.53531,0.15294 0.8163,0.12982c3.72046,-0.31478 4.41583,-1.09373 10.14058,-1.09373c-0.35213,-7.12437 -0.39837,-15.02235 0.13694,-22.13605z" fill="#1a314f"/><path d="M91.1663,83.12175c-0.26321,-6.86116 0.19385,-16.89325 -0.06936,-23.75441c3.76492,-0.08359 6.81137,0.19918 10.57629,0.11738c0.53353,5.27836 -0.0907,11.16495 -0.4944,16.45398c-0.14939,1.97227 0.09959,3.22784 0.19918,5.20189c0.08714,1.71974 0.45706,6.47524 0.52286,9.61416c0.15117,7.2951 0.31656,13.13011 -0.21875,20.40742z" fill="#1a314f"/><path d="M101.6839,115.11738c-0.07292,0 -0.14583,-0.00889 -0.21697,-0.02668c-3.13892,-0.78606 -6.7669,-0.76828 -9.26203,-0.62245c-0.40904,0.0249 -1.03682,0.0658 -1.59169,-0.29344c-0.4286,-0.27921 -0.64735,-0.68647 -0.79318,-0.95679c-1.88691,-3.49283 -3.07134,-7.33422 -4.21487,-11.04757c-0.97813,-3.17627 -1.99006,-6.46102 -3.43058,-9.4541c-0.62601,-1.30359 -1.21111,-2.43466 -1.76598,-3.51061c-1.15064,-2.22659 -2.23726,-4.33046 -3.30253,-7.23819c-0.60111,-1.64149 -1.91892,-4.80175 -2.55026,-6.3223v0c-2.21236,-5.30504 -5.04183,-15.23754 -5.16099,-15.65903c-0.07469,-0.26321 -0.02312,-0.54953 0.1405,-0.77184c0.16362,-0.22052 0.41971,-0.35391 0.69536,-0.36102c1.02082,-0.0249 2.15189,-0.08536 3.32032,-0.14939c2.41866,-0.1316 4.92268,-0.26499 7.03011,-0.12093c0.41259,0.03023 1.03682,0.07292 1.5579,0.48907c0.39659,0.31478 0.59044,0.73805 0.73093,1.04571c1.71974,3.74536 2.64985,6.67443 3.86985,10.71145c1.25379,4.14551 2.95041,7.67924 4.44784,10.79681c1.36227,2.84192 2.53959,5.29437 3.10513,7.59743c0.4286,1.75175 3.84851,11.75538 5.47221,14.73602c1.52055,2.78857 3.21361,6.48769 2.80458,10.35754c-0.02668,0.25609 -0.16362,0.48729 -0.37347,0.6349c-0.15472,0.11026 -0.33257,0.16539 -0.51219,0.16539zM94.83163,112.60981c1.88335,0 4.00145,0.12627 6.01997,0.52286c-0.00178,-3.03933 -1.39073,-6.00752 -2.64985,-8.31769c-1.71974,-3.1567 -5.18589,-13.31506 -5.6376,-15.16285c-0.5193,-2.12522 -1.66105,-4.50119 -2.98064,-7.25064c-1.52411,-3.17627 -3.25274,-6.77757 -4.54565,-11.05469c-1.19866,-3.96589 -2.11099,-6.8416 -3.78449,-10.48559c-0.06047,-0.12982 -0.15828,-0.34324 -0.22408,-0.39481c-0.0907,-0.07292 -0.41615,-0.09603 -0.57265,-0.10671c-2.00606,-0.14583 -4.44784,-0.00711 -6.81137,0.12093c-0.76294,0.0409 -1.51166,0.08359 -2.22481,0.11204c0.81274,2.7779 3.02866,10.17614 4.77685,14.36789v0c0.63668,1.53122 1.96338,4.71638 2.57872,6.39521c1.02615,2.8028 2.03985,4.7644 3.21183,7.03367c0.56376,1.0884 1.1542,2.23548 1.78909,3.55507c1.49743,3.11402 2.52892,6.46457 3.52662,9.7013c1.11863,3.63332 2.27638,7.38757 4.07971,10.72746c0.04268,0.08003 0.14583,0.26854 0.19918,0.31122c0.07114,0.03379 0.36813,0.01956 0.51219,0.00889c0.81452,-0.04624 1.74286,-0.08359 2.73699,-0.08359z" fill="#ffffff"/><path d="M71.7139,115.36281c-0.31478,0 -0.72204,-0.05335 -1.0795,-0.32189c-0.69892,-0.52286 -0.67047,-1.39784 -0.65802,-1.77309l0.61533,-19.03092c0.04624,-1.46186 0.09603,-2.97708 0.02312,-4.44606c-0.0498,-1.00837 -0.15472,-2.01318 -0.26143,-3.01621l-0.11026,-1.08128c-0.55309,-5.63227 -1.39606,-16.49311 -0.84475,-25.96322c0.02845,-0.48907 0.46061,-0.91055 0.93901,-0.83586c0.49085,0.02845 0.86431,0.44816 0.83586,0.93901c-0.54242,9.3474 0.29344,20.10509 0.83942,25.684l0.11026,1.07061c0.10848,1.03682 0.21697,2.07364 0.26854,3.1158c0.07469,1.54189 0.0249,3.0909 -0.02312,4.59189l-0.61533,19.0327c-0.00356,0.1156 -0.00178,0.19918 0.00178,0.25787c0.0409,-0.00178 0.09248,-0.00534 0.15117,-0.01067c1.34982,-0.11382 2.26927,-0.2881 3.24385,-0.47306c1.48321,-0.27921 3.01087,-0.56732 6.04131,-0.61889c-0.25431,-5.5967 -0.40192,-13.56049 0.18318,-21.31975c0.03735,-0.48907 0.45528,-0.87498 0.95324,-0.82163c0.48907,0.03735 0.8572,0.46417 0.81985,0.95324c-0.61,8.10961 -0.41082,16.45398 -0.13516,22.02756c0.01245,0.24364 -0.07647,0.48017 -0.24364,0.65624c-0.16895,0.17784 -0.40192,0.27566 -0.64379,0.27566c-3.49638,0 -5.02405,0.2881 -6.64241,0.59399c-0.97458,0.18496 -1.98294,0.37525 -3.42169,0.49618c-0.09248,0.00889 -0.20985,0.01778 -0.34679,0.01778zM71.77436,113.70354h0.01778z" fill="#ffffff"/><path d="M101.6839,112.05138c-0.02134,0 -0.04446,0 -0.0658,-0.00178c-0.48907,-0.03735 -0.8572,-0.46417 -0.82163,-0.95324c0.50152,-6.82915 0.3877,-12.25156 0.24187,-19.11628l-0.0249,-1.20577c-0.04446,-2.18213 -0.24009,-5.16277 -0.38236,-7.34134c-0.06224,-0.93723 -0.11382,-1.73041 -0.1405,-2.24793c-0.03023,-0.61 -0.07469,-1.14886 -0.11915,-1.66283c-0.09603,-1.14708 -0.18673,-2.22837 -0.07825,-3.65466l0.17251,-2.18568c0.35924,-4.44962 0.72915,-9.04151 0.39659,-13.29906c-1.58991,0.01601 -3.06423,-0.03023 -4.50297,-0.07114c-1.39251,-0.0409 -2.82947,-0.08536 -4.34291,-0.07114c0.09426,3.28475 0.04802,7.20795 0.00534,11.01022c-0.04802,4.14195 -0.09603,8.4244 0.03379,11.83364c0.01956,0.49085 -0.36458,0.90522 -0.85364,0.92478c-0.44461,0.00178 -0.90344,-0.36458 -0.923,-0.85364c-0.13338,-3.4537 -0.08359,-7.75927 -0.03557,-11.92256c0.04802,-4.14195 0.09603,-8.4244 -0.03379,-11.83186c-0.00889,-0.24009 0.07647,-0.47128 0.24009,-0.64379c0.16362,-0.17251 0.38947,-0.27388 0.62778,-0.27921c1.90114,-0.0409 3.64577,0.00889 5.33527,0.05869c1.66283,0.04802 3.38434,0.09603 5.24102,0.05691c0.54953,-0.00178 0.85898,0.3379 0.90522,0.79851c0.4695,4.64169 0.06936,9.6195 -0.32012,14.43191l-0.17251,2.18035c-0.09781,1.28224 -0.01601,2.24971 0.07825,3.37011c0.04446,0.53353 0.0907,1.09017 0.12271,1.72151c0.0249,0.51219 0.07647,1.29469 0.13694,2.22303c0.14405,2.1928 0.33968,5.19833 0.38592,7.41781l0.0249,1.20577c0.1405,6.63886 0.26143,12.3725 -0.2472,19.28701c-0.03201,0.46595 -0.42326,0.82163 -0.88388,0.82163z" fill="#ffffff"/></g></g></svg>