<svg xmlns="http://www.w3.org/2000/svg" xmlns:xlink="http://www.w3.org/1999/xlink" version="1.1" viewBox="0 0 172 172"><g fill="none" fill-rule="nonzero" stroke="none" stroke-width="1" stroke-linecap="butt" stroke-linejoin="miter" stroke-miterlimit="10" stroke-dasharray="" stroke-dashoffset="0" font-family="none" font-weight="none" font-size="none" text-anchor="none" style="mix-blend-mode: normal"><path d="M0,172v-172h172v172z" fill="none"/><path d="M25.8,172c-14.24895,0 -25.8,-11.55105 -25.8,-25.8v-120.4c0,-14.24895 11.55105,-25.8 25.8,-25.8h120.4c14.24895,0 25.8,11.55105 25.8,25.8v120.4c0,14.24895 -11.55105,25.8 -25.8,25.8z" fill="#1a314f"/><g fill="#ffffff"><path d="M85.84636,54.86743l3.07987,7.26521c1.34196,3.16588 0.59842,6.88896 -1.84183,9.20379l-5.75483,5.461c-0.64858,0.61633 -0.98542,1.51038 -0.84029,2.39187c0.55542,3.37013 1.78629,6.69367 3.69262,9.97242c1.90275,3.27158 4.21937,6.05583 6.95167,8.35096c0.72383,0.60737 1.72896,0.76504 2.62479,0.46583l6.71338,-2.23958c3.09062,-1.03021 6.45537,0.15408 8.35096,2.93833l4.41646,6.48762c2.20375,3.23754 1.80779,7.70237 -0.92629,10.44721l-2.93117,2.94192c-2.91683,2.92758 -7.08246,3.99004 -10.93633,2.78783c-9.09808,-2.838 -17.46158,-11.26242 -25.09408,-25.27504c-7.64325,-14.03233 -10.33971,-25.93975 -8.09117,-35.71867c0.946,-4.11546 3.87538,-7.39242 7.70058,-8.61433l3.85746,-1.23267c3.61917,-1.15204 7.48021,0.71487 9.02821,4.36629z"/></g></g></svg>