<svg xmlns="http://www.w3.org/2000/svg" xmlns:xlink="http://www.w3.org/1999/xlink" version="1.1" viewBox="0 0 172 172"><g fill="none" fill-rule="nonzero" stroke="none" stroke-width="1" stroke-linecap="butt" stroke-linejoin="miter" stroke-miterlimit="10" stroke-dasharray="" stroke-dashoffset="0" font-family="none" font-weight="none" font-size="none" text-anchor="none" style="mix-blend-mode: normal"><path d="M0,172v-172h172v172z" fill="none"/><path d="M25.8,172c-14.24895,0 -25.8,-11.55105 -25.8,-25.8v-120.4c0,-14.24895 11.55105,-25.8 25.8,-25.8h120.4c14.24895,0 25.8,11.55105 25.8,25.8v120.4c0,14.24895 -11.55105,25.8 -25.8,25.8z" fill="#1a314f"/><g fill="#ffffff"><path d="M86,45.6875c-5.92615,0 -10.75,4.82385 -10.75,10.75v3.61133l-2.55102,-2.55627c-2.03137,-2.02612 -4.73462,-3.14416 -7.60584,-3.14416c-2.87121,0 -5.56921,1.11804 -7.60059,3.14416c-4.18872,4.19397 -4.18872,11.01245 0,15.20117l2.55627,2.55627h-3.61133c-2.87122,0 -5.56921,1.11804 -7.60059,3.14941c-2.03137,2.03137 -3.14941,4.72937 -3.14941,7.60059c0,5.92615 4.82385,10.75 10.75,10.75h3.61133l-2.55627,2.55103c-2.03137,2.03137 -3.14416,4.72937 -3.14416,7.60583c0,2.87122 1.11279,5.56921 3.14416,7.60059c2.03662,2.03137 4.73462,3.14941 7.60059,3.14941c2.87122,0 5.57446,-1.11804 7.60584,-3.14941l2.55102,-2.55627v3.61133c0,2.87122 1.11804,5.56921 3.14941,7.60059c2.03137,2.03137 4.72937,3.14941 7.60059,3.14941c5.92615,0 10.75,-4.82385 10.75,-10.75v-3.61133l2.55103,2.55627c2.03137,2.02612 4.73462,3.14941 7.60583,3.14941c2.87122,0 5.56921,-1.12329 7.60059,-3.14941c4.18872,-4.19397 4.18872,-11.01245 0,-15.20117l-2.55627,-2.55627h3.61133c2.87122,0 5.56921,-1.11804 7.60059,-3.14941c2.03137,-2.03137 3.14941,-4.72937 3.14941,-7.60059c0,-5.92615 -4.82385,-10.75 -10.75,-10.75h-3.61133l2.55627,-2.55102c2.03137,-2.03137 3.14941,-4.72937 3.14941,-7.60584c0,-2.87121 -1.11804,-5.56921 -3.14941,-7.60059c-2.03662,-2.03137 -4.73462,-3.14941 -7.60059,-3.14941c-2.87122,0 -5.57446,1.11804 -7.60583,3.14941l-2.55103,2.55627v-3.61133c0,-2.87122 -1.11804,-5.56921 -3.14941,-7.60059c-2.03137,-2.03137 -4.72937,-3.14941 -7.60059,-3.14941zM86,48.375c2.1521,0 4.17822,0.83984 5.70044,2.36206c1.52222,1.52222 2.36206,3.54834 2.36206,5.70044v16.125c0,2.80823 -1.46448,5.25952 -3.65332,6.69775c-0.83984,-0.55115 -1.78992,-0.95532 -2.80823,-1.16003c-0.10498,-0.5249 -0.16272,-1.0603 -0.16272,-1.6062c0,-2.1521 0.83984,-4.17297 2.36206,-5.69519l2.50903,-2.51428c0.5249,-0.5249 0.5249,-1.36999 0,-1.8949c-0.5249,-0.53015 -1.37524,-0.53015 -1.90015,0l-2.50903,2.50378c-0.77161,0.77161 -1.40674,1.6377 -1.90015,2.57202c-0.49341,-0.92383 -1.12329,-1.78992 -1.8949,-2.57202l-6.1676,-6.1571v-6.29883c0,-4.44592 3.61658,-8.0625 8.0625,-8.0625zM106.90686,57.03064c2.14685,0 4.17297,0.83984 5.69519,2.36731c1.52747,1.52222 2.36731,3.54834 2.36731,5.70044c0,2.1521 -0.83984,4.17822 -2.36731,5.70044l-4.45117,4.45117h-8.71338c-1.08655,0 -2.1521,0.16272 -3.16516,0.47241c0.30969,-0.99732 0.47766,-2.06287 0.47766,-3.15991v-8.71338l4.45117,-4.45117c1.52747,-1.52747 3.55359,-2.36731 5.70569,-2.36731zM65.09314,57.03064c2.15735,0 4.17822,0.83984 5.70569,2.36731l4.45117,4.45117v8.71338c0,1.0918 0.16272,2.15735 0.47766,3.17041c-1.00781,-0.30969 -2.06812,-0.48291 -3.16516,-0.48291h-8.71338l-4.45117,-4.45117c-3.14417,-3.14417 -3.14417,-8.26196 0,-11.40088c1.52222,-1.52747 3.54309,-2.36731 5.69519,-2.36731zM77.9375,66.53662l4.26221,4.26221c1.98938,1.98938 2.66126,4.75562 2.11536,7.32239c-1.00256,0.20996 -1.93689,0.60889 -2.76624,1.16003c-0.44617,-0.29395 -0.86609,-0.62988 -1.25452,-1.01831c-1.51697,-1.52222 -2.35681,-3.54834 -2.35681,-5.70044zM56.4375,77.9375h16.125c2.78723,0 5.24377,1.45398 6.68201,3.67432c-0.54065,0.8346 -0.93957,1.76892 -1.14429,2.78198c-0.51965,0.11023 -1.05505,0.16797 -1.60095,0.16797c-2.1521,0 -4.17822,-0.83984 -5.70044,-2.36206l-2.25708,-2.25708c-0.5249,-0.5249 -1.37524,-0.5249 -1.90015,0c-0.5249,0.5249 -0.5249,1.37524 0,1.90015l2.25708,2.25708c0.77161,0.77161 1.64294,1.41199 2.57727,1.90539c-0.92908,0.49341 -1.80041,1.11804 -2.57727,1.8949l-6.16235,6.16235h-6.29883c-4.44592,0 -8.0625,-3.61658 -8.0625,-8.0625c0,-2.1521 0.83984,-4.17822 2.36206,-5.70044c1.52222,-1.52222 3.54834,-2.36206 5.70044,-2.36206zM99.4375,77.9375h6.02588l-4.26221,4.26221c-1.98938,1.98938 -4.75561,2.66126 -7.32239,2.11536c-0.20996,-1.00256 -0.60889,-1.93689 -1.16003,-2.76624c0.29395,-0.44092 0.62988,-0.86609 1.01831,-1.25452c1.52222,-1.51697 3.54834,-2.35681 5.70044,-2.35681zM109.26367,77.9375h6.29883c4.44592,0 8.0625,3.61658 8.0625,8.0625c0,2.1521 -0.83984,4.17822 -2.36206,5.70044c-1.52222,1.52222 -3.54834,2.36206 -5.70044,2.36206h-16.125c-2.81348,0 -5.25952,-1.46448 -6.69775,-3.65332c0.55115,-0.83984 0.95532,-1.78467 1.16003,-2.80823c0.5249,-0.10498 1.05505,-0.16272 1.60095,-0.16272c2.1521,0 4.17822,0.83984 5.70044,2.36206l2.55627,2.55627c0.5249,0.5249 1.37524,0.5249 1.90015,0c0.5249,-0.53015 0.5249,-1.37524 0,-1.9054l-2.55627,-2.55102c-0.76636,-0.76636 -1.63245,-1.40674 -2.56677,-1.90015c0.93433,-0.49341 1.80042,-1.13379 2.56677,-1.90015zM86,80.625c2.9657,0 5.375,2.4093 5.375,5.375c0,2.9657 -2.4093,5.375 -5.375,5.375c-2.9657,0 -5.375,-2.4093 -5.375,-5.375c0,-2.9657 2.4093,-5.375 5.375,-5.375zM52.40625,83.3125c-0.74536,0 -1.34375,0.60364 -1.34375,1.34375v2.6875c0,0.74011 0.59839,1.34375 1.34375,1.34375c0.74536,0 1.34375,-0.60364 1.34375,-1.34375v-2.6875c0,-0.74011 -0.59839,-1.34375 -1.34375,-1.34375zM59.125,83.3125c-0.74536,0 -1.34375,0.60364 -1.34375,1.34375v2.6875c0,0.74011 0.59839,1.34375 1.34375,1.34375c0.74536,0 1.34375,-0.60364 1.34375,-1.34375v-2.6875c0,-0.74011 -0.59839,-1.34375 -1.34375,-1.34375zM65.84375,83.3125c-0.74536,0 -1.34375,0.60364 -1.34375,1.34375v2.6875c0,0.74011 0.59839,1.34375 1.34375,1.34375c0.74536,0 1.34375,-0.60364 1.34375,-1.34375v-2.6875c0,-0.74011 -0.59839,-1.34375 -1.34375,-1.34375zM106.15625,83.3125c-0.74536,0 -1.34375,0.60364 -1.34375,1.34375v2.6875c0,0.74011 0.59839,1.34375 1.34375,1.34375c0.74536,0 1.34375,-0.60364 1.34375,-1.34375v-2.6875c0,-0.74011 -0.59839,-1.34375 -1.34375,-1.34375zM112.875,83.3125c-0.74536,0 -1.34375,0.60364 -1.34375,1.34375v2.6875c0,0.74011 0.59839,1.34375 1.34375,1.34375c0.74536,0 1.34375,-0.60364 1.34375,-1.34375v-2.6875c0,-0.74011 -0.59839,-1.34375 -1.34375,-1.34375zM119.59375,83.3125c-0.74536,0 -1.34375,0.60364 -1.34375,1.34375v2.6875c0,0.74011 0.59839,1.34375 1.34375,1.34375c0.74536,0 1.34375,-0.60364 1.34375,-1.34375v-2.6875c0,-0.74011 -0.59839,-1.34375 -1.34375,-1.34375zM76.15808,87.49072c0.65088,-0.01575 1.30701,0.04199 1.95264,0.17847c0.21521,1.00781 0.61939,1.94739 1.17053,2.78198c-0.29395,0.44092 -0.62988,0.86084 -1.01831,1.24927c-1.52222,1.52222 -3.54834,2.36206 -5.70044,2.36206h-6.02588l4.26221,-4.26221c1.48023,-1.48022 3.40137,-2.24658 5.35925,-2.30957zM90.44592,92.71875c0.44617,0.29395 0.86609,0.62988 1.25452,1.01831c1.52222,1.52222 2.36206,3.54834 2.36206,5.70044v6.02588l-4.26221,-4.26221c-1.96838,-1.96838 -2.68225,-4.72937 -2.1311,-7.31189c1.00781,-0.21521 1.94739,-0.61939 2.77673,-1.17053zM81.61182,92.75549c0.8346,0.54065 1.77417,0.94482 2.78723,1.14429c0.10498,0.5249 0.16272,1.05505 0.16272,1.60095c0,2.1521 -0.83984,4.17822 -2.36206,5.70044l-2.37781,2.38306c-0.53015,0.5249 -0.53015,1.37524 0,1.90015c0.5249,0.5249 1.36999,0.5249 1.8949,0l2.38306,-2.37781c0.77161,-0.77161 1.41199,-1.64294 1.90539,-2.57727c0.49341,0.92383 1.11804,1.80042 1.8949,2.57727l6.16235,6.1571v6.29883c0,4.44592 -3.61658,8.0625 -8.0625,8.0625c-2.1521,0 -4.17822,-0.83984 -5.70044,-2.36206c-1.52222,-1.52222 -2.36206,-3.54834 -2.36206,-5.70044v-16.125c0,-2.78723 1.44873,-5.24377 3.67432,-6.68201zM75.73291,96.27234c-0.30969,1.00781 -0.48291,2.06812 -0.48291,3.16516v8.71338l-4.45117,4.45117c-1.52747,1.52747 -3.55359,2.36731 -5.70569,2.36731c-2.14685,0 -4.17297,-0.83984 -5.69519,-2.36731c-1.52747,-1.52222 -2.36731,-3.54834 -2.36731,-5.70044c0,-2.1521 0.83984,-4.17822 2.36731,-5.70044l4.45117,-4.45117h8.71338c1.0918,0 2.15735,-0.16272 3.17041,-0.47766zM96.27759,96.27234c0.99731,0.30969 2.06287,0.47766 3.15991,0.47766h8.71338l4.45117,4.45117c3.14417,3.14417 3.14417,8.26196 0,11.40088c-1.52222,1.52747 -3.54309,2.36731 -5.69519,2.36731c-2.15735,0 -4.17822,-0.83984 -5.70569,-2.36731l-4.45117,-4.45117v-8.71338c0,-1.08655 -0.16272,-2.1521 -0.47241,-3.16516z"/></g></g></svg>