<svg xmlns="http://www.w3.org/2000/svg" xmlns:xlink="http://www.w3.org/1999/xlink" version="1.1" viewBox="0 0 172 172"><g fill="none" fill-rule="nonzero" stroke="none" stroke-width="1" stroke-linecap="butt" stroke-linejoin="miter" stroke-miterlimit="10" stroke-dasharray="" stroke-dashoffset="0" font-family="none" font-weight="none" font-size="none" text-anchor="none" style="mix-blend-mode: normal"><path d="M0,172v-172h172v172z" fill="none"/><path d="M25.8,172c-14.24895,0 -25.8,-11.55105 -25.8,-25.8v-120.4c0,-14.24895 11.55105,-25.8 25.8,-25.8h120.4c14.24895,0 25.8,11.55105 25.8,25.8v120.4c0,14.24895 -11.55105,25.8 -25.8,25.8z" fill="#1a314f"/><g fill="#ffffff"><path d="M86,48.375c-20.76381,0 -37.625,16.8612 -37.625,37.625c0,20.7638 16.86119,37.625 37.625,37.625c20.76381,0 37.625,-16.8612 37.625,-37.625c0,-20.7638 -16.86119,-37.625 -37.625,-37.625zM86,51.0625c19.31138,0 34.9375,15.62613 34.9375,34.9375c0,19.31137 -15.62612,34.9375 -34.9375,34.9375c-19.31138,0 -34.9375,-15.62613 -34.9375,-34.9375c0,-19.31137 15.62612,-34.9375 34.9375,-34.9375zM85.979,55.07538c-0.7411,0.01158 -1.3329,0.621 -1.32275,1.36212v1.37787c-0.75088,0.03531 -1.49107,0.10641 -2.22559,0.19946l-0.24146,-1.36212c-0.10472,-0.64528 -0.65857,-1.1216 -1.31226,-1.12854c-0.40282,-0.00395 -0.78618,0.17301 -1.04447,0.48215c-0.25829,0.30914 -0.36429,0.71785 -0.28878,1.11355l0.23883,1.3595c-0.73002,0.16465 -1.4525,0.3494 -2.15997,0.56952l-0.46979,-1.28863c-0.18247,-0.52286 -0.66698,-0.88025 -1.2204,-0.90021c-0.4503,-0.01627 -0.87879,0.19421 -1.14114,0.56055c-0.26235,0.36634 -0.32365,0.83978 -0.16324,1.26086l0.46979,1.29126c-0.69016,0.28988 -1.35455,0.6239 -2.01562,0.96582l-0.70075,-1.21252c-0.24617,-0.44072 -0.71856,-0.70631 -1.22302,-0.68762c-0.47394,0.01829 -0.90314,0.28506 -1.12935,0.70193c-0.22621,0.41687 -0.21593,0.92212 0.02706,1.32944l0.70074,1.21515c-0.62668,0.40402 -1.23001,0.83767 -1.82141,1.28864l-0.90808,-1.08392c-0.25959,-0.31769 -0.65008,-0.49941 -1.0603,-0.49341c-0.52139,0.00826 -0.99094,0.3174 -1.2046,0.79308c-0.21366,0.47568 -0.13286,1.03202 0.20729,1.42726l0.90808,1.08392c-0.54679,0.50546 -1.07188,1.03054 -1.57733,1.57733l-1.08392,-0.90808c-0.23933,-0.20736 -0.5442,-0.32355 -0.86084,-0.32806c-0.57167,-0.00736 -1.08542,0.34778 -1.28051,0.88518c-0.1951,0.5374 -0.02883,1.13941 0.41442,1.5005l1.08392,0.90808c-0.45096,0.5914 -0.88462,1.19473 -1.28864,1.82141l-1.21515,-0.70074c-0.23228,-0.13931 -0.50124,-0.20517 -0.77161,-0.18896c-0.59501,0.03712 -1.09444,0.46179 -1.22672,1.04309c-0.13228,0.5813 0.13422,1.18027 0.65457,1.47119l1.21252,0.70075c-0.34192,0.66107 -0.67594,1.32546 -0.96582,2.01562l-1.29126,-0.46979c-0.16827,-0.06391 -0.34766,-0.09336 -0.52753,-0.08661c-0.6454,0.02415 -1.18234,0.50398 -1.27862,1.14261c-0.09628,0.63863 0.27535,1.25543 0.88494,1.46878l1.28863,0.46979c-0.22012,0.70748 -0.40487,1.42996 -0.56952,2.15997l-1.3595,-0.23883c-0.08822,-0.0168 -0.1779,-0.02471 -0.2677,-0.02362c-0.69463,0.01162 -1.2659,0.55076 -1.31767,1.24355c-0.05177,0.69279 0.43303,1.31085 1.11821,1.42558l1.36212,0.24146c-0.09305,0.73452 -0.16415,1.47471 -0.19946,2.22559h-1.37787c-0.4846,-0.00685 -0.93536,0.24775 -1.17966,0.66633c-0.2443,0.41857 -0.2443,0.93627 0,1.35484c0.2443,0.41857 0.69506,0.67318 1.17966,0.66633h1.37787c0.03531,0.75088 0.10641,1.49107 0.19946,2.22559l-1.36212,0.24146c-0.48518,0.07002 -0.89375,0.39866 -1.06612,0.85757c-0.17237,0.4589 -0.08119,0.97526 0.23793,1.34737c0.31911,0.37212 0.81553,0.54095 1.29535,0.44056l1.3595,-0.23883c0.16465,0.73002 0.3494,1.4525 0.56952,2.15997l-1.28863,0.46979c-0.4564,0.16057 -0.79126,0.55409 -0.87673,1.0303c-0.08547,0.47621 0.09163,0.96161 0.4637,1.27089c0.37207,0.30927 0.88166,0.39467 1.33423,0.2236l1.29126,-0.46979c0.28988,0.69016 0.6239,1.35455 0.96582,2.01563l-1.21252,0.70075c-0.43614,0.22948 -0.71169,0.67929 -0.718,1.17208c-0.00632,0.49279 0.25761,0.94951 0.68773,1.19009c0.43012,0.24059 0.95742,0.22644 1.37402,-0.03686l1.21515,-0.70074c0.40402,0.62669 0.83767,1.23001 1.28864,1.82141l-1.08392,0.90808c-0.38626,0.30282 -0.57672,0.79213 -0.49681,1.2764c0.0799,0.48427 0.41746,0.88646 0.88052,1.04914c0.46307,0.16268 0.978,0.05997 1.34322,-0.26791l1.08392,-0.90808c0.50546,0.54679 1.03054,1.07188 1.57733,1.57733l-0.90808,1.08392c-0.32789,0.36522 -0.4306,0.88015 -0.26791,1.34322c0.16268,0.46307 0.56487,0.80062 1.04914,0.88052c0.48427,0.0799 0.97358,-0.11055 1.2764,-0.49681l0.90808,-1.08392c0.5914,0.45096 1.19473,0.88462 1.82141,1.28864l-0.70074,1.21515c-0.2633,0.4166 -0.27744,0.9439 -0.03686,1.37402c0.24059,0.43012 0.6973,0.69404 1.19009,0.68773c0.49279,-0.00632 0.94259,-0.28186 1.17208,-0.718l0.70075,-1.21252c0.66107,0.34192 1.32546,0.67594 2.01562,0.96582l-0.46979,1.29126c-0.17108,0.45257 -0.08567,0.96216 0.2236,1.33423c0.30927,0.37207 0.79467,0.54917 1.27089,0.4637c0.47621,-0.08547 0.86972,-0.42033 1.0303,-0.87673l0.46979,-1.28863c0.70748,0.22012 1.42996,0.40487 2.15997,0.56952l-0.23883,1.3595c-0.10039,0.47982 0.06845,0.97624 0.44056,1.29535c0.37212,0.31911 0.88847,0.4103 1.34737,0.23793c0.4589,-0.17237 0.78755,-0.58093 0.85757,-1.06612l0.24146,-1.36212c0.73452,0.09305 1.47471,0.16415 2.22559,0.19946v1.37787c-0.00685,0.4846 0.24775,0.93536 0.66633,1.17966c0.41857,0.2443 0.93627,0.2443 1.35484,0c0.41857,-0.2443 0.67318,-0.69506 0.66633,-1.17966v-1.37787c0.75088,-0.03531 1.49107,-0.10641 2.22559,-0.19946l0.24146,1.36212c0.07002,0.48518 0.39866,0.89375 0.85757,1.06612c0.4589,0.17237 0.97526,0.08119 1.34737,-0.23793c0.37212,-0.31911 0.54095,-0.81553 0.44056,-1.29535l-0.23883,-1.3595c0.73002,-0.16465 1.4525,-0.3494 2.15997,-0.56952l0.46979,1.28863c0.16057,0.4564 0.55409,0.79126 1.0303,0.87673c0.47621,0.08547 0.96161,-0.09163 1.27089,-0.4637c0.30927,-0.37207 0.39467,-0.88166 0.2236,-1.33423l-0.46979,-1.29126c0.69016,-0.28988 1.35455,-0.6239 2.01563,-0.96582l0.70075,1.21252c0.22948,0.43614 0.67929,0.71169 1.17208,0.718c0.49279,0.00632 0.94951,-0.25761 1.19009,-0.68773c0.24059,-0.43012 0.22644,-0.95742 -0.03686,-1.37402l-0.70074,-1.21515c0.62668,-0.40402 1.23001,-0.83767 1.82141,-1.28864l0.90808,1.08392c0.30282,0.38626 0.79213,0.57672 1.2764,0.49681c0.48427,-0.0799 0.88646,-0.41746 1.04914,-0.88052c0.16268,-0.46307 0.05997,-0.978 -0.26791,-1.34322l-0.90808,-1.08392c0.54679,-0.50546 1.07188,-1.03054 1.57733,-1.57733l1.08392,0.90808c0.36522,0.32789 0.88015,0.4306 1.34322,0.26791c0.46307,-0.16268 0.80062,-0.56487 0.88052,-1.04914c0.0799,-0.48427 -0.11055,-0.97358 -0.49681,-1.2764l-1.08392,-0.90808c0.45096,-0.5914 0.88462,-1.19473 1.28864,-1.82141l1.21515,0.70074c0.4166,0.2633 0.9439,0.27744 1.37402,0.03686c0.43012,-0.24059 0.69404,-0.6973 0.68773,-1.19009c-0.00632,-0.49279 -0.28186,-0.94259 -0.718,-1.17208l-1.21252,-0.70075c0.34192,-0.66107 0.67594,-1.32546 0.96582,-2.01563l1.29126,0.46979c0.45257,0.17108 0.96216,0.08567 1.33423,-0.2236c0.37207,-0.30927 0.54917,-0.79467 0.4637,-1.27089c-0.08547,-0.47621 -0.42033,-0.86972 -0.87673,-1.0303l-1.28863,-0.46979c0.22012,-0.70748 0.40487,-1.42996 0.56952,-2.15997l1.3595,0.23883c0.47982,0.10039 0.97624,-0.06845 1.29535,-0.44056c0.31911,-0.37212 0.4103,-0.88847 0.23793,-1.34737c-0.17237,-0.4589 -0.58093,-0.78755 -1.06612,-0.85757l-1.36212,-0.24146c0.09305,-0.73452 0.16415,-1.47471 0.19946,-2.22559h1.37787c0.4846,0.00685 0.93536,-0.24775 1.17966,-0.66633c0.2443,-0.41857 0.2443,-0.93627 0,-1.35484c-0.2443,-0.41857 -0.69506,-0.67318 -1.17966,-0.66633h-1.37787c-0.03531,-0.75088 -0.10641,-1.49107 -0.19946,-2.22559l1.36212,-0.24146c0.69239,-0.11622 1.17865,-0.74583 1.11607,-1.44511c-0.06257,-0.69929 -0.65288,-1.23256 -1.35491,-1.22401c-0.07664,0.00135 -0.15303,0.00925 -0.22833,0.02362l-1.3595,0.23883c-0.16465,-0.73002 -0.3494,-1.4525 -0.56952,-2.15997l1.28863,-0.46979c0.61922,-0.21404 0.99385,-0.84342 0.88677,-1.48978c-0.10708,-0.64636 -0.66465,-1.12131 -1.31981,-1.12423c-0.16685,-0.00082 -0.33239,0.02944 -0.48816,0.08923l-1.29126,0.46979c-0.28988,-0.69016 -0.6239,-1.35455 -0.96582,-2.01562l1.21252,-0.70075c0.52484,-0.29529 0.78917,-0.90368 0.64685,-1.48883c-0.14232,-0.58515 -0.65653,-1.00419 -1.25836,-1.02545c-0.25714,-0.0084 -0.51128,0.05719 -0.73224,0.18896l-1.21515,0.70074c-0.40402,-0.62669 -0.83767,-1.23001 -1.28864,-1.82141l1.08392,-0.90808c0.44752,-0.366 0.61081,-0.97718 0.40548,-1.51761c-0.20534,-0.54043 -0.73329,-0.88897 -1.31093,-0.86545c-0.30268,0.01279 -0.59216,0.12747 -0.82147,0.32544l-1.08392,0.90808c-0.50546,-0.54679 -1.03054,-1.07188 -1.57733,-1.57733l0.90808,-1.08392c0.3451,-0.40101 0.42282,-0.96718 0.19853,-1.44634c-0.22429,-0.47916 -0.70884,-0.78214 -1.23783,-0.774c-0.39551,0.00659 -0.76803,0.18709 -1.01831,0.49341l-0.90808,1.08392c-0.5914,-0.45096 -1.19473,-0.88462 -1.82141,-1.28864l0.70074,-1.21515c0.2461,-0.41331 0.25253,-0.92663 0.01685,-1.34597c-0.23568,-0.41934 -0.67751,-0.68074 -1.15852,-0.6854c-0.49047,-0.00397 -0.94415,0.25959 -1.18365,0.68762l-0.70075,1.21252c-0.66107,-0.34192 -1.32546,-0.67594 -2.01563,-0.96582l0.46979,-1.29126c0.15442,-0.40545 0.1036,-0.86051 -0.13646,-1.2219c-0.24006,-0.36139 -0.63983,-0.58466 -1.07344,-0.59951c-0.58811,-0.02017 -1.12095,0.34462 -1.31488,0.90021l-0.46979,1.28863c-0.70748,-0.22012 -1.42996,-0.40487 -2.15997,-0.56952l0.23883,-1.3595c0.07726,-0.4031 -0.03393,-0.8194 -0.30188,-1.1303c-0.26795,-0.3109 -0.66328,-0.48231 -1.07337,-0.4654c-0.63769,0.02681 -1.16855,0.49845 -1.27026,1.12854l-0.24146,1.36212c-0.73452,-0.09305 -1.47471,-0.16415 -2.22559,-0.19946v-1.37787c0.00497,-0.36322 -0.1373,-0.71298 -0.3944,-0.96959c-0.2571,-0.25661 -0.60714,-0.39821 -0.97034,-0.39254zM85.84253,60.47662c0.10808,0.01318 0.21736,0.01318 0.32544,0c1.37232,0.00891 2.71099,0.14556 4.02338,0.36218c0.17173,0.06442 0.35483,0.093 0.53802,0.08398c2.7593,0.51607 5.36092,1.46978 7.72919,2.7951c0.1537,0.15509 0.34287,0.2704 0.55115,0.33594c1.16831,0.69331 2.28707,1.45527 3.32526,2.32007c0.00864,0.00799 0.01739,0.01586 0.02624,0.02362c1.1609,0.96973 2.2351,2.04302 3.20715,3.2019c0.01112,0.01334 0.02249,0.02647 0.03412,0.03937c0.8725,1.04452 1.64245,2.16961 2.34106,3.34625c0.06591,0.20948 0.18216,0.39962 0.33856,0.55377c1.32548,2.36806 2.27878,4.97007 2.7951,7.72919c-0.01075,0.1895 0.01877,0.37913 0.08661,0.5564c0.21552,1.31079 0.35121,2.64763 0.35956,4.01813c-0.01318,0.10808 -0.01318,0.21736 0,0.32544c-0.02946,4.53667 -1.24677,8.7821 -3.34363,12.46118c-0.04581,0.06203 -0.08621,0.12788 -0.12073,0.19684c-0.69411,1.19257 -1.46142,2.33414 -2.33319,3.39349c-0.11075,0.09013 -0.20644,0.19733 -0.28345,0.31757c-0.8904,1.04605 -1.86427,2.02048 -2.91058,2.91058c-0.11481,0.07492 -0.21748,0.16697 -0.30444,0.27295c-1.05511,0.86894 -2.19294,1.63265 -3.38037,2.32532c-0.0767,0.03759 -0.14964,0.08241 -0.21783,0.13385c-3.68337,2.0993 -7.9343,3.31689 -12.47693,3.34363c-0.05745,-0.00723 -0.11531,-0.01073 -0.17322,-0.0105c-0.04915,0.00081 -0.09821,0.00431 -0.14697,0.0105c-4.5515,-0.02956 -8.80797,-1.25772 -12.4953,-3.36725c-0.04788,-0.03295 -0.09785,-0.06276 -0.1496,-0.08923c-1.19805,-0.69634 -2.3455,-1.46554 -3.40924,-2.34106c-0.08815,-0.10826 -0.19264,-0.20212 -0.30969,-0.2782c-1.04537,-0.8893 -2.01821,-1.86298 -2.90796,-2.90796c-0.07871,-0.12364 -0.17712,-0.23357 -0.29132,-0.32544c-0.8776,-1.06706 -1.64899,-2.21769 -2.34631,-3.41974c-0.02313,-0.04246 -0.04854,-0.08363 -0.07611,-0.12335c-2.11364,-3.6918 -3.34212,-7.95531 -3.36987,-12.51367c0.01318,-0.10808 0.01318,-0.21736 0,-0.32544c0.00891,-1.37232 0.14556,-2.71099 0.36218,-4.02338c0.06442,-0.17173 0.093,-0.35483 0.08398,-0.53802c0.51607,-2.75929 1.46978,-5.36092 2.7951,-7.72919c0.15509,-0.1537 0.2704,-0.34287 0.33594,-0.55115c0.69457,-1.17045 1.45864,-2.29067 2.32532,-3.3305c0.0062,-0.00693 0.01232,-0.01393 0.01837,-0.021c0.97452,-1.16664 2.05479,-2.24443 3.22028,-3.22028c0.00708,-0.00692 0.01407,-0.01392 0.021,-0.021c1.04451,-0.87251 2.16961,-1.64245 3.34625,-2.34106c0.20948,-0.06591 0.39962,-0.18216 0.55377,-0.33856c2.36806,-1.32548 4.97007,-2.27878 7.72919,-2.7951c0.1895,0.01075 0.37913,-0.01877 0.5564,-0.08661c1.31079,-0.21552 2.64763,-0.35121 4.01813,-0.35956zM86,64.5c-1.64341,0 -3.24327,0.18212 -4.78186,0.53015c-2.69691,0.60872 -4.03308,3.65416 -2.61139,6.02588l6.98382,11.64496c0.72831,1.21341 2.04279,1.95526 3.45911,1.95526h13.57135c2.69287,0 4.68809,-2.60897 3.87378,-5.17554c-2.76275,-8.69406 -10.89237,-14.98071 -20.49481,-14.98071zM86,67.1875c8.23584,0 15.44198,5.26737 17.93329,13.10681c0.16125,0.50794 -0.05312,0.9088 -0.19421,1.1023c-0.12631,0.17334 -0.48648,0.57214 -1.11804,0.57214h-5.2254c-0.09762,-0.2758 -0.20614,-0.54482 -0.32282,-0.81097l1.23615,-0.71387c0.52484,-0.29529 0.78917,-0.90368 0.64685,-1.48883c-0.14232,-0.58515 -0.65653,-1.00419 -1.25836,-1.02545c-0.25714,-0.0084 -0.51128,0.05719 -0.73224,0.18896l-1.2309,0.71124c-0.30307,-0.4103 -0.63546,-0.797 -0.98682,-1.16528l0.91858,-1.09442c0.3451,-0.40101 0.42282,-0.96718 0.19853,-1.44634c-0.22429,-0.47916 -0.70884,-0.78214 -1.23783,-0.774c-0.39551,0.00659 -0.76803,0.18709 -1.01831,0.49341l-0.91858,1.09442c-0.42241,-0.28131 -0.86281,-0.53638 -1.32013,-0.76373l0.48816,-1.34113c0.15442,-0.40545 0.1036,-0.86051 -0.13646,-1.2219c-0.24006,-0.36139 -0.63983,-0.58466 -1.07344,-0.59951c-0.58881,-0.0198 -1.12186,0.34621 -1.31488,0.90283l-0.48816,1.34113c-0.48967,-0.11841 -0.99069,-0.20835 -1.50122,-0.26508v-1.42773c0.00497,-0.36322 -0.1373,-0.71298 -0.3944,-0.96959c-0.2571,-0.25661 -0.60714,-0.39821 -0.97034,-0.39254c-0.7411,0.01158 -1.3329,0.621 -1.32275,1.36212v1.42773c-0.35633,0.03971 -0.70781,0.09501 -1.05505,0.16534l-2.69012,-4.48529c-0.30503,-0.50794 -0.18342,-0.97609 -0.08398,-1.2099c0.08331,-0.19619 0.3486,-0.66591 0.98419,-0.80835c1.36525,-0.30772 2.77375,-0.46454 4.18872,-0.46454zM72.84857,70.48914c-1.13009,0 -2.27314,0.4697 -3.09955,1.42511c-3.27069,3.77728 -5.24902,8.69597 -5.24902,14.08575c0,5.38978 1.97834,10.30975 5.24902,14.08838c0.82775,0.95541 1.96946,1.42249 3.09955,1.42249c1.34509,0 2.67461,-0.66136 3.44861,-1.95001l6.88672,-11.48749c0.76594,-1.27656 0.76594,-2.87017 0,-4.14673l-6.88672,-11.48749c-0.774,-1.28866 -2.10351,-1.95001 -3.44861,-1.95001zM72.84857,73.17664c0.22709,0 0.79491,0.06379 1.14429,0.64563l2.69012,4.48792c-0.14082,0.17036 -0.2779,0.34415 -0.40942,0.52228l-1.23877,-0.71387c-0.23228,-0.13931 -0.50124,-0.20517 -0.77161,-0.18896c-0.59501,0.03712 -1.09444,0.46179 -1.22672,1.04309c-0.13228,0.5813 0.13422,1.18027 0.65457,1.47119l1.22827,0.70862c-0.20346,0.46425 -0.36704,0.94827 -0.51178,1.44086l-1.40674,-0.24933c-0.08822,-0.0168 -0.1779,-0.02471 -0.2677,-0.02362c-0.69463,0.01162 -1.2659,0.55076 -1.31767,1.24355c-0.05177,0.69279 0.43303,1.31085 1.11821,1.42558l1.41199,0.24933c-0.01584,0.25289 -0.03937,0.5043 -0.03937,0.76111c0,0.25681 0.02353,0.50821 0.03937,0.76111l-1.41199,0.24933c-0.48518,0.07002 -0.89375,0.39866 -1.06612,0.85757c-0.17237,0.4589 -0.08119,0.97526 0.23793,1.34737c0.31911,0.37212 0.81553,0.54095 1.29535,0.44056l1.40674,-0.24933c0.14474,0.49258 0.30832,0.97661 0.51178,1.44086l-1.22827,0.70862c-0.43614,0.22948 -0.71169,0.67929 -0.718,1.17208c-0.00632,0.49279 0.25761,0.94951 0.68773,1.19009c0.43012,0.24059 0.95742,0.22644 1.37402,-0.03686l1.23877,-0.71387c0.13152,0.17813 0.2686,0.35192 0.40942,0.52228l-2.69012,4.48792c-0.34937,0.58319 -0.91719,0.64563 -1.14429,0.64563c-0.23784,0 -0.69333,-0.06341 -1.06555,-0.49341c-2.96431,-3.42253 -4.59552,-7.80152 -4.59552,-12.32996c0,-4.52844 1.63255,-8.90742 4.59552,-12.32996c0.37222,-0.42866 0.82636,-0.49341 1.06555,-0.49341zM86.17322,76.60162c0.96992,0.01757 1.90117,0.18447 2.77673,0.47241c0.16276,0.10132 0.34531,0.16665 0.5354,0.19159c0.90863,0.36147 1.74825,0.85408 2.49066,1.46448c0.04364,0.04247 0.09011,0.08193 0.1391,0.1181c0.72117,0.61674 1.34331,1.34261 1.85028,2.14948c0.06089,0.2272 0.18035,0.43445 0.34644,0.60101c0.06497,0.12271 0.13197,0.24419 0.19159,0.37006h-5.45374c-0.46897,0 -0.91291,-0.25038 -1.15479,-0.6535l-2.78986,-4.65064c0.25258,-0.02407 0.50311,-0.0567 0.76111,-0.06036c0.10212,0.01086 0.20515,0.00998 0.30707,-0.00262zM78.17371,80.79559l2.70587,4.51416c0.25531,0.42597 0.25531,0.95581 0,1.38312l-2.70587,4.51154c-0.08482,-0.12691 -0.1654,-0.25724 -0.24408,-0.38843c-0.04279,-0.09514 -0.09652,-0.18498 -0.1601,-0.2677c-0.47869,-0.86219 -0.82079,-1.80787 -1.00781,-2.81348c0,-0.00088 0,-0.00175 0,-0.00263c-0.00506,-0.05027 -0.01294,-0.10021 -0.02362,-0.1496c-0.08702,-0.5147 -0.14435,-1.04102 -0.14435,-1.58258c0,-0.4545 0.04328,-0.8973 0.10498,-1.33325c0.08414,-0.20052 0.11836,-0.41847 0.09973,-0.63513v-0.00262c0.18445,-0.8685 0.49728,-1.68441 0.90283,-2.44342c0.15033,-0.1551 0.26107,-0.34416 0.32281,-0.55115c0.0498,-0.07959 0.09749,-0.16087 0.1496,-0.23883zM86,84.65625c-0.74213,0 -1.34375,0.60162 -1.34375,1.34375c0,0.74213 0.60162,1.34375 1.34375,1.34375c0.74213,0 1.34375,-0.60162 1.34375,-1.34375c0,-0.74213 -0.60162,-1.34375 -1.34375,-1.34375zM89.04968,87.34375c-1.41631,0 -2.73079,0.74314 -3.45911,1.95789l-6.98382,11.64496c-1.42169,2.37038 -0.08552,5.41319 2.61139,6.02325c1.53859,0.34669 3.13845,0.53015 4.78186,0.53015c9.60244,0 17.73206,-6.28665 20.49481,-14.98071c0.81431,-2.56656 -1.1809,-5.17554 -3.87378,-5.17554zM89.04968,90.03125h5.45374c-0.08103,0.17092 -0.17161,0.33623 -0.26245,0.50128c-0.08523,0.10794 -0.15338,0.22832 -0.20209,0.35693c-0.49874,0.81926 -1.11954,1.55439 -1.83716,2.18359c-0.11778,0.07086 -0.224,0.15938 -0.31494,0.26245c-0.74272,0.5961 -1.57606,1.08282 -2.48016,1.43298c-0.12717,0.02505 -0.25004,0.06837 -0.36481,0.1286c-0.90659,0.30861 -1.87504,0.48465 -2.88434,0.50128c-0.05919,-0.00746 -0.11881,-0.01096 -0.17847,-0.0105c-0.04034,0.00081 -0.08062,0.00344 -0.12073,0.00787c-0.2553,-0.00383 -0.50325,-0.03654 -0.75324,-0.06036l2.78986,-4.65326c0.24188,-0.40178 0.68582,-0.65088 1.15479,-0.65088zM97.39563,90.03125h5.2254c0.63156,0 0.99173,0.40014 1.11804,0.57214c0.14109,0.1935 0.35546,0.59173 0.19421,1.09967c-2.49131,7.84078 -9.69744,13.10944 -17.93329,13.10944c-1.41497,0 -2.82347,-0.15548 -4.18872,-0.46454c-0.63425,-0.14378 -0.89953,-0.61613 -0.98419,-0.81097c-0.09944,-0.23381 -0.22105,-0.70062 0.08398,-1.2099l2.6875,-4.48267c0.34806,0.07058 0.70048,0.12553 1.05768,0.16534v1.42773c-0.00685,0.4846 0.24775,0.93536 0.66633,1.17966c0.41857,0.2443 0.93627,0.2443 1.35484,0c0.41857,-0.2443 0.67318,-0.69506 0.66633,-1.17966v-1.42773c0.51055,-0.05674 1.01154,-0.14664 1.50122,-0.26508l0.48816,1.34113c0.15416,0.46428 0.54845,0.80811 1.02939,0.89767c0.48094,0.08956 0.97256,-0.0893 1.28351,-0.46697c0.31095,-0.37767 0.39211,-0.89448 0.21189,-1.34928l-0.48816,-1.34113c0.45732,-0.2274 0.89772,-0.48239 1.32013,-0.76373l0.91858,1.09442c0.30282,0.38626 0.79213,0.57672 1.2764,0.49681c0.48427,-0.0799 0.88646,-0.41746 1.04914,-0.88052c0.16268,-0.46307 0.05997,-0.978 -0.26791,-1.34322l-0.91858,-1.09442c0.35144,-0.36836 0.68368,-0.7549 0.98682,-1.16528l1.2309,0.71124c0.4166,0.2633 0.9439,0.27744 1.37402,0.03686c0.43012,-0.24059 0.69404,-0.6973 0.68773,-1.19009c-0.00632,-0.49279 -0.28186,-0.94259 -0.718,-1.17208l-1.23615,-0.71387c0.11668,-0.26613 0.2252,-0.53521 0.32282,-0.81097z"/></g></g></svg>