<svg xmlns="http://www.w3.org/2000/svg" xmlns:xlink="http://www.w3.org/1999/xlink" version="1.1" viewBox="0 0 172 172"><g fill="none" fill-rule="nonzero" stroke="none" stroke-width="1" stroke-linecap="butt" stroke-linejoin="miter" stroke-miterlimit="10" stroke-dasharray="" stroke-dashoffset="0" font-family="none" font-weight="none" font-size="none" text-anchor="none" style="mix-blend-mode: normal"><path d="M0,172v-172h172v172z" fill="none"/><path d="M25.8,172c-14.24895,0 -25.8,-11.55105 -25.8,-25.8v-120.4c0,-14.24895 11.55105,-25.8 25.8,-25.8h120.4c14.24895,0 25.8,11.55105 25.8,25.8v120.4c0,14.24895 -11.55105,25.8 -25.8,25.8z" fill="#1a314f"/><g fill="#ffffff"><path d="M86,43c-23.8128,0 -43,19.1872 -43,43c0,23.8128 19.1872,43 43,43c23.8128,0 43,-19.1872 43,-43c0,-23.8128 -19.1872,-43 -43,-43zM103.53335,106.18209c-0.65895,0 -1.33083,-0.33594 -1.98978,-0.67187c-6.27945,-3.63071 -13.88972,-5.62049 -22.15896,-5.62049c-4.6256,0 -9.26412,0.65896 -13.56671,1.65385c-0.65896,0 -1.65385,0.33594 -1.97687,0.33594c-1.65385,0 -2.64874,-1.33083 -2.64874,-2.64874c0,-1.65385 0.99489,-2.64874 2.3128,-2.97175c5.29747,-1.33083 10.58203,-1.98979 16.21545,-1.98979c9.2512,0 17.85637,2.3128 25.13071,6.61538c0.99489,0.65896 1.65385,1.31791 1.65385,2.97176c-0.32302,1.33083 -1.65385,2.32572 -2.97176,2.32572zM108.15896,94.92819c-0.99489,0 -1.65385,-0.32302 -2.3128,-0.65896c-6.95132,-4.30258 -16.53846,-6.95132 -27.45643,-6.95132c-5.28455,0 -10.24609,0.67188 -13.88972,1.65385c-0.99489,0.33594 -1.31791,0.33594 -1.98978,0.33594c-1.97687,0 -3.30769,-1.65385 -3.30769,-3.30769c0,-1.98978 0.99489,-2.97175 2.64874,-3.64363c4.96154,-1.31791 9.92308,-2.3128 16.8744,-2.3128c11.24099,0 22.15896,2.64874 30.76413,7.94621c1.31791,0.65895 1.97686,1.97686 1.97686,3.30769c0,1.97686 -1.31791,3.63071 -3.30769,3.63071zM113.45643,81.69742c-0.99489,0 -1.33083,-0.32302 -2.3128,-0.65896c-7.94621,-4.6256 -19.84615,-7.27434 -31.42308,-7.27434c-5.95643,0 -11.91286,0.65896 -17.21034,1.97687c-0.65896,0 -1.31791,0.33594 -2.3128,0.33594c-2.3128,0.33594 -3.96665,-1.65385 -3.96665,-3.96665c0,-2.3128 1.31791,-3.64363 2.97176,-3.96664c6.29237,-1.98979 12.90775,-2.64874 20.51803,-2.64874c12.55889,0 25.78966,2.64874 35.71274,8.26923c1.33083,0.65896 2.32572,1.97687 2.32572,3.96665c-0.33594,2.3128 -1.98979,3.96665 -4.30259,3.96665z"/></g></g></svg>