<svg xmlns="http://www.w3.org/2000/svg" xmlns:xlink="http://www.w3.org/1999/xlink" version="1.1" viewBox="0 0 172 172"><g fill="none" fill-rule="nonzero" stroke="none" stroke-width="1" stroke-linecap="butt" stroke-linejoin="miter" stroke-miterlimit="10" stroke-dasharray="" stroke-dashoffset="0" font-family="none" font-weight="none" font-size="none" text-anchor="none" style="mix-blend-mode: normal"><path d="M0,172v-172h172v172z" fill="none"/><path d="M25.8,172c-14.24895,0 -25.8,-11.55105 -25.8,-25.8v-120.4c0,-14.24895 11.55105,-25.8 25.8,-25.8h120.4c14.24895,0 25.8,11.55105 25.8,25.8v120.4c0,14.24895 -11.55105,25.8 -25.8,25.8z" fill="#1a314f"/><g fill="#ffffff"><path d="M58.48,49.88c-4.73073,0 -8.6,3.86927 -8.6,8.6v55.04c0,4.73073 3.86927,8.6 8.6,8.6h55.04c4.73073,0 8.6,-3.86927 8.6,-8.6v-55.04c0,-4.73073 -3.86927,-8.6 -8.6,-8.6zM58.48,53.32h55.04c2.87511,0 5.16,2.28489 5.16,5.16v55.04c0,2.87511 -2.28489,5.16 -5.16,5.16h-55.04c-2.87511,0 -5.16,-2.28489 -5.16,-5.16v-55.04c0,-2.87511 2.28489,-5.16 5.16,-5.16zM87.79391,60.2c-0.94858,0.00009 -1.71805,0.76806 -1.72,1.71664c0,0 -0.01889,8.38537 -0.03695,16.79016c-0.00912,4.20239 -0.0201,8.40912 -0.02688,11.5764c-0.00677,3.16729 -0.01008,5.17135 -0.01008,5.33805c0,3.12225 -2.83556,5.67398 -6.06703,5.67398c-3.20572,0 -5.76469,-2.56233 -5.76469,-5.76805c0,-3.20572 2.55897,-5.76469 5.76469,-5.76469c0.1086,0 0.32748,0.03568 0.70211,0.08062c0.48873,0.05859 0.97915,-0.095 1.34715,-0.4219c0.368,-0.3269 0.57834,-0.79579 0.57777,-1.28802v-7.22602c-0.00008,-0.90815 -0.70613,-1.65979 -1.6125,-1.71664c-0.26802,-0.01686 -0.6053,-0.05039 -1.01453,-0.05039c-9.02918,0 -16.38703,7.35785 -16.38703,16.38703c0,9.02919 7.35785,16.38703 16.38703,16.38703c9.02894,0.00001 16.38703,-7.35785 16.38703,-16.38703v-15.56398c2.50193,2.00107 5.62013,3.26867 9.06359,3.26867c0.46966,0 0.91637,-0.02783 1.34375,-0.06719c0.88517,-0.08168 1.56231,-0.82435 1.56211,-1.71328v-8.03227c0.00051,-0.90211 -0.69596,-1.65137 -1.5957,-1.71664c-5.40878,-0.38805 -9.72043,-4.60149 -10.28305,-9.96055c-0.09124,-0.87591 -0.82927,-1.54144 -1.70992,-1.54195zM89.51055,63.64h3.92375c1.25006,5.67376 5.68368,10.00077 11.41515,11.08594v4.9282c-3.67886,-0.18681 -6.91009,-2.02203 -8.81164,-4.91477c-0.41769,-0.63574 -1.20334,-0.92166 -1.93193,-0.70308c-0.7286,0.21858 -1.22712,0.88975 -1.22588,1.65042v19.84047c0,7.16978 -5.77701,12.94703 -12.94703,12.94703c-7.16978,0 -12.94703,-5.77725 -12.94703,-12.94703c0,-6.8809 5.36773,-12.34251 12.13406,-12.78242v3.74234c-4.66736,0.43433 -8.39172,4.26395 -8.39172,9.04008c0,5.06404 4.14064,9.20805 9.20469,9.20805c5.03829,0 9.50703,-3.96647 9.50703,-9.11398c0,0.08414 0.0032,-2.16407 0.01008,-5.33133c0.00671,-3.16726 0.01783,-7.37402 0.02688,-11.57641c0.01617,-7.54546 0.03045,-13.61288 0.0336,-15.07352z"/></g></g></svg>