<svg xmlns="http://www.w3.org/2000/svg" xmlns:xlink="http://www.w3.org/1999/xlink" version="1.1" viewBox="0 0 172 172"><g fill="none" fill-rule="nonzero" stroke="none" stroke-width="1" stroke-linecap="butt" stroke-linejoin="miter" stroke-miterlimit="10" stroke-dasharray="" stroke-dashoffset="0" font-family="none" font-weight="none" font-size="none" text-anchor="none" style="mix-blend-mode: normal"><path d="M0,172v-172h172v172z" fill="none"/><path d="M25.8,172c-14.24895,0 -25.8,-11.55105 -25.8,-25.8v-120.4c0,-14.24895 11.55105,-25.8 25.8,-25.8h120.4c14.24895,0 25.8,11.55105 25.8,25.8v120.4c0,14.24895 -11.55105,25.8 -25.8,25.8z" fill="#1a314f"/><g fill="#ffffff"><path d="M119.07692,63.67523c-2.47646,1.09826 -4.96369,1.92733 -7.7201,2.20728c2.75641,-1.65815 4.96369,-4.41456 6.06195,-7.45092c-2.75641,1.65815 -5.51282,2.75641 -8.53841,3.31631c-2.75641,-2.75641 -6.3419,-4.41456 -10.19656,-4.41456c-7.45092,0 -13.51287,6.06195 -13.51287,13.5021c0,1.10902 0,2.20728 0.27995,3.03636c-11.30559,-0.54913 -21.2222,-5.79277 -27.84405,-14.062c-1.37821,1.9381 -1.92733,4.41456 -1.92733,6.89103c0,4.69451 2.47646,8.82913 6.06195,11.30559c-2.20728,-0.27995 -4.4038,-0.82908 -6.06195,-1.65815c0,0 0,0 0,0.27995c0,6.61108 4.68374,12.1239 10.74569,13.23292c-1.09826,0.26918 -2.19651,0.54913 -3.57472,0.54913c-0.82908,0 -1.65815,0 -2.48723,-0.27995c1.65815,5.51282 6.62185,9.37825 12.68379,9.37825c-4.68374,3.58549 -10.47651,5.782 -16.81841,5.782c-1.09826,0 -2.20728,0 -3.30554,-0.26918c6.06195,3.85467 13.23292,6.06195 20.67308,6.06195c25.08764,0 38.58974,-20.67308 38.58974,-38.58974c0,-0.54913 0,-1.09826 0,-1.65815c2.75641,-1.92733 4.96369,-4.4038 6.89103,-7.16021"/></g></g></svg>