<svg xmlns="http://www.w3.org/2000/svg" xmlns:xlink="http://www.w3.org/1999/xlink" version="1.1" viewBox="0 0 172 172"><g fill="none" fill-rule="nonzero" stroke="none" stroke-width="1" stroke-linecap="butt" stroke-linejoin="miter" stroke-miterlimit="10" stroke-dasharray="" stroke-dashoffset="0" font-family="none" font-weight="none" font-size="none" text-anchor="none" style="mix-blend-mode: normal"><path d="M0,172v-172h172v172z" fill="none"/><path d="M25.8,172c-14.24895,0 -25.8,-11.55105 -25.8,-25.8v-120.4c0,-14.24895 11.55105,-25.8 25.8,-25.8h120.4c14.24895,0 25.8,11.55105 25.8,25.8v120.4c0,14.24895 -11.55105,25.8 -25.8,25.8z" fill="#1a314f"/><g fill="#ffffff"><path d="M113.52,49.88h-55.04c-4.74204,0 -8.6,3.85796 -8.6,8.6v55.04c0,4.74204 3.85796,8.6 8.6,8.6h55.04c4.74204,0 8.6,-3.85796 8.6,-8.6v-55.04c0,-4.74204 -3.85796,-8.6 -8.6,-8.6zM91.16,106.64h-18.92l-5.16,-37.84l13.76,-1.72172l3.44,27.52172c3.15276,-5.01896 6.88,-13.54156 6.88,-18.92c0,-2.94292 -0.91332,-5.2288 -1.72,-6.88l13.76,-3.44c1.46716,2.36844 1.72,6.5274 1.72,9.60792c0,9.82808 -6.794,22.70744 -13.76,31.67208z"/></g></g></svg>