<svg xmlns="http://www.w3.org/2000/svg" xmlns:xlink="http://www.w3.org/1999/xlink" version="1.1" viewBox="0 0 172 172"><g fill="none" fill-rule="nonzero" stroke="none" stroke-width="1" stroke-linecap="butt" stroke-linejoin="miter" stroke-miterlimit="10" stroke-dasharray="" stroke-dashoffset="0" font-family="none" font-weight="none" font-size="none" text-anchor="none" style="mix-blend-mode: normal"><path d="M0,172v-172h172v172z" fill="none"/><path d="M25.8,172c-14.24895,0 -25.8,-11.55105 -25.8,-25.8v-120.4c0,-14.24895 11.55105,-25.8 25.8,-25.8h120.4c14.24895,0 25.8,11.55105 25.8,25.8v120.4c0,14.24895 -11.55105,25.8 -25.8,25.8z" fill="#1a314f"/><g fill="#ffffff"><path d="M65.88854,42.94104c-1.58101,0.02471 -2.84353,1.3248 -2.82187,2.90586v2.86667c-0.01462,1.03382 0.52854,1.99543 1.4215,2.51661c0.89296,0.52118 1.99737,0.52118 2.89033,0c0.89296,-0.52118 1.43612,-1.48279 1.4215,-2.51661v-2.86667c0.01061,-0.77486 -0.29291,-1.52101 -0.84139,-2.06845c-0.54849,-0.54743 -1.29522,-0.84951 -2.07006,-0.83741zM106.02188,42.94104c-1.58101,0.02471 -2.84353,1.3248 -2.82187,2.90586v2.86667c-0.01462,1.03382 0.52854,1.99543 1.4215,2.51661c0.89296,0.52118 1.99737,0.52118 2.89033,0c0.89296,-0.52118 1.43612,-1.48279 1.4215,-2.51661v-2.86667c0.01061,-0.77486 -0.29291,-1.52101 -0.84139,-2.06845c-0.54849,-0.54743 -1.29522,-0.84951 -2.07006,-0.83741zM85.95521,45.8077c-1.58101,0.02471 -2.84353,1.3248 -2.82187,2.90586v3.00664c-16.72,1.38079 -30.15241,14.68666 -31.53333,31.39336c0,1.5824 1.28427,2.86667 2.86667,2.86667c1.5824,0 5.73333,-2.86667 8.6,-2.86667c2.86667,0 5.73333,2.86667 8.6,2.86667c2.86667,0 5.7276,-2.86093 14.33333,-2.86667c8.60573,0.00573 11.46667,2.86667 14.33333,2.86667c2.86667,0 5.73333,-2.86667 8.6,-2.86667c2.86667,0 7.0176,2.86667 8.6,2.86667c1.5824,0 2.86667,-1.28427 2.86667,-2.86667c-1.38092,-16.7067 -14.81333,-30.01257 -31.53333,-31.39336v-3.00664c0.01061,-0.77486 -0.29291,-1.52101 -0.84139,-2.06845c-0.54849,-0.54743 -1.29522,-0.84951 -2.07006,-0.83741zM54.42188,51.54104c-1.58101,0.02471 -2.84353,1.3248 -2.82187,2.90586v2.86667c-0.01462,1.03382 0.52854,1.99543 1.4215,2.51661c0.89296,0.52118 1.99737,0.52118 2.89033,0c0.89296,-0.52118 1.43612,-1.48279 1.4215,-2.51661v-2.86667c0.01061,-0.77486 -0.29291,-1.52101 -0.84139,-2.06845c-0.54849,-0.54743 -1.29522,-0.84951 -2.07006,-0.83741zM117.48854,51.54104c-1.58101,0.02471 -2.84353,1.3248 -2.82187,2.90586v2.86667c-0.01462,1.03382 0.52854,1.99543 1.4215,2.51661c0.89296,0.52118 1.99737,0.52118 2.89033,0c0.89296,-0.52118 1.43612,-1.48279 1.4215,-2.51661v-2.86667c0.01061,-0.77486 -0.29291,-1.52101 -0.84139,-2.06845c-0.54849,-0.54743 -1.29522,-0.84951 -2.07006,-0.83741zM85.95521,88.8077c-0.13887,0.00301 -0.27735,0.01611 -0.41432,0.03919h-2.40755v5.73333v14.33333c0,1.61975 -1.24691,2.86667 -2.86667,2.86667c-1.61975,0 -2.86667,-1.24691 -2.86667,-2.86667v-2.86667c0.01462,-1.03382 -0.52854,-1.99543 -1.4215,-2.51661c-0.89296,-0.52118 -1.99737,-0.52118 -2.89033,0c-0.89296,0.52118 -1.43612,1.48279 -1.4215,2.51661v2.86667c0,4.71558 3.88442,8.6 8.6,8.6c4.71558,0 8.6,-3.88442 8.6,-8.6v-17.2v-2.86667h-2.42435c-0.16096,-0.0269 -0.32392,-0.04002 -0.48711,-0.03919z"/></g></g></svg>