<svg xmlns="http://www.w3.org/2000/svg" xmlns:xlink="http://www.w3.org/1999/xlink" version="1.1" viewBox="0 0 172 172"><g fill="none" fill-rule="nonzero" stroke="none" stroke-width="1" stroke-linecap="butt" stroke-linejoin="miter" stroke-miterlimit="10" stroke-dasharray="" stroke-dashoffset="0" font-family="none" font-weight="none" font-size="none" text-anchor="none" style="mix-blend-mode: normal"><path d="M0,172v-172h172v172z" fill="none"/><path d="M25.8,172c-14.24895,0 -25.8,-11.55105 -25.8,-25.8v-120.4c0,-14.24895 11.55105,-25.8 25.8,-25.8h120.4c14.24895,0 25.8,11.55105 25.8,25.8v120.4c0,14.24895 -11.55105,25.8 -25.8,25.8z" fill="#1a314f"/><g fill="#ffffff"><path d="M111.75162,70.37488c-0.61813,-2.31125 -2.44025,-4.13338 -4.7515,-4.7515c-4.1925,-1.12337 -21.00012,-1.12337 -21.00012,-1.12337c0,0 -16.80763,0 -21.00013,1.12337c-2.31125,0.61813 -4.13337,2.44025 -4.7515,4.7515c-1.12337,4.1925 -1.12337,15.62512 -1.12337,15.62512c0,0 0,11.43262 1.12337,15.62512c0.61813,2.31125 2.44025,4.13338 4.7515,4.7515c4.1925,1.12337 21.00013,1.12337 21.00013,1.12337c0,0 16.80762,0 21.00012,-1.12337c2.31394,-0.61813 4.13337,-2.44025 4.7515,-4.7515c1.12338,-4.1925 1.12338,-15.62512 1.12338,-15.62512c0,0 0,-11.43263 -1.12338,-15.62512zM80.625,92.98212v-13.96425c0,-1.03469 1.12069,-1.67969 2.01563,-1.16369l12.09375,6.98212c0.89494,0.516 0.89494,1.81138 0,2.32738l-12.09375,6.98213c-0.89494,0.51869 -2.01562,-0.129 -2.01562,-1.16369z"/></g></g></svg>